<svg width="14" height="14" viewBox="0 0 14 14" fill="none" xmlns="http://www.w3.org/2000/svg">
<path fill-rule="evenodd" clip-rule="evenodd" d="M6.99997 0.175018C5.32471 0.175018 3.96664 1.53309 3.96664 3.20835V6.70835C3.96664 8.38362 5.32471 9.74169 6.99997 9.74169C8.67524 9.74169 10.0333 8.38362 10.0333 6.70835V3.20835C10.0333 1.53309 8.67524 0.175018 6.99997 0.175018ZM4.89997 3.20835C4.89997 2.04855 5.84017 1.10835 6.99997 1.10835C8.15977 1.10835 9.09997 2.04855 9.09997 3.20835V6.70835C9.09997 7.86815 8.15977 8.80835 6.99997 8.80835C5.84017 8.80835 4.89997 7.86815 4.89997 6.70835V3.20835Z" fill="#4D5159"/>
<path d="M2.3333 6.24168C2.07557 6.24168 1.86664 6.45062 1.86664 6.70835C1.86664 9.40597 3.94748 11.6176 6.59164 11.8257V12.8917H5.01664C4.7589 12.8917 4.54997 13.1006 4.54997 13.3584C4.54997 13.6161 4.7589 13.825 5.01664 13.825L8.9833 13.825C9.24104 13.825 9.44997 13.6161 9.44997 13.3584C9.44997 13.1006 9.24104 12.8917 8.9833 12.8917H7.52497V11.8152C10.1134 11.5522 12.1333 9.36617 12.1333 6.70835C12.1333 6.45062 11.9244 6.24168 11.6666 6.24168C11.4089 6.24168 11.2 6.45062 11.2 6.70835C11.2 9.02795 9.31957 10.9084 6.99997 10.9084C4.68038 10.9084 2.79997 9.02795 2.79997 6.70835C2.79997 6.45062 2.59104 6.24168 2.3333 6.24168Z" fill="#4D5159"/>
</svg>
