<svg width="12" height="12" viewBox="0 0 12 12" fill="none" xmlns="http://www.w3.org/2000/svg">
<path fill-rule="evenodd" clip-rule="evenodd" d="M5.99996 0C6.35343 0 6.63996 0.286543 6.63996 0.640013V5.36003H11.36C11.7135 5.36003 12 5.64657 12 6.00004C12 6.35351 11.7135 6.64005 11.36 6.64005H6.63996V11.36C6.63996 11.7135 6.35343 12 5.99996 12C5.6465 12 5.35996 11.7135 5.35996 11.36V6.64005H0.640004C0.28654 6.64005 0 6.35351 0 6.00004C0 5.64657 0.28654 5.36003 0.640004 5.36003H5.35996V0.640013C5.35996 0.286543 5.6465 0 5.99996 0Z" fill="#212124"/>
</svg>
