<svg width="63" height="18" viewBox="0 0 63 18" fill="none" xmlns="http://www.w3.org/2000/svg">
<path d="M0 6C0 2.68629 2.68629 0 6 0H63V12C63 15.3137 60.3137 18 57 18H0V6Z" fill="#F5F5F5"/>
<g clip-path="url(#clip0_3022_11930)">
<path d="M9.92603 5.35449H4.89187C4.26042 5.35449 3.74854 5.86638 3.74854 6.49783V11.6487C3.74854 12.2801 4.26042 12.792 4.89187 12.792H9.92603C10.5575 12.792 11.0694 12.2801 11.0694 11.6487V6.49783C11.0694 5.86638 10.5575 5.35449 9.92603 5.35449Z" stroke="#85878A" stroke-linecap="round" stroke-linejoin="round"/>
<path d="M12.6436 11.3857L14.2594 12.459V5.89648L12.6436 6.97565V11.3857Z" stroke="#85878A" stroke-linecap="round" stroke-linejoin="round"/>
</g>
<path d="M27.6188 3.49448H26.5V13.9945H27.6188V8.82735H29.1934V7.89503H27.6188V3.49448ZM19.2569 11.1395L19.4268 12.0677C21.2417 12.0677 23.6989 12.047 25.9779 11.645L25.8992 10.8204C25.029 10.9448 24.0925 11.0193 23.1644 11.0649V10.0414C24.3453 9.87155 25.1326 9.1547 25.1409 8.13536C25.1326 6.95028 24.0967 6.17127 22.6133 6.17127C21.1133 6.17127 20.0898 6.95028 20.0981 8.13536C20.0898 9.15055 20.8646 9.8674 22.0497 10.0414V11.1064C21.047 11.1354 20.0856 11.1395 19.2569 11.1395ZM19.4517 5.62845H25.75V4.74171H23.1644V3.52348H22.0497V4.74171H19.4517V5.62845ZM21.1464 8.13536C21.1464 7.46409 21.7307 7.03315 22.6133 7.03315C23.4876 7.03315 24.0718 7.46409 24.0718 8.13536C24.0718 8.80249 23.4876 9.21685 22.6133 9.21271C21.7307 9.21685 21.1464 8.80249 21.1464 8.13536ZM33.0739 5.1768V4.04144H31.9716V5.08149C31.9634 6.64365 31.0145 8.04834 29.3777 8.6326L29.9786 9.51519C31.2009 9.06354 32.0918 8.1395 32.5435 6.96271C33.0034 7.99862 33.8653 8.81492 35.0172 9.22099L35.6098 8.34668C34.0435 7.83287 33.0739 6.55249 33.0739 5.1768ZM30.7949 12.0221C30.7949 13.2693 32.1374 13.9779 34.317 13.9779C36.4799 13.9779 37.8059 13.2693 37.8059 12.0221C37.8059 10.7997 36.4799 10.0787 34.317 10.0787C32.1374 10.0787 30.7949 10.7997 30.7949 12.0221ZM31.9095 12.0221C31.9012 11.355 32.8004 10.9613 34.317 10.9613C35.8294 10.9613 36.7161 11.355 36.7161 12.0221C36.7161 12.7182 35.8294 13.0953 34.317 13.1036C32.8004 13.0953 31.9012 12.7182 31.9095 12.0221ZM36.596 9.83011H37.7106V7.0663H39.2313V6.13812H37.7106V3.49448H36.596V9.83011ZM49.1408 11.7652H44.8604V9.33702H47.9889V4.33564H40.6256V9.33702H43.7582V11.7652H39.5317V12.6851H49.1408V11.7652ZM41.7154 8.45442V5.23481H46.8991V8.45442H41.7154ZM58.3127 3.50276H57.1981V9.4779H58.3127V3.50276ZM49.8141 6.51519C49.8141 7.95718 50.9992 8.98066 52.6111 8.98066C54.2188 8.98066 55.3997 7.95718 55.3997 6.51519C55.3997 5.04005 54.2188 4.02901 52.6111 4.02901C50.9992 4.02901 49.8141 5.04005 49.8141 6.51519ZM50.9039 6.51519C50.8956 5.58702 51.6125 4.96547 52.6111 4.97376C53.5973 4.96547 54.31 5.58702 54.31 6.51519C54.31 7.42265 53.5973 8.04006 52.6111 8.04006C51.6125 8.04006 50.8956 7.42265 50.9039 6.51519ZM51.4094 13.8619H58.3127V10.0166H51.4094V13.8619ZM52.5075 12.9586V10.9075H57.2188V12.9586H52.5075Z" fill="#85878A"/>
<defs>
<clipPath id="clip0_3022_11930">
<rect width="11.6725" height="8.60417" fill="white" transform="translate(3.16748 4.77051)"/>
</clipPath>
</defs>
</svg>
