<svg width="14" height="14" viewBox="0 0 14 14" fill="none" xmlns="http://www.w3.org/2000/svg">
<path d="M13.3001 3.54693V10.4439C13.302 10.5502 13.2765 10.6552 13.2264 10.7477C13.1762 10.8403 13.1032 10.9171 13.0149 10.9701C12.9267 11.0231 12.8264 11.0504 12.7246 11.0491C12.6227 11.0479 12.5231 11.0181 12.4361 10.9628L9.7002 9.24804V4.74274L12.4361 3.03546C12.5226 2.9806 12.6216 2.95085 12.7228 2.94926C12.8239 2.94766 12.9237 2.97426 13.0117 3.02638C13.0998 3.07849 13.1729 3.15421 13.2236 3.24571C13.2743 3.3372 13.3007 3.44122 13.3001 3.54693Z" stroke="#4D5159" stroke-width="0.933333" stroke-linecap="round" stroke-linejoin="round"/>
<rect x="0.700012" y="2.94919" width="9" height="8.1" rx="1.16667" stroke="#4D5159" stroke-width="0.933333"/>
</svg>
