<svg width="63" height="18" viewBox="0 0 63 18" fill="none" xmlns="http://www.w3.org/2000/svg">
<rect width="63" height="18" rx="2" fill="#F0F0F0"/>
<path d="M9.99837 3.65256C9.6116 3.65256 9.24067 3.8062 8.96717 4.07969C8.69368 4.35318 8.54004 4.72412 8.54004 5.11089V8.99978C8.54004 9.38655 8.69368 9.75749 8.96717 10.031C9.24067 10.3045 9.6116 10.4581 9.99837 10.4581C10.3851 10.4581 10.7561 10.3045 11.0296 10.031C11.3031 9.75749 11.4567 9.38655 11.4567 8.99978V5.11089C11.4567 4.72412 11.3031 4.35318 11.0296 4.07969C10.7561 3.8062 10.3851 3.65256 9.99837 3.65256V3.65256Z" stroke="#85878A" stroke-width="1.05" stroke-linecap="round" stroke-linejoin="round"/>
<path d="M13.4022 8.02759V8.99981C13.4022 9.90228 13.0437 10.7678 12.4056 11.4059C11.7674 12.0441 10.9019 12.4026 9.99946 12.4026C9.09698 12.4026 8.23147 12.0441 7.59333 11.4059C6.95519 10.7678 6.59668 9.90228 6.59668 8.99981V8.02759" stroke="#85878A" stroke-width="1.05" stroke-linecap="round" stroke-linejoin="round"/>
<path d="M9.99902 12.4025V14.347" stroke="#85878A" stroke-width="1.05" stroke-linecap="round" stroke-linejoin="round"/>
<path d="M8.05469 14.3468H11.9436" stroke="#85878A" stroke-width="1.05" stroke-linecap="round" stroke-linejoin="round"/>
<path d="M24.1671 3.71409C21.8715 3.71409 20.413 4.46409 20.413 5.73204C20.413 6.97928 21.8715 7.72099 24.1671 7.72099C26.471 7.72099 27.913 6.97928 27.913 5.73204C27.913 4.46409 26.471 3.71409 24.1671 3.71409ZM24.1671 4.59668C25.7749 4.59254 26.7735 5.00691 26.7735 5.73204C26.7735 6.43232 25.7749 6.84254 24.1671 6.84668C22.5511 6.84254 21.5608 6.43232 21.5691 5.73204C21.5608 5.00691 22.5511 4.59254 24.1671 4.59668ZM19.3895 8.52901V9.42818H28.9613V8.52901H19.3895ZM20.5373 10.3688V13.8619H27.7928V10.3688H20.5373ZM26.7113 11.2555V12.9586H21.6354V11.2555H26.7113ZM38.212 9.69337V3.49448H37.1015V5.6326H34.8888V6.54834H37.1015V9.69337H38.212ZM32.6595 6.95856C33.1153 8.01105 33.9647 8.81906 35.1208 9.23757L35.7258 8.3674C34.1346 7.84945 33.1816 6.53591 33.1899 5.0732V4.07873H32.0794V5.11878C32.0711 6.69337 31.0973 8.08978 29.4192 8.6616L30.0158 9.55663C31.2879 9.09668 32.2037 8.16022 32.6595 6.95856ZM34.694 9.98343C32.4896 9.98343 31.1388 10.721 31.1471 11.9931C31.1388 13.261 32.4896 13.9779 34.694 13.9779C36.8943 13.9779 38.241 13.261 38.2451 11.9931C38.241 10.721 36.8943 9.98343 34.694 9.98343ZM34.694 13.0994C33.1567 13.0994 32.241 12.6934 32.2493 11.9931C32.241 11.268 33.1567 10.8577 34.694 10.8577C36.2272 10.8577 37.1388 11.268 37.1429 11.9931C37.1388 12.6934 36.2272 13.0994 34.694 13.0994ZM44.8604 9.33702H47.9889V4.33564H40.6256V9.33702H43.7582V11.7652H39.5317V12.6851H49.1408V11.7652H44.8604V9.33702ZM46.8991 5.23481V8.45442H41.7154V5.23481H46.8991ZM57.1981 3.50276V9.4779H58.3127V3.50276H57.1981ZM52.6111 4.02901C50.9992 4.02901 49.8141 5.04005 49.8141 6.51519C49.8141 7.95718 50.9992 8.98066 52.6111 8.98066C54.2188 8.98066 55.3997 7.95718 55.3997 6.51519C55.3997 5.04005 54.2188 4.02901 52.6111 4.02901ZM52.6111 4.97376C53.5973 4.96547 54.31 5.58702 54.31 6.51519C54.31 7.42265 53.5973 8.04006 52.6111 8.04006C51.6125 8.04006 50.8956 7.42265 50.9039 6.51519C50.8956 5.58702 51.6125 4.96547 52.6111 4.97376ZM51.4094 10.0166V13.8619H58.3127V10.0166H51.4094ZM57.2188 10.9075V12.9586H52.5075V10.9075H57.2188Z" fill="#85878A"/>
</svg>
