<svg width="22" height="22" viewBox="0 0 22 22" fill="none" xmlns="http://www.w3.org/2000/svg">
<path d="M10.998 2.59692C10.3902 2.59692 9.80728 2.83837 9.37751 3.26814C8.94774 3.69791 8.7063 4.2808 8.7063 4.88859V10.9997C8.7063 11.6075 8.94774 12.1904 9.37751 12.6202C9.80728 13.0499 10.3902 13.2914 10.998 13.2914C11.6058 13.2914 12.1886 13.0499 12.6184 12.6202C13.0482 12.1904 13.2896 11.6075 13.2896 10.9997V4.88859C13.2896 4.2808 13.0482 3.69791 12.6184 3.26814C12.1886 2.83837 11.6058 2.59692 10.998 2.59692V2.59692Z" stroke="white" stroke-width="1.25" stroke-linecap="round" stroke-linejoin="round"/>
<path d="M16.3465 9.47192V10.9997C16.3465 12.4179 15.7832 13.778 14.7804 14.7808C13.7776 15.7836 12.4175 16.3469 10.9993 16.3469C9.58115 16.3469 8.22106 15.7836 7.21826 14.7808C6.21547 13.778 5.6521 12.4179 5.6521 10.9997V9.47192" stroke="white" stroke-width="1.25" stroke-linecap="round" stroke-linejoin="round"/>
<path d="M10.9985 16.3469V19.4025" stroke="white" stroke-width="1.25" stroke-linecap="round" stroke-linejoin="round"/>
<path d="M7.9436 19.4023H14.0547" stroke="white" stroke-width="1.25" stroke-linecap="round" stroke-linejoin="round"/>
</svg>
