<svg width="24" height="24" viewBox="0 0 24 24" fill="none" xmlns="http://www.w3.org/2000/svg">
<path d="M6.66666 8V7.5C6.39051 7.5 6.16666 7.72386 6.16666 8H6.66666ZM17.3333 8H17.8333C17.8333 7.72386 17.6095 7.5 17.3333 7.5V8ZM6.66666 8.5H17.3333V7.5H6.66666V8.5ZM16.8333 8V19H17.8333V8H16.8333ZM16.3333 19.5H7.66666V20.5H16.3333V19.5ZM7.16666 19V8H6.16666V19H7.16666ZM7.66666 19.5C7.39051 19.5 7.16666 19.2761 7.16666 19H6.16666C6.16666 19.8284 6.83823 20.5 7.66666 20.5V19.5ZM16.8333 19C16.8333 19.2761 16.6095 19.5 16.3333 19.5V20.5C17.1617 20.5 17.8333 19.8284 17.8333 19H16.8333Z" fill="#FF5638"/>
<path d="M5.33334 8H18.6667" stroke="#FF5638" stroke-linecap="round" stroke-linejoin="round"/>
<path d="M7.5 8C7.5 8.27614 7.72386 8.5 8 8.5C8.27614 8.5 8.5 8.27614 8.5 8H7.5ZM15.5 8C15.5 8.27614 15.7239 8.5 16 8.5C16.2761 8.5 16.5 8.27614 16.5 8H15.5ZM8.5 8V5H7.5V8H8.5ZM9 4.5H15V3.5H9V4.5ZM15.5 5V8H16.5V5H15.5ZM15 4.5C15.2761 4.5 15.5 4.72386 15.5 5H16.5C16.5 4.17157 15.8284 3.5 15 3.5V4.5ZM8.5 5C8.5 4.72386 8.72386 4.5 9 4.5V3.5C8.17157 3.5 7.5 4.17157 7.5 5H8.5Z" fill="#FF5638"/>
<path d="M10 10.6666V17.3333" stroke="#FF5638" stroke-linecap="round" stroke-linejoin="round"/>
<path d="M14 10.6666V17.3333" stroke="#FF5638" stroke-linecap="round" stroke-linejoin="round"/>
</svg>
