<svg width="24" height="24" viewBox="0 0 24 24" fill="none" xmlns="http://www.w3.org/2000/svg">
<path d="M1.55806 18.4002C1.31398 18.6442 1.31398 19.04 1.55806 19.284C1.80214 19.5281 2.19786 19.5281 2.44194 19.284L1.55806 18.4002ZM6.21053 14.6316L6.65247 14.1896C6.40839 13.9456 6.01266 13.9456 5.76858 14.1896L6.21053 14.6316ZM9.36842 17.7895L8.92648 18.2314C9.17056 18.4755 9.56629 18.4755 9.81036 18.2314L9.36842 17.7895ZM14.6316 12.5263L15.0735 12.0844C14.8294 11.8403 14.4337 11.8403 14.1896 12.0844L14.6316 12.5263ZM18.4002 17.1788C18.6442 17.4229 19.04 17.4229 19.284 17.1788C19.5281 16.9347 19.5281 16.539 19.284 16.2949L18.4002 17.1788ZM2.44194 19.284L6.65247 15.0735L5.76858 14.1896L1.55806 18.4002L2.44194 19.284ZM5.76858 15.0735L8.92648 18.2314L9.81036 17.3475L6.65247 14.1896L5.76858 15.0735ZM9.81036 18.2314L15.0735 12.9683L14.1896 12.0844L8.92648 17.3475L9.81036 18.2314ZM14.1896 12.9683L18.4002 17.1788L19.284 16.2949L15.0735 12.0844L14.1896 12.9683Z" fill="#CBCCCD"/>
<path d="M15.6842 4.53289C15.339 4.53289 15.0592 4.81272 15.0592 5.15789C15.0592 5.50307 15.339 5.78289 15.6842 5.78289V4.53289ZM22 5.78289C22.3452 5.78289 22.625 5.50307 22.625 5.15789C22.625 4.81272 22.3452 4.53289 22 4.53289V5.78289ZM15.6842 5.78289H22V4.53289H15.6842V5.78289Z" fill="#CBCCCD"/>
<path d="M19.4671 2C19.4671 1.65482 19.1873 1.375 18.8421 1.375C18.4969 1.375 18.2171 1.65482 18.2171 2L19.4671 2ZM18.2171 8.31579C18.2171 8.66097 18.4969 8.94079 18.8421 8.94079C19.1873 8.94079 19.4671 8.66097 19.4671 8.31579L18.2171 8.31579ZM18.2171 2L18.2171 8.31579L19.4671 8.31579L19.4671 2L18.2171 2Z" fill="#CBCCCD"/>
<path d="M2 5.15789V4.53289C1.65482 4.53289 1.375 4.81272 1.375 5.15789H2ZM18.8421 22V22.625C19.1873 22.625 19.4671 22.3452 19.4671 22H18.8421ZM2 22H1.375C1.375 22.3452 1.65482 22.625 2 22.625V22ZM19.4671 11.4211C19.4671 11.0759 19.1873 10.7961 18.8421 10.7961C18.4969 10.7961 18.2171 11.0759 18.2171 11.4211H19.4671ZM12.5789 5.78289C12.9241 5.78289 13.2039 5.50307 13.2039 5.15789C13.2039 4.81272 12.9241 4.53289 12.5789 4.53289V5.78289ZM18.8421 21.375H2V22.625H18.8421V21.375ZM2.625 22V5.15789H1.375V22H2.625ZM18.2171 11.4211V22H19.4671V11.4211H18.2171ZM2 5.78289H12.5789V4.53289H2V5.78289Z" fill="#CBCCCD"/>
</svg>
