<svg width="18" height="18" viewBox="0 0 18 18" fill="none" xmlns="http://www.w3.org/2000/svg">
<path fill-rule="evenodd" clip-rule="evenodd" d="M11.8499 8.625V4.125C11.8499 2.55099 10.5739 1.275 8.99993 1.275C7.42592 1.275 6.14993 2.55099 6.14993 4.125V8.625C6.14993 10.199 7.42592 11.475 8.99993 11.475C10.5739 11.475 11.8499 10.199 11.8499 8.625ZM8.99993 0.375C6.92886 0.375 5.24993 2.05393 5.24993 4.125V8.625C5.24993 10.6961 6.92886 12.375 8.99993 12.375C11.071 12.375 12.7499 10.6961 12.7499 8.625V4.125C12.7499 2.05393 11.071 0.375 8.99993 0.375Z" fill="#212124"/>
<path fill-rule="evenodd" clip-rule="evenodd" d="M2.99993 8.175C3.24845 8.175 3.44993 8.37647 3.44993 8.625C3.44993 11.6902 5.93475 14.175 8.99993 14.175C12.0651 14.175 14.5499 11.6902 14.5499 8.625C14.5499 8.37647 14.7514 8.175 14.9999 8.175C15.2485 8.175 15.4499 8.37647 15.4499 8.625C15.4499 12.1872 12.5622 15.075 8.99993 15.075C5.43769 15.075 2.54993 12.1872 2.54993 8.625C2.54993 8.37647 2.7514 8.175 2.99993 8.175Z" fill="#212124"/>
<path fill-rule="evenodd" clip-rule="evenodd" d="M8.62493 16.875V14.625H9.52493V16.875H8.62493Z" fill="#212124"/>
<path fill-rule="evenodd" clip-rule="evenodd" d="M5.99993 17.175C5.99993 16.9265 6.2014 16.725 6.44993 16.725H11.5499C11.7985 16.725 11.9999 16.9265 11.9999 17.175C11.9999 17.4235 11.7985 17.625 11.5499 17.625L6.44993 17.625C6.2014 17.625 5.99993 17.4235 5.99993 17.175Z" fill="#212124"/>
</svg>
