<svg width="20" height="20" viewBox="0 0 20 20" fill="none" xmlns="http://www.w3.org/2000/svg">
<path d="M19.0001 5.06705V14.9198C19.0029 15.0717 18.9665 15.2217 18.8948 15.3539C18.8231 15.4861 18.7189 15.5958 18.5928 15.6716C18.4667 15.7473 18.3234 15.7863 18.1779 15.7845C18.0325 15.7827 17.8902 15.7401 17.7659 15.6612L13.8574 13.2115V6.77535L17.7659 4.33639C17.8894 4.25801 18.0308 4.21551 18.1754 4.21323C18.3199 4.21096 18.4624 4.24895 18.5882 4.3234C18.714 4.39785 18.8184 4.50603 18.8908 4.63673C18.9633 4.76744 19.001 4.91604 19.0001 5.06705Z" stroke="#212124" stroke-linecap="round" stroke-linejoin="round"/>
<rect x="1" y="4.21313" width="12.8571" height="11.5714" rx="2" stroke="#212124"/>
</svg>
