<svg width="18" height="18" viewBox="0 0 18 18" fill="none" xmlns="http://www.w3.org/2000/svg">
<path d="M5.31836 6.13661C5.31836 4.10319 6.96676 2.45479 9.00019 2.45479C11.0336 2.45479 12.682 4.10319 12.682 6.13661V12.2729H5.31836V6.13661Z" fill="#ACAEAF" stroke="#ACAEAF" stroke-width="1.5"/>
<path d="M9 15.5454C10.2426 15.5454 11.25 14.6297 11.25 13.5H6.75C6.75 14.6297 7.75736 15.5454 9 15.5454Z" fill="#ACAEAF"/>
<path d="M3.88643 11.7C3.51364 11.7 3.21143 12.0022 3.21143 12.375C3.21143 12.7478 3.51364 13.05 3.88643 13.05V11.7ZM14.1137 13.05C14.4865 13.05 14.7887 12.7478 14.7887 12.375C14.7887 12.0022 14.4865 11.7 14.1137 11.7V13.05ZM3.88643 13.05H14.1137V11.7H3.88643V13.05Z" fill="#ACAEAF"/>
</svg>
