<svg width="18" height="18" viewBox="0 0 18 18" fill="none" xmlns="http://www.w3.org/2000/svg">
<path d="M5.31824 6.13665C5.31824 4.10324 6.96664 2.45483 9.00007 2.45483C11.0334 2.45483 12.6819 4.10324 12.6819 6.13665V12.273H5.31824V6.13665Z" stroke="#85878A" stroke-width="1.5"/>
<path d="M9 15.5454C10.2426 15.5454 11.25 14.6297 11.25 13.5H6.75C6.75 14.6297 7.75736 15.5454 9 15.5454Z" fill="#85878A"/>
<path d="M3.88655 11.598C3.51376 11.598 3.21155 11.9002 3.21155 12.273C3.21155 12.6458 3.51376 12.948 3.88655 12.948V11.598ZM14.1138 12.948C14.4866 12.948 14.7888 12.6458 14.7888 12.273C14.7888 11.9002 14.4866 11.598 14.1138 11.598V12.948ZM3.88655 12.948H14.1138V11.598H3.88655V12.948Z" fill="#85878A"/>
</svg>
