<svg width="115" height="44" viewBox="0 0 115 44" fill="none" xmlns="http://www.w3.org/2000/svg">
<path d="M29.8098 28.1215H30.8637V15.9682H29.8098V28.1215ZM23.0225 20.1354V17.5249H27.8374V16.6547H21.9396V21.0345H28.0018V20.1354H23.0225ZM28.93 22.2624C26.2421 22.5525 23.2062 22.5718 20.7794 22.5815L20.9148 23.5C21.9686 23.5 23.1337 23.4903 24.3471 23.4468V27.7348H25.4203V23.3985C26.6047 23.3356 27.8181 23.2341 28.988 23.0746L28.93 22.2624ZM38.6992 23.4033H42.6439V22.5138H35.0928V20.5318H42.3636V16.8577H34.0003V17.7472H41.3V19.6519H34.0293V23.4033H37.6357V25.6948H32.637V26.6036H43.7655V25.6948H38.6992V23.4033ZM53.7221 20.087H57.4155V19.2169H50.2028V17.3218H57.2898V16.4323H49.1296V20.087H52.6586V21.2569H47.6503V22.1271H58.7304V21.2569H53.7221V20.087ZM57.2995 25.8785V23.1713H48.9942V23.9931H56.2456V25.0856H49.0233V27.9669H57.6669V27.116H50.0771V25.8785H57.2995ZM68.8574 20.8122V15.9586H67.7842V28.1119H68.8574V21.7307H70.8878V20.8122H68.8574ZM62.6985 16.8964C60.9002 16.9061 59.6336 18.5497 59.6433 21.1312C59.6336 23.7224 60.9002 25.366 62.6985 25.366C64.4969 25.366 65.7635 23.7224 65.7731 21.1312C65.7635 18.5497 64.4969 16.9061 62.6985 16.8964ZM62.6985 24.4088C61.4997 24.4088 60.6585 23.1133 60.6585 21.1312C60.6585 19.1588 61.4997 17.8633 62.6985 17.8536C63.9168 17.8633 64.7386 19.1588 64.7386 21.1312C64.7386 23.1133 63.9168 24.4088 62.6985 24.4088ZM80.657 20.8992V15.9586H79.5838V28.1022H80.657V21.808H82.6294V20.8992H80.657ZM71.8973 17.2638V18.163H76.4222C76.1805 21.049 74.4692 23.3888 71.3269 24.9503L71.9263 25.7914C75.8904 23.8384 77.5051 20.7058 77.5147 17.2638H71.8973ZM92.0215 28.1119H93.0947V15.9586H92.0215V28.1119ZM83.7646 17.2831V18.1533H88.4055C88.1686 21.0539 86.4911 23.3936 83.2038 24.9503L83.784 25.8301C87.8641 23.8674 89.4884 20.7735 89.498 17.2831H83.7646Z" fill="#767676"/>
<rect x="0.5" y="0.5" width="114" height="43" rx="21.5" stroke="#ACAEAF"/>
</svg>
