<svg width="14" height="14" viewBox="0 0 14 14" fill="none" xmlns="http://www.w3.org/2000/svg">
<path fill-rule="evenodd" clip-rule="evenodd" d="M9.21661 6.70832V3.20832C9.21661 1.98409 8.22417 0.991657 6.99994 0.991657C5.77571 0.991657 4.78328 1.98409 4.78328 3.20832V6.70832C4.78328 7.93256 5.77571 8.92499 6.99994 8.92499C8.22417 8.92499 9.21661 7.93256 9.21661 6.70832ZM6.99994 0.291656C5.38911 0.291656 4.08328 1.59749 4.08328 3.20832V6.70832C4.08328 8.31915 5.38911 9.62499 6.99994 9.62499C8.61077 9.62499 9.91661 8.31915 9.91661 6.70832V3.20832C9.91661 1.59749 8.61077 0.291656 6.99994 0.291656Z" fill="#868B94"/>
<path fill-rule="evenodd" clip-rule="evenodd" d="M2.33328 6.35832C2.52658 6.35832 2.68328 6.51502 2.68328 6.70832C2.68328 9.09235 4.61591 11.025 6.99994 11.025C9.38397 11.025 11.3166 9.09235 11.3166 6.70832C11.3166 6.51502 11.4733 6.35832 11.6666 6.35832C11.8599 6.35832 12.0166 6.51502 12.0166 6.70832C12.0166 9.47895 9.77057 11.725 6.99994 11.725C4.22931 11.725 1.98328 9.47895 1.98328 6.70832C1.98328 6.51502 2.13998 6.35832 2.33328 6.35832Z" fill="#868B94"/>
<path fill-rule="evenodd" clip-rule="evenodd" d="M6.70828 13.125V11.375H7.40828V13.125H6.70828Z" fill="#868B94"/>
<path fill-rule="evenodd" clip-rule="evenodd" d="M4.66661 13.3583C4.66661 13.165 4.82331 13.0083 5.01661 13.0083H8.98328C9.17658 13.0083 9.33328 13.165 9.33328 13.3583C9.33328 13.5516 9.17658 13.7083 8.98328 13.7083L5.01661 13.7083C4.82331 13.7083 4.66661 13.5516 4.66661 13.3583Z" fill="#868B94"/>
</svg>
