<svg width="16" height="16" viewBox="0 0 16 16" fill="none" xmlns="http://www.w3.org/2000/svg">
<path d="M15.2001 4.05325V11.9354C15.2023 12.057 15.1732 12.177 15.1158 12.2827C15.0585 12.3885 14.9751 12.4763 14.8742 12.5369C14.7733 12.5975 14.6587 12.6287 14.5424 12.6272C14.426 12.6258 14.3122 12.5917 14.2127 12.5286L11.0859 10.5688V5.41989L14.2127 3.46872C14.3116 3.40602 14.4247 3.37201 14.5403 3.37019C14.6559 3.36837 14.7699 3.39877 14.8706 3.45833C14.9712 3.51789 15.0547 3.60443 15.1127 3.70899C15.1706 3.81356 15.2008 3.93244 15.2001 4.05325Z" stroke="#212124" stroke-width="0.75" stroke-linecap="round" stroke-linejoin="round"/>
<rect x="0.799805" y="3.37012" width="10.2857" height="9.25714" rx="2" stroke="#212124" stroke-width="0.75"/>
</svg>
