<svg width="36" height="36" viewBox="0 0 36 36" fill="none" xmlns="http://www.w3.org/2000/svg">
<path fill-rule="evenodd" clip-rule="evenodd" d="M18 2C18.5198 2 18.9412 2.42138 18.9412 2.94118V6.27668C18.9412 6.79647 18.5198 7.21785 18 7.21785C17.4802 7.21785 17.0588 6.79647 17.0588 6.27668V2.94118C17.0588 2.42138 17.4802 2 18 2ZM5.63613 6.23979C6.00666 5.87524 6.60256 5.88008 6.96711 6.25061L9.39595 8.71927C9.7605 9.08979 9.75566 9.6857 9.38513 10.0502C9.0146 10.4148 8.4187 10.41 8.05415 10.0394L5.62531 7.57077C5.26076 7.20024 5.2656 6.60434 5.63613 6.23979ZM30.3185 6.23979C30.6891 6.60434 30.6939 7.20024 30.3293 7.57077L27.9005 10.0394C27.5359 10.41 26.94 10.4148 26.5695 10.0502C26.199 9.68569 26.1941 9.08979 26.5587 8.71927L28.9875 6.25061C29.3521 5.88008 29.948 5.87524 30.3185 6.23979ZM22.0782 11.8387C20.8231 10.7958 19.2137 10.2686 17.5793 10.3663C15.9449 10.464 14.4109 11.179 13.2908 12.3635C12.1707 13.5478 11.5489 15.1119 11.551 16.7357L11.551 16.7381C11.5489 18.3692 12.1427 19.9461 13.2228 21.1754C14.2214 22.2383 14.7863 23.6346 14.8055 25.0915L14.8057 25.1039H14.8056V27.3993H21.1263V25.1478C21.1108 23.7108 21.6459 22.3227 22.6217 21.2653C23.2712 20.5565 23.7591 19.7171 24.0526 18.8044C24.3481 17.8857 24.4475 16.9203 24.3327 15.9743L24.3326 15.973C24.1391 14.3606 23.3332 12.8814 22.0782 11.8387ZM17.467 8.48732C19.5774 8.36118 21.6573 9.04166 23.2812 10.3908C24.9052 11.7402 25.9505 13.6566 26.2015 15.7488C26.3503 16.9759 26.2196 18.2146 25.8446 19.3807C25.4676 20.5528 24.8411 21.6299 24.008 22.5386L24.0057 22.5411C23.3533 23.2477 22.9972 24.1741 23.0085 25.1314L23.0087 25.1425H23.0086V28.3405C23.0086 28.8603 22.5872 29.2817 22.0674 29.2817H13.8644C13.3446 29.2817 12.9232 28.8603 12.9232 28.3405V25.1104C12.9088 24.1234 12.524 23.1765 11.8428 22.4556C11.8355 22.4479 11.8283 22.44 11.8213 22.432C10.4319 20.8578 9.66622 18.8332 9.66862 16.7369C9.66862 16.7365 9.66862 16.7361 9.66862 16.7357L10.6098 16.7369L9.66862 16.7381C9.66862 16.7377 9.66862 16.7373 9.66862 16.7369C9.66621 14.6302 10.4732 12.6032 11.9231 11.0701C13.3732 9.5368 15.3565 8.61345 17.467 8.48732ZM2 17.906C2 17.3862 2.42138 16.9648 2.94118 16.9648H6.29621C6.81601 16.9648 7.23739 17.3862 7.23739 17.906C7.23739 18.4258 6.81601 18.8471 6.29621 18.8471H2.94118C2.42138 18.8471 2 18.4258 2 17.906ZM28.6719 17.906C28.6719 17.3862 29.0933 16.9648 29.6131 16.9648H33.0588C33.5786 16.9648 34 17.3862 34 17.906C34 18.4258 33.5786 18.8471 33.0588 18.8471H29.6131C29.0933 18.8471 28.6719 18.4258 28.6719 17.906ZM12.9136 30.6977C12.9136 30.1779 13.335 29.7565 13.8548 29.7565H22.0546C22.5743 29.7565 22.9957 30.1779 22.9957 30.6977C22.9957 31.2175 22.5743 31.6388 22.0546 31.6388H13.8548C13.335 31.6388 12.9136 31.2175 12.9136 30.6977ZM13.8495 33.0588C13.8495 32.539 14.2709 32.1176 14.7907 32.1176H21.1187C21.6384 32.1176 22.0598 32.539 22.0598 33.0588C22.0598 33.5786 21.6384 34 21.1187 34H14.7907C14.2709 34 13.8495 33.5786 13.8495 33.0588Z" fill="#41AC70"/>
</svg>
