<svg width="24" height="24" viewBox="0 0 24 24" fill="none" xmlns="http://www.w3.org/2000/svg">
<g clip-path="url(#clip0_1696:5042)">
<path d="M16.5499 7.91998V16.74C16.5499 17.5356 16.2338 18.2987 15.6712 18.8613C15.1086 19.4239 14.3456 19.74 13.5499 19.74H4.91992C4.12427 19.74 3.36119 19.4239 2.79858 18.8613C2.23597 18.2987 1.91992 17.5356 1.91992 16.74V7.91998C1.91992 7.12433 2.23597 6.36128 2.79858 5.79868C3.36119 5.23607 4.12427 4.91998 4.91992 4.91998H13.5499C14.3456 4.91998 15.1086 5.23607 15.6712 5.79868C16.2338 6.36128 16.5499 7.12433 16.5499 7.91998Z" fill="#FF6E3D"/>
<path d="M22.0301 6.91998V18.17C22.0306 18.3499 21.9825 18.5266 21.891 18.6814C21.7995 18.8363 21.6679 18.9636 21.5101 19.05C21.3627 19.1296 21.1976 19.1708 21.0301 19.17C20.8341 19.1684 20.6428 19.1093 20.4801 19L17.7101 17.16C17.573 17.0673 17.461 16.942 17.3842 16.7954C17.3074 16.6488 17.2682 16.4855 17.2701 16.32V8.75998C17.2698 8.59617 17.3098 8.43482 17.3865 8.2901C17.4633 8.14537 17.5744 8.02172 17.7101 7.92999L20.4801 6.08999C20.6277 5.9945 20.7978 5.93959 20.9734 5.93081C21.149 5.92204 21.3237 5.95968 21.4801 6.03997C21.6435 6.1223 21.7812 6.24788 21.8782 6.40304C21.9752 6.55821 22.0277 6.73702 22.0301 6.91998Z" fill="#FF6E3D"/>
</g>
<defs>
<clipPath id="clip0_1696:5042">
<rect width="20.01" height="14.75" fill="white" transform="translate(2 5)"/>
</clipPath>
</defs>
</svg>
