<svg width="30" height="30" viewBox="0 0 30 30" fill="none" xmlns="http://www.w3.org/2000/svg">
<circle cx="15" cy="15" r="15" fill="#E0F3E9"/>
<path fill-rule="evenodd" clip-rule="evenodd" d="M10.125 12.375C10.125 9.68261 12.3076 7.5 15 7.5C17.6924 7.5 19.875 9.68261 19.875 12.375V18H21C21.4142 18 21.75 18.3358 21.75 18.75C21.75 19.1642 21.4142 19.5 21 19.5H19.875H10.125H9C8.58579 19.5 8.25 19.1642 8.25 18.75C8.25 18.3358 8.58579 18 9 18H10.125V12.375ZM17.25 20.25C17.25 21.4926 16.2426 22.5 15 22.5C13.7574 22.5 12.75 21.4926 12.75 20.25H17.25Z" fill="#41AC70"/>
</svg>
