<svg width="22" height="22" viewBox="0 0 22 22" fill="none" xmlns="http://www.w3.org/2000/svg">
<path fill-rule="evenodd" clip-rule="evenodd" d="M14.9581 14.5V7.79167C14.9581 5.60555 13.1859 3.83334 10.9998 3.83334C8.81366 3.83334 7.04145 5.60555 7.04145 7.79168V14.5H14.9581ZM10.9998 1.83334C7.70909 1.83334 5.04145 4.50098 5.04145 7.79168V14.5V14.6667H4.24429H3.66666C3.1604 14.6667 2.75 15.0771 2.75 15.5833C2.75 16.0896 3.1604 16.5 3.66666 16.5H4.24429H17.7557H18.3333C18.8396 16.5 19.25 16.0896 19.25 15.5833C19.25 15.0771 18.8396 14.6667 18.3333 14.6667H17.7557H16.9581V14.5V7.79167C16.9581 4.50098 14.2905 1.83334 10.9998 1.83334ZM13.75 17.4167C13.75 18.9355 12.5188 20.1667 11 20.1667C9.48122 20.1667 8.25 18.9355 8.25 17.4167H13.75Z" fill="#85878A"/>
</svg>
