<svg width="90" height="90" viewBox="0 0 90 90" fill="none" xmlns="http://www.w3.org/2000/svg">
<circle cx="45" cy="45" r="45" fill="#41AC70"/>
<path fill-rule="evenodd" clip-rule="evenodd" d="M65.7386 25.5682V26.9886H64.3182V28.4091H62.8977V29.8295H61.4773V31.25H60.0568V32.6704H58.6364V34.0909H60.0568V42.6136H74.2614V34.0909H75.6818V32.6704H74.2614V31.25H72.8409V29.8295H71.4204V28.4091H70V26.9886H68.5795V25.5682H65.7386ZM70.0143 35.9671H64.3253V40.2339H70.0143V35.9671Z" fill="#FFDF8B"/>
<rect x="49" y="41" width="13" height="2" fill="#FFDF8B"/>
<path d="M20.0337 36.4601H15.437V31.0248H19.5093V28.7544H15.437V27.1892H21.362V32.5729H17.2721V34.8949H20.5231C21.6941 34.8949 22.5505 34.7057 23.1797 34.2585V27.1032H24.9799V31.1968H26.7278V27H28.5629V38.3005H26.7278V32.8309H24.9799V38.0081H23.1797V35.7205C22.568 36.2193 21.6067 36.4601 20.0337 36.4601ZM28.8601 42.6694H16.573V37.8017H18.4781V41.0526H28.8601V42.6694Z" fill="#FFDF8B"/>
<path d="M35.9205 27.1032V29.7692C35.9205 32.4697 37.4411 33.8457 39.4685 34.4649V36.1161C37.4761 35.6861 35.8156 34.6025 34.9942 33.2953C34.2426 34.6369 32.5647 35.8237 30.5023 36.3053V34.6369C32.5822 34.0005 34.0329 32.4009 34.0329 29.7692V27.1032H35.9205ZM43.8905 37.9221H41.9854V31.5237H38.5247V29.924H41.9854V27H43.8905V37.9221ZM44.1701 42.6694H32.0404V37.3717H33.9455V41.0526H44.1701V42.6694Z" fill="#FFDF8B"/>
<path d="M28.2483 48.7238H17.9363V51.0115H28.3357V52.5767H23.0574V54.2107H29.2795V55.8103H15V54.2107H21.1697V52.5767H16.0487V47.1414H28.2483V48.7238ZM15.7516 60.0416C15.7516 59.0784 16.206 58.4248 17.0275 57.9431C18.1286 57.3239 19.9113 57.0659 22.166 57.0659C24.4381 57.0659 26.1859 57.3239 27.287 57.9431C28.1085 58.4248 28.5629 59.0784 28.5629 60.0416C28.5629 61.0048 28.1085 61.6584 27.287 62.14C26.1859 62.7592 24.4381 63 22.166 63C19.9113 63 18.1286 62.7592 17.0275 62.14C16.206 61.6584 15.7516 61.0048 15.7516 60.0416ZM17.6567 60.0416C17.6567 60.3856 17.8489 60.678 18.1985 60.8844C18.9151 61.28 20.2434 61.4348 22.166 61.4348C24.0886 61.4348 25.4169 61.28 26.116 60.8844C26.4831 60.678 26.6753 60.3856 26.6753 60.0416C26.6753 59.6976 26.4831 59.4224 26.116 59.1988C25.4169 58.8032 24.0886 58.6484 22.166 58.6484C20.2434 58.6484 18.9151 58.8032 18.1985 59.1988C17.8489 59.4224 17.6567 59.6976 17.6567 60.0416Z" fill="#FFDF8B"/>
<path d="M35.134 61.5036H31.0966V47.1414H32.9842V59.8696H35.2563C36.1477 59.8696 37.0216 59.818 37.7207 59.5772V61.1252C37.0566 61.4004 36.1128 61.5036 35.134 61.5036ZM40.6046 62.3636H38.7519V54.1591H35.6409V52.5079H38.7519V47.0554H40.6046V62.3636ZM44.1002 62.5528H42.2476V46.9522H44.1002V62.5528Z" fill="#FFDF8B"/>
<path d="M59.4627 47.2274V55.9651H54.2368V60.248H60.2842V61.8648H46.2144V60.248H52.3492V55.9651H47.0358V47.2274H59.4627ZM48.9409 54.3139H57.5576V48.8786H48.9409V54.3139Z" fill="#FFDF8B"/>
<path d="M61.9789 50.9771C61.9789 49.5323 62.4508 48.4314 63.3072 47.7262C64.0238 47.1586 65.0026 46.849 66.1386 46.849C67.2922 46.849 68.2535 47.1586 68.9701 47.7262C69.8265 48.4314 70.2984 49.5323 70.2984 50.9771C70.2984 52.4047 69.8265 53.5055 68.9701 54.2107C68.2535 54.7955 67.2922 55.0879 66.1386 55.0879C65.0026 55.0879 64.0238 54.7955 63.3072 54.2107C62.4508 53.5055 61.9789 52.4047 61.9789 50.9771ZM63.8315 50.9771C63.8315 51.8371 64.0937 52.5079 64.5656 52.9379C64.9676 53.2819 65.492 53.4883 66.1386 53.4883C66.7853 53.4883 67.3271 53.2819 67.7117 52.9379C68.1836 52.5079 68.4457 51.8371 68.4457 50.9771C68.4457 50.1171 68.1836 49.4463 67.7117 49.0162C67.3271 48.655 66.7853 48.4658 66.1386 48.4658C65.492 48.4658 64.9676 48.655 64.5656 49.0162C64.0937 49.4463 63.8315 50.1171 63.8315 50.9771ZM75 55.6555H73.0949V46.9522H75V55.6555ZM63.1499 62.7076V56.6531H75V62.7076H63.1499ZM73.0949 58.2527H65.055V61.1252H73.0949V58.2527Z" fill="#FFDF8B"/>
</svg>
