<svg width="24" height="24" viewBox="0 0 24 24" fill="none" xmlns="http://www.w3.org/2000/svg">
<g clip-path="url(#clip0_1696:5037)">
<path d="M15.8402 5.79999V11.94C15.8402 12.9478 15.4399 13.9144 14.7272 14.627C14.0146 15.3397 13.048 15.74 12.0402 15.74C11.7984 15.7425 11.5571 15.719 11.3203 15.67C11.1408 15.6306 10.9637 15.5805 10.7902 15.52L10.5602 15.44C10.4465 15.3949 10.3361 15.3414 10.2302 15.28C10.136 15.2342 10.0457 15.1806 9.96021 15.12L9.75024 14.97L9.48022 14.75L9.24023 14.51C9.16152 14.4245 9.08802 14.3343 9.0202 14.24C8.51428 13.58 8.24016 12.7716 8.24023 11.94V5.79999C8.24023 4.79217 8.64057 3.82561 9.35321 3.11298C10.0658 2.40034 11.0324 2 12.0402 2C13.048 2 14.0146 2.40034 14.7272 3.11298C15.4399 3.82561 15.8402 4.79217 15.8402 5.79999V5.79999Z" fill="#FF6E3D"/>
<path d="M19.24 11.78C19.2822 13.5082 18.6648 15.1876 17.5131 16.4767C16.3614 17.7659 14.7619 18.568 13.0399 18.72V21.09C13.0399 21.3552 12.9346 21.6096 12.747 21.7971C12.5595 21.9847 12.3052 22.09 12.0399 22.09C11.7747 22.09 11.5204 21.9847 11.3328 21.7971C11.1453 21.6096 11.0399 21.3552 11.0399 21.09V18.72C9.31796 18.568 7.71855 17.7659 6.56686 16.4767C5.41516 15.1876 4.79764 13.5082 4.83993 11.78C4.83993 11.5148 4.9453 11.2604 5.13284 11.0729C5.32037 10.8854 5.57471 10.78 5.83993 10.78C6.10514 10.78 6.35954 10.8854 6.54708 11.0729C6.73462 11.2604 6.83993 11.5148 6.83993 11.78C6.83993 15.23 9.44994 16.78 12.0399 16.78C14.6299 16.78 17.24 15.23 17.24 11.78C17.24 11.5148 17.3453 11.2604 17.5329 11.0729C17.7204 10.8854 17.9747 10.78 18.24 10.78C18.5052 10.78 18.7595 10.8854 18.947 11.0729C19.1346 11.2604 19.24 11.5148 19.24 11.78Z" fill="#FF6E3D"/>
<path d="M5.72007 5.83998C5.54348 5.8895 5.35669 5.8895 5.18009 5.83998L2.74009 5.07997C2.48681 5.00041 2.27552 4.82348 2.15269 4.58812C2.02985 4.35276 2.0055 4.07825 2.08506 3.82497C2.16463 3.57169 2.34158 3.3604 2.57694 3.23757C2.8123 3.11473 3.08678 3.09041 3.34007 3.16997L5.77006 3.92998C6.02327 4.00833 6.23505 4.184 6.3588 4.41838C6.48256 4.65277 6.5082 4.9267 6.43009 5.17998C6.37742 5.34117 6.28458 5.48631 6.16038 5.60176C6.03618 5.71722 5.88467 5.7992 5.72007 5.83998Z" fill="#FF6E3D"/>
<path d="M5.82001 9.22L3.07001 9.42999C2.80479 9.44988 2.54249 9.3636 2.34088 9.19012C2.13928 9.01665 2.01489 8.77022 1.995 8.50501C1.97511 8.23979 2.0614 7.97751 2.23487 7.77591C2.40834 7.57431 2.65477 7.44988 2.91999 7.42999L5.66999 7.22998C5.80131 7.22013 5.93326 7.23625 6.05835 7.27741C6.18345 7.31856 6.29923 7.38395 6.39905 7.46985C6.49887 7.55574 6.58079 7.66046 6.64014 7.77802C6.69949 7.89557 6.73515 8.02368 6.745 8.155C6.75485 8.28632 6.73873 8.4183 6.69757 8.5434C6.65642 8.66849 6.59102 8.78424 6.50513 8.88406C6.41924 8.98389 6.31452 9.06583 6.19696 9.12518C6.07941 9.18454 5.95133 9.22013 5.82001 9.22998V9.22Z" fill="#FF6E3D"/>
<path d="M18.3098 5.83998C18.4896 5.89139 18.6801 5.89139 18.8598 5.83998L21.2998 5.07997C21.5531 5.00041 21.7644 4.82348 21.8872 4.58812C22.0101 4.35276 22.0344 4.07825 21.9548 3.82497C21.8752 3.57169 21.6983 3.3604 21.463 3.23757C21.2276 3.11473 20.9531 3.09041 20.6999 3.16997L18.2698 3.92998C18.0166 4.00833 17.8049 4.184 17.6811 4.41838C17.5574 4.65277 17.5317 4.9267 17.6098 5.17998C17.6616 5.33998 17.7529 5.48433 17.8752 5.59969C17.9976 5.71505 18.1471 5.7977 18.3098 5.83998V5.83998Z" fill="#FF6E3D"/>
<path d="M18.2198 9.22L20.9598 9.42999C21.225 9.44988 21.4873 9.3636 21.6889 9.19012C21.8905 9.01665 22.0149 8.77022 22.0348 8.50501C22.0547 8.23979 21.9684 7.97751 21.7949 7.77591C21.6215 7.57431 21.375 7.44988 21.1098 7.42999L18.3698 7.22998C18.2385 7.22013 18.1065 7.23625 17.9814 7.27741C17.8563 7.31856 17.7406 7.38395 17.6407 7.46985C17.5409 7.55574 17.459 7.66046 17.3996 7.77802C17.3402 7.89557 17.3046 8.02368 17.2948 8.155C17.285 8.28632 17.3011 8.4183 17.3422 8.5434C17.3834 8.66849 17.4488 8.78424 17.5347 8.88406C17.6206 8.98389 17.7253 9.06583 17.8428 9.12518C17.9604 9.18454 18.0885 9.22013 18.2198 9.22998V9.22Z" fill="#FF6E3D"/>
</g>
<defs>
<clipPath id="clip0_1696:5037">
<rect width="20.04" height="20.09" fill="white" transform="translate(2 2)"/>
</clipPath>
</defs>
</svg>
