<svg width="18" height="20" viewBox="0 0 18 20" fill="none" xmlns="http://www.w3.org/2000/svg">
<path fill-rule="evenodd" clip-rule="evenodd" d="M13.5 14V6.5C13.5 4.01472 11.4853 2 9 2C6.51472 2 4.5 4.01472 4.5 6.5V14H13.5ZM2.5 6.5V14H1C0.447715 14 0 14.4477 0 15C0 15.5523 0.447716 16 1 16H2.5H4.5H13.5H15.5H17C17.5523 16 18 15.5523 18 15C18 14.4477 17.5523 14 17 14H15.5V6.5C15.5 2.91015 12.5899 0 9 0C5.41015 0 2.5 2.91015 2.5 6.5ZM12 17C12 18.6569 10.6569 20 9 20C7.34315 20 6 18.6569 6 17H12Z" fill="#ACAEAF"/>
</svg>
