<svg width="30" height="30" viewBox="0 0 30 30" fill="none" xmlns="http://www.w3.org/2000/svg">
<circle cx="15" cy="15" r="15" fill="#F0F0F0"/>
<path fill-rule="evenodd" clip-rule="evenodd" d="M17.875 17.5V12.375C17.875 10.7872 16.5878 9.5 15 9.5C13.4122 9.5 12.125 10.7872 12.125 12.375V17.5H17.875ZM15 7.5C12.3076 7.5 10.125 9.68261 10.125 12.375V17.5V18H9C8.58579 18 8.25 18.3358 8.25 18.75C8.25 19.1642 8.58579 19.5 9 19.5H10.125H12.125H17.875H19.875H21C21.4142 19.5 21.75 19.1642 21.75 18.75C21.75 18.3358 21.4142 18 21 18H19.875V17.5V12.375C19.875 9.68261 17.6924 7.5 15 7.5ZM17.25 20.25C17.25 21.4926 16.2426 22.5 15 22.5C13.7574 22.5 12.75 21.4926 12.75 20.25H17.25Z" fill="#BCBDBE"/>
</svg>
