<svg width="24" height="24" viewBox="0 0 24 24" fill="none" xmlns="http://www.w3.org/2000/svg">
<path fill-rule="evenodd" clip-rule="evenodd" d="M12.9072 2.90909C12.9072 2.40701 12.5002 2 11.9981 2C11.4961 2 11.089 2.40701 11.089 2.90909V3.95513C9.71083 4.15091 8.42357 4.78822 7.42776 5.78403C6.21561 6.99619 5.53458 8.64025 5.53458 10.3545V17.2727H4.38909C3.88702 17.2727 3.48 17.6797 3.48 18.1818C3.48 18.6839 3.88702 19.0909 4.38909 19.0909H6.31473C6.35685 19.0969 6.3999 19.1 6.44367 19.1H8.29913C8.46378 19.7699 8.80882 20.3884 9.30472 20.8843C10.0191 21.5987 10.9879 22 11.9982 22C13.0084 22 13.9772 21.5987 14.6916 20.8843C15.1875 20.3884 15.5325 19.7699 15.6972 19.1H17.5528C17.5965 19.1 17.6396 19.0969 17.6817 19.0909H19.6073C20.1094 19.0909 20.5164 18.6839 20.5164 18.1818C20.5164 17.6797 20.1094 17.2727 19.6073 17.2727H18.4619V10.3545C18.4619 8.64025 17.7808 6.99619 16.5687 5.78403C15.5728 4.78818 14.2855 4.15087 12.9072 3.95511V2.90909ZM11.995 5.70908C11.996 5.70909 11.9971 5.70909 11.9981 5.70909C11.9991 5.70909 12.0001 5.70909 12.0011 5.70908C13.2321 5.70985 14.4125 6.19918 15.283 7.06968C16.1542 7.94088 16.6437 9.12248 16.6437 10.3545V17.2818H14.9042L14.8982 17.2818H9.09815L9.09211 17.2818H7.35276V10.3545C7.35276 9.12248 7.84221 7.94088 8.71341 7.06968C9.58384 6.19924 10.7641 5.70993 11.995 5.70908ZM10.5904 19.5987C10.4427 19.451 10.3205 19.2824 10.2269 19.1H13.7694C13.6758 19.2824 13.5537 19.451 13.4059 19.5987C13.0326 19.9721 12.5262 20.1818 11.9982 20.1818C11.4701 20.1818 10.9637 19.9721 10.5904 19.5987Z" fill="#767676"/>
</svg>
