<svg width="10" height="10" viewBox="0 0 10 10" fill="none" xmlns="http://www.w3.org/2000/svg">
<path d="M9.72498 0.282539C9.43248 -0.00996077 8.95998 -0.00996077 8.66748 0.282539L4.99998 3.94254L1.33248 0.275039C1.03998 -0.0174609 0.567478 -0.0174609 0.274978 0.275039C-0.017522 0.567539 -0.017522 1.04004 0.274978 1.33254L3.94248 5.00004L0.274978 8.66754C-0.017522 8.96004 -0.017522 9.43254 0.274978 9.72504C0.567478 10.0175 1.03998 10.0175 1.33248 9.72504L4.99998 6.05754L8.66748 9.72504C8.95998 10.0175 9.43248 10.0175 9.72498 9.72504C10.0175 9.43254 10.0175 8.96004 9.72498 8.66754L6.05748 5.00004L9.72498 1.33254C10.01 1.04754 10.01 0.567539 9.72498 0.282539Z" fill="#19191A"/>
</svg>
