<svg width="24" height="24" viewBox="0 0 24 24" fill="none" xmlns="http://www.w3.org/2000/svg">
<circle cx="12" cy="10" r="9" fill="#FFEAB4"/>
<path fill-rule="evenodd" clip-rule="evenodd" d="M11.9997 1.33301C12.3462 1.33301 12.6271 1.61393 12.6271 1.96046V4.18412C12.6271 4.53066 12.3462 4.81158 11.9997 4.81158C11.6531 4.81158 11.3722 4.53066 11.3722 4.18412V1.96046C11.3722 1.61393 11.6531 1.33301 11.9997 1.33301ZM3.75709 4.15953C4.00411 3.9165 4.40138 3.91973 4.64441 4.16675L6.26364 5.81252C6.50668 6.05954 6.50345 6.4568 6.25643 6.69984C6.00941 6.94287 5.61214 6.93964 5.36911 6.69263L3.74988 5.04685C3.50685 4.79983 3.51008 4.40257 3.75709 4.15953ZM20.212 4.15953C20.459 4.40257 20.4623 4.79983 20.2192 5.04685L18.6 6.69263C18.357 6.93964 17.9597 6.94287 17.7127 6.69984C17.4657 6.4568 17.4624 6.05954 17.7055 5.81252L19.3247 4.16675C19.5677 3.91973 19.965 3.9165 20.212 4.15953ZM14.7185 7.89212C13.8817 7.19687 12.8088 6.84543 11.7192 6.91055C10.6296 6.97567 9.60696 7.45233 8.86018 8.24198C8.11349 9.03152 7.69893 10.0743 7.70032 11.1568L7.70032 11.1584C7.69892 12.2458 8.09478 13.297 8.81489 14.1166C9.48057 14.8252 9.85723 15.7561 9.87001 16.7273L9.87012 16.7356H9.87007V18.2659H14.0838V16.7649C14.0735 15.8069 14.4303 14.8815 15.0808 14.1766C15.5138 13.704 15.8391 13.1444 16.0348 12.536C16.2317 11.9235 16.298 11.2799 16.2215 10.6492L16.2214 10.6484C16.0924 9.57341 15.5552 8.58728 14.7185 7.89212ZM11.6443 5.65788C13.0513 5.5738 14.4379 6.02744 15.5205 6.9269C16.6031 7.82644 17.3 9.10408 17.4673 10.4988C17.5665 11.3169 17.4794 12.1427 17.2294 12.9202C16.9781 13.7015 16.5604 14.4196 16.005 15.0254L16.0035 15.0271C15.5686 15.4981 15.3312 16.1158 15.3387 16.7539L15.3388 16.7613H15.3387V18.8933C15.3387 19.2399 15.0578 19.5208 14.7113 19.5208H9.24262C8.89609 19.5208 8.61517 19.2399 8.61517 18.8933V16.7399C8.60552 16.082 8.349 15.4507 7.89491 14.9701C7.89002 14.9649 7.88523 14.9597 7.88053 14.9544C6.95428 13.9049 6.44382 12.5551 6.44542 11.1576C6.44542 11.1573 6.44542 11.1571 6.44542 11.1568L7.07287 11.1576L6.44542 11.1584C6.44542 11.1581 6.44542 11.1579 6.44542 11.1576C6.44382 9.75316 6.98183 8.40179 7.94843 7.37971C8.91513 6.35754 10.2373 5.74197 11.6443 5.65788ZM1.33301 11.937C1.33301 11.5905 1.61393 11.3095 1.96046 11.3095H4.19715C4.54368 11.3095 4.8246 11.5905 4.8246 11.937C4.8246 12.2835 4.54368 12.5644 4.19715 12.5644H1.96046C1.61393 12.5644 1.33301 12.2835 1.33301 11.937ZM19.1143 11.937C19.1143 11.5905 19.3952 11.3095 19.7418 11.3095H22.0389C22.3854 11.3095 22.6663 11.5905 22.6663 11.937C22.6663 12.2835 22.3854 12.5644 22.0389 12.5644H19.7418C19.3952 12.5644 19.1143 12.2835 19.1143 11.937ZM8.60876 20.4648C8.60876 20.1182 8.88967 19.8373 9.23621 19.8373H14.7027C15.0492 19.8373 15.3302 20.1182 15.3302 20.4648C15.3302 20.8113 15.0492 21.0922 14.7027 21.0922H9.23621C8.88967 21.0922 8.60876 20.8113 8.60876 20.4648ZM9.2327 22.0389C9.2327 21.6924 9.51362 21.4114 9.86016 21.4114H14.0788C14.4253 21.4114 14.7062 21.6924 14.7062 22.0389C14.7062 22.3854 14.4253 22.6663 14.0788 22.6663H9.86016C9.51362 22.6663 9.2327 22.3854 9.2327 22.0389Z" fill="#19191A"/>
</svg>
