<svg width="24" height="24" viewBox="0 0 24 24" fill="none" xmlns="http://www.w3.org/2000/svg">
<path fill-rule="evenodd" clip-rule="evenodd" d="M12.0002 1.33301C12.3467 1.33301 12.6276 1.61393 12.6276 1.96046V4.18412C12.6276 4.53066 12.3467 4.81158 12.0002 4.81158C11.6536 4.81158 11.3727 4.53066 11.3727 4.18412V1.96046C11.3727 1.61393 11.6536 1.33301 12.0002 1.33301ZM3.75758 4.15953C4.0046 3.9165 4.40187 3.91973 4.6449 4.16675L6.26413 5.81252C6.50717 6.05954 6.50394 6.4568 6.25692 6.69984C6.0099 6.94287 5.61263 6.93964 5.3696 6.69263L3.75037 5.04685C3.50733 4.79983 3.51056 4.40257 3.75758 4.15953ZM20.2125 4.15953C20.4595 4.40257 20.4628 4.79983 20.2197 5.04685L18.6005 6.69263C18.3575 6.93964 17.9602 6.94287 17.7132 6.69984C17.4662 6.4568 17.4629 6.05954 17.706 5.81252L19.3252 4.16675C19.5682 3.91973 19.9655 3.9165 20.2125 4.15953ZM14.719 7.89212C13.8822 7.19687 12.8093 6.84543 11.7197 6.91055C10.6301 6.97567 9.60745 7.45233 8.86067 8.24198C8.11398 9.03152 7.69941 10.0743 7.70081 11.1568L7.70081 11.1584C7.69941 12.2458 8.09527 13.297 8.81538 14.1166C9.48106 14.8252 9.85772 15.7561 9.8705 16.7273L9.87061 16.7356H9.87056V18.2659H14.0843V16.7649C14.074 15.8069 14.4308 14.8815 15.0813 14.1766C15.5143 13.704 15.8396 13.1444 16.0352 12.536C16.2322 11.9235 16.2985 11.2799 16.222 10.6492L16.2219 10.6484C16.0929 9.57341 15.5557 8.58728 14.719 7.89212ZM11.6448 5.65788C13.0518 5.5738 14.4384 6.02744 15.5209 6.9269C16.6036 7.82644 17.3005 9.10408 17.4678 10.4988C17.567 11.3169 17.4799 12.1427 17.2299 12.9202C16.9786 13.7015 16.5609 14.4196 16.0055 15.0254L16.004 15.0271C15.569 15.4981 15.3316 16.1158 15.3392 16.7539L15.3393 16.7613H15.3392V18.8933C15.3392 19.2399 15.0583 19.5208 14.7118 19.5208H9.24311C8.89657 19.5208 8.61566 19.2399 8.61566 18.8933V16.7399C8.60601 16.082 8.34948 15.4507 7.89539 14.9701C7.89051 14.9649 7.88572 14.9597 7.88102 14.9544C6.95477 13.9049 6.44431 12.5551 6.44591 11.1576C6.44591 11.1573 6.44591 11.1571 6.44591 11.1568L7.07336 11.1576L6.44591 11.1584C6.44591 11.1581 6.44591 11.1579 6.44591 11.1576C6.4443 9.75316 6.98231 8.40179 7.94892 7.37971C8.91562 6.35754 10.2378 5.74197 11.6448 5.65788ZM1.3335 11.937C1.3335 11.5905 1.61442 11.3095 1.96095 11.3095H4.19764C4.54417 11.3095 4.82509 11.5905 4.82509 11.937C4.82509 12.2835 4.54417 12.5644 4.19764 12.5644H1.96095C1.61442 12.5644 1.3335 12.2835 1.3335 11.937ZM19.1148 11.937C19.1148 11.5905 19.3957 11.3095 19.7422 11.3095H22.0394C22.3859 11.3095 22.6668 11.5905 22.6668 11.937C22.6668 12.2835 22.3859 12.5644 22.0394 12.5644H19.7422C19.3957 12.5644 19.1148 12.2835 19.1148 11.937ZM8.60924 20.4648C8.60924 20.1182 8.89016 19.8373 9.2367 19.8373H14.7032C15.0497 19.8373 15.3306 20.1182 15.3306 20.4648C15.3306 20.8113 15.0497 21.0922 14.7032 21.0922H9.2367C8.89016 21.0922 8.60924 20.8113 8.60924 20.4648ZM9.23319 22.0389C9.23319 21.6924 9.51411 21.4114 9.86064 21.4114H14.0793C14.4258 21.4114 14.7067 21.6924 14.7067 22.0389C14.7067 22.3854 14.4258 22.6663 14.0793 22.6663H9.86064C9.51411 22.6663 9.23319 22.3854 9.23319 22.0389Z" fill="black"/>
</svg>
