<svg width="18" height="18" viewBox="0 0 18 18" fill="none" xmlns="http://www.w3.org/2000/svg">
<path fill-rule="evenodd" clip-rule="evenodd" d="M9.00015 2.54996C5.43791 2.54996 2.55015 5.43773 2.55015 8.99996C2.55015 12.5622 5.43791 15.45 9.00015 15.45C12.5624 15.45 15.4501 12.5622 15.4501 8.99996C15.4501 5.43773 12.5624 2.54996 9.00015 2.54996ZM9.00015 1.64996C4.94085 1.64996 1.65015 4.94067 1.65015 8.99996C1.65015 13.0593 4.94085 16.35 9.00015 16.35C13.0594 16.35 16.3501 13.0593 16.3501 8.99996C16.3501 4.94067 13.0594 1.64996 9.00015 1.64996Z" fill="#868B94"/>
<path d="M10.3389 11.7201C10.1989 11.6501 10.0389 11.7001 9.93896 11.8401C9.92104 11.8652 9.89638 11.9044 9.86613 11.9525C9.72757 12.1729 9.47169 12.5798 9.20908 12.6701C9.01912 12.7301 8.82915 12.5901 8.97912 11.7901C9.1291 10.9902 9.709 7.89044 9.72899 7.77045C9.74899 7.65046 9.699 7.59047 9.669 7.56047C9.62901 7.52047 9.55902 7.48048 9.43904 7.51047C9.41905 7.52047 8.98912 7.65046 8.5592 7.78045L7.73934 8.04043C7.55937 8.09043 7.46939 8.24042 7.50938 8.4004C7.52938 8.4804 7.57937 8.56039 7.64936 8.60039C7.71934 8.65038 7.79933 8.66038 7.87932 8.64038C7.91931 8.63039 7.9993 8.61039 8.08928 8.58039C8.11928 8.57039 8.14927 8.56289 8.17927 8.55539C8.20926 8.54789 8.23925 8.54039 8.26925 8.53039C8.14927 9.16034 7.66935 11.5502 7.66935 11.5502C7.56937 12.1201 7.53937 12.5101 7.59936 12.7601C7.66935 13.05 7.83932 13.26 8.10928 13.39C8.25925 13.45 8.41922 13.49 8.58919 13.5C8.71917 13.5 8.84915 13.49 8.99912 13.46C9.55902 13.35 9.93896 12.94 10.1189 12.7001C10.2889 12.4801 10.3989 12.2601 10.4689 12.1101C10.5389 11.9601 10.4889 11.8001 10.3389 11.7201Z" fill="#868B94"/>
<path d="M9.03735 6.75C9.55512 6.75 9.97485 6.33027 9.97485 5.8125C9.97485 5.29473 9.55512 4.875 9.03735 4.875C8.51959 4.875 8.09985 5.29473 8.09985 5.8125C8.09985 6.33027 8.51959 6.75 9.03735 6.75Z" fill="#868B94"/>
</svg>
