<svg width="12" height="12" viewBox="0 0 12 12" fill="none" xmlns="http://www.w3.org/2000/svg">
<g clip-path="url(#clip0_328_7059)">
<path d="M5.99997 12.0001C5.24997 12.0001 4.72497 10.9051 4.07997 10.6351C3.43497 10.3651 2.26497 10.7475 1.75497 10.245C1.24497 9.74254 1.64247 8.59506 1.36497 7.92006C1.08747 7.24506 -3.05176e-05 6.75006 -3.05176e-05 6.00006C-3.05176e-05 5.25006 1.09497 4.73256 1.36497 4.08006C1.63497 3.42756 1.24497 2.26506 1.75497 1.75506C2.26497 1.24506 3.40497 1.64254 4.07997 1.36504C4.75497 1.08754 5.24997 6.10352e-05 5.99997 6.10352e-05C6.74997 6.10352e-05 7.26747 1.09504 7.91997 1.36504C8.57247 1.63504 9.73496 1.25256 10.2375 1.75506C10.74 2.25756 10.35 3.40506 10.635 4.08006C10.92 4.75506 12 5.25006 12 6.00006C12 6.75006 10.905 7.26756 10.635 7.92006C10.365 8.57256 10.7475 9.73504 10.2375 10.245C9.72746 10.755 8.58747 10.3576 7.91997 10.6351C7.25247 10.9126 6.74247 12.0001 5.99997 12.0001Z" fill="black"/>
<circle cx="5.99997" cy="6.00006" r="6" fill="#FF9E66"/>
<path d="M6.00003 3L6.70824 5.2918H9.00003L7.14593 6.7082L7.85413 9L6.00003 7.58359L4.14593 9L4.85413 6.7082L3.00003 5.2918H5.29183L6.00003 3Z" fill="#FFE2D2" stroke="#FFE2D2" stroke-width="0.554192" stroke-linejoin="round"/>
</g>
<defs>
<clipPath id="clip0_328_7059">
<rect width="12" height="12" fill="white"/>
</clipPath>
</defs>
</svg>
