<svg width="13" height="13" viewBox="0 0 13 13" fill="none" xmlns="http://www.w3.org/2000/svg">
<g clip-path="url(#clip0_3360_12696)">
<path d="M6.06055 12.2286C5.31055 12.2286 4.78555 11.1336 4.14055 10.8636C3.49555 10.5936 2.32554 10.9761 1.81554 10.4736C1.30554 9.97109 1.70305 8.82361 1.42555 8.14861C1.14805 7.47361 0.0605469 6.97861 0.0605469 6.22861C0.0605469 5.47861 1.15555 4.96111 1.42555 4.30861C1.69555 3.65611 1.30554 2.4936 1.81554 1.9836C2.32554 1.4736 3.46555 1.87109 4.14055 1.59359C4.81555 1.31609 5.31055 0.228607 6.06055 0.228607C6.81055 0.228607 7.32805 1.32359 7.98055 1.59359C8.63305 1.86359 9.79554 1.4811 10.298 1.9836C10.8005 2.4861 10.4105 3.63361 10.6955 4.30861C10.9805 4.98361 12.0605 5.47861 12.0605 6.22861C12.0605 6.97861 10.9655 7.49611 10.6955 8.14861C10.4255 8.80111 10.808 9.96359 10.298 10.4736C9.78804 10.9836 8.64805 10.5861 7.98055 10.8636C7.31305 11.1411 6.80305 12.2286 6.06055 12.2286Z" fill="black"/>
<circle cx="6.06055" cy="6.22861" r="6" fill="#41AC70"/>
<path d="M6.06055 3.22861L6.76875 5.5204H9.06055L7.20645 6.93681L7.91465 9.22861L6.06055 7.8122L4.20645 9.22861L4.91465 6.93681L3.06055 5.5204H5.35234L6.06055 3.22861Z" fill="#FFDF8B" stroke="#FFDF8B" stroke-width="0.867432" stroke-linejoin="round"/>
</g>
<defs>
<clipPath id="clip0_3360_12696">
<rect width="12" height="12" fill="white" transform="translate(0.0605469 0.228607)"/>
</clipPath>
</defs>
</svg>
