<svg width="12" height="12" viewBox="0 0 12 12" fill="none" xmlns="http://www.w3.org/2000/svg">
<path fill-rule="evenodd" clip-rule="evenodd" d="M5.99996 0H5.00044V1H5.99996H6.00044H6.99996V0H6.00044H5.99996ZM4.99901 1.00002H3.99901V1.99999H3.00046V2.99998H3.99901H4.00046H4.99901V2.00002V1.99999V1.00002ZM4.99901 3.00001H4.00046H3.99901H3.00094H3.00046H2.00094V4.00001H3.00046H3.00094H3.99901H4.00046H4.99901V3.00001ZM4.00046 4.00003H4.99901V4.99999V5.00003V5.99998V5.99999V6.99998H4.00046H3.99901H3.00094H3.00046H2.00094V5.99999V5.99998V5.00003V4.99999V4.00003H3.00046H3.00094H3.99901H4.00046ZM4.00046 7.00001H3.00094H3.00046H2.00094V7.99997V8.00001V8.99997H3.00046H3.00094H4.00046V8.00001V7.99997V7.00001ZM4.00046 8.99999H3.00094H3.00046H2.00094V9.99999H3.00046H3.00094H4.00046V8.99999ZM5.00044 4.00003V4.99999V5.00003V5.99998V5.99999V6.99998H5.99996H6.00044H6.99947H6.99996H7.99947V5.99999V5.99998V5.00003V4.99999V4.00003H6.99996H6.99947H6.00044H5.99996H5.00044ZM8.0009 8.99999H9.00041H9.0009H9.99897H10.0004H10.999V9.99999H10.0004H9.99897H9.0009H9.00041H8.0009V8.99999ZM3.99901 10H3.00094H3.00046H2.00094V11V11V12H3.00046H3.00094H3.99901H4.00046H4.99901V11V11V10H4.00046H3.99901ZM5.99996 10H5.00044V11V11V12H5.99996H6.00044H6.99947H6.99996H7.99947V11V11V10H6.99996H6.99947H6.00044H5.99996ZM8.0009 10H9.00041H9.0009H9.99897H10.0004H10.999V11V11V12H10.0004H9.99897H9.0009H9.00041H8.0009V11V11V10ZM0.999514 4.00003H1.99951V4.99999V5.00003V5.99998V5.99999V6.99998H0.999514V5.99999H0V4.99999H0.999514V4.00003ZM1.99951 7.00001H0.999514V7.99997V8.00001V8.99997H1.99951V8.00001V7.99997V7.00001ZM1.99951 8.99999H0.999514V9.99999H1.99951V8.99999ZM0.999514 10H1.99951V11V11V12H0.999514V11V11V10ZM6.99947 1.00002H6.00044H5.99996H5.00044V1.99999V2.00002V2.99998H5.99996H6.00044H6.99947H6.99996H7.99947V2.00002V1.99999V1.00002H6.99996H6.99947ZM6.99947 3.00001H6.00044H5.99996H5.00044V4.00001H5.99996H6.00044H6.99947H6.99996H7.99947V3.00001H6.99996H6.99947ZM9.0009 1.99999H8.0009V2.99998H9.0009V1.99999ZM8.0009 3.00001H9.00041H9.0009H10.0004V4.00001H9.0009H9.00041H8.0009V3.00001ZM9.00041 4.00003H8.0009V4.99999V5.00003V5.99998V5.99999V6.99998H9.00041H9.0009H9.99897H10.0004H10.999V5.99999V5.99998V5.00003V4.99999V4.00003H10.0004H9.99897H9.0009H9.00041ZM9.0009 7.00001H9.99897H10.0004H10.999V7.99997V8.00001V8.99997H10.0004H9.99897H9.0009H9.00041H8.0009V8.00001V7.99997V7.00001H9.00041H9.0009ZM12.0004 4.99999H11.0004V5.99999H12.0004V4.99999Z" fill="#41AC70"/>
<path fill-rule="evenodd" clip-rule="evenodd" d="M5.99951 7H4.99951V7.00001H4.00002V8.00001H5.00002V8H5.99951V7ZM4.99951 8.00002H4V8.99999V9.00002V9.99998H4.99951H5H5.99951V9.00002V8.99999V8.00002H5H4.99951ZM6.00094 7H7.00046H7.00094H8.00046V8H7.00094H7.00046H6.00094V7ZM7.00046 8.00002H6.00094V8.99999V9.00002V9.99998H7.00046H7.00094H8.00046V9.00002V8.99999V8.00002H7.00094H7.00046Z" fill="#FFDF8B"/>
</svg>
