<svg width="13" height="12" viewBox="0 0 13 12" fill="none" xmlns="http://www.w3.org/2000/svg">
<g clip-path="url(#clip0_614_13214)">
<path d="M6.5 12.0001C5.75 12.0001 5.225 10.9051 4.58 10.6351C3.935 10.3651 2.765 10.7475 2.255 10.245C1.745 9.74254 2.14251 8.59506 1.86501 7.92006C1.58751 7.24506 0.5 6.75006 0.5 6.00006C0.5 5.25006 1.59501 4.73256 1.86501 4.08006C2.13501 3.42756 1.745 2.26506 2.255 1.75506C2.765 1.24506 3.905 1.64254 4.58 1.36504C5.255 1.08754 5.75 6.10352e-05 6.5 6.10352e-05C7.25 6.10352e-05 7.7675 1.09504 8.42 1.36504C9.0725 1.63504 10.235 1.25256 10.7375 1.75506C11.24 2.25756 10.85 3.40506 11.135 4.08006C11.42 4.75506 12.5 5.25006 12.5 6.00006C12.5 6.75006 11.405 7.26756 11.135 7.92006C10.865 8.57256 11.2475 9.73504 10.7375 10.245C10.2275 10.755 9.0875 10.3576 8.42 10.6351C7.7525 10.9126 7.2425 12.0001 6.5 12.0001Z" fill="black"/>
<circle cx="6.5" cy="6.00006" r="6" fill="#FF7E36"/>
<path d="M6.5 3L7.2082 5.2918H9.5L7.6459 6.7082L8.3541 9L6.5 7.58359L4.6459 9L5.3541 6.7082L3.5 5.2918H5.7918L6.5 3Z" fill="white" stroke="white" stroke-width="0.554192" stroke-linejoin="round"/>
</g>
<defs>
<clipPath id="clip0_614_13214">
<rect width="12" height="12" fill="white" transform="translate(0.5)"/>
</clipPath>
</defs>
</svg>
