<svg width="28" height="28" viewBox="0 0 28 28" fill="none" xmlns="http://www.w3.org/2000/svg">
<path fill-rule="evenodd" clip-rule="evenodd" d="M14 0H11.6667V2.33333H9.33331V4.66667H7V7H4.66667V9.33331H2.33333V11.6667H0V14H2.33333V16.3333V18.6667V21V23.3333V25.6667V28H4.66667H7H9.33331H11.6667H14H16.3333H18.6667H21H23.3333H25.6667V25.6667V23.3333V21V18.6667V16.3333V14H28V11.6667H25.6667V9.33331H23.3333V7H21V4.66667H18.6667V2.33333H16.3333V0H14ZM18.6667 21V18.6667V16.3333H16.3333H14H11.6667H9.33331V18.6667V21V23.3333H11.6667H14H16.3333H18.6667V21Z" fill="#41AC70"/>
<path fill-rule="evenodd" clip-rule="evenodd" d="M11.6664 16.333H9.33301V18.6663V20.9996V23.333H11.6664H13.9997H16.333H18.6664V20.9996V18.6663V16.333H16.333H13.9997H11.6664Z" fill="#FFDF8B"/>
</svg>
