<svg width="24" height="24" viewBox="0 0 24 24" fill="none" xmlns="http://www.w3.org/2000/svg">
<path d="M12 2.83301C11.337 2.83301 10.7011 3.0964 10.2322 3.56524C9.76339 4.03408 9.5 4.66997 9.5 5.33301V11.9997C9.5 12.6627 9.76339 13.2986 10.2322 13.7674C10.7011 14.2363 11.337 14.4997 12 14.4997C12.663 14.4997 13.2989 14.2363 13.7678 13.7674C14.2366 13.2986 14.5 12.6627 14.5 11.9997V5.33301C14.5 4.66997 14.2366 4.03408 13.7678 3.56524C13.2989 3.0964 12.663 2.83301 12 2.83301V2.83301Z" stroke="white" stroke-width="1.7" stroke-linecap="round" stroke-linejoin="round"/>
<path d="M17.8337 10.333V11.9997C17.8337 13.5468 17.2191 15.0305 16.1251 16.1245C15.0312 17.2184 13.5474 17.833 12.0003 17.833C10.4532 17.833 8.9695 17.2184 7.87554 16.1245C6.78157 15.0305 6.16699 13.5468 6.16699 11.9997V10.333" stroke="white" stroke-width="1.7" stroke-linecap="round" stroke-linejoin="round"/>
<path d="M12.001 17.833V21.1663" stroke="white" stroke-width="1.7" stroke-linecap="round" stroke-linejoin="round"/>
<path d="M8.66699 21.166H15.3337" stroke="white" stroke-width="1.7" stroke-linecap="round" stroke-linejoin="round"/>
</svg>
