<svg width="60" height="60" viewBox="0 0 60 60" fill="none" xmlns="http://www.w3.org/2000/svg">
<circle cx="30" cy="30" r="30" fill="#FAFAFA"/>
<path d="M20.9087 20.9092L39.0905 39.091" stroke="#3C3D3E" stroke-width="1.75" stroke-linecap="round" stroke-linejoin="round"/>
<path d="M32.7777 27.5375V22.5931C32.7784 21.9042 32.5231 21.2397 32.0614 20.7284C31.5997 20.2172 30.9645 19.8958 30.2791 19.8266C29.5937 19.7573 28.9071 19.9452 28.3525 20.3538C27.7978 20.7624 27.4148 21.3624 27.2777 22.0375M27.2222 27.2227V30.0005C27.2227 30.5495 27.3858 31.0861 27.6911 31.5425C27.9963 31.9988 28.43 32.3545 28.9373 32.5645C29.4445 32.7745 30.0027 32.8296 30.5412 32.7226C31.0797 32.6156 31.5744 32.3514 31.9629 31.9634L27.2222 27.2227Z" stroke="#3C3D3E" stroke-width="1.75" stroke-linecap="round" stroke-linejoin="round"/>
<path d="M34.6294 34.5846C33.7254 35.5072 32.5665 36.1387 31.3012 36.3981C30.0359 36.6575 28.722 36.5329 27.528 36.0404C26.3339 35.5479 25.3143 34.7098 24.5999 33.6338C23.8854 32.5578 23.5088 31.2928 23.5182 30.0013V28.1494M36.4812 28.1494V30.0013C36.4809 30.3832 36.4468 30.7643 36.3793 31.1402" stroke="#3C3D3E" stroke-width="1.75" stroke-linecap="round" stroke-linejoin="round"/>
<path d="M30 36.4824V40.1861" stroke="#3C3D3E" stroke-width="1.75" stroke-linecap="round" stroke-linejoin="round"/>
<path d="M26.2959 40.1855H33.7033" stroke="#3C3D3E" stroke-width="1.75" stroke-linecap="round" stroke-linejoin="round"/>
</svg>
