<svg width="24" height="24" viewBox="0 0 24 24" fill="none" xmlns="http://www.w3.org/2000/svg">
<path d="M14.501 9.78357V5.33357C14.5016 4.7136 14.2718 4.11551 13.8563 3.65541C13.4407 3.19531 12.8691 2.90602 12.2522 2.84372C11.6354 2.78141 11.0174 2.95052 10.5182 3.31823C10.0191 3.68593 9.67435 4.226 9.55098 4.83357M9.50098 9.50024V12.0002C9.50141 12.4944 9.64827 12.9773 9.923 13.388C10.1977 13.7987 10.588 14.1188 11.0446 14.3079C11.5011 14.4969 12.0034 14.5464 12.4881 14.4501C12.9728 14.3538 13.418 14.1161 13.7676 13.7669L9.50098 9.50024Z" stroke="#5F6263" stroke-width="1.7" stroke-linecap="round" stroke-linejoin="round"/>
<path d="M16.1671 16.1257C15.3536 16.956 14.3106 17.5244 13.1718 17.7578C12.0331 17.9913 10.8505 17.8792 9.77589 17.4359C8.70128 16.9926 7.78361 16.2384 7.14062 15.2699C6.49763 14.3015 6.15864 13.1631 6.16715 12.0007V10.334M17.8338 10.334V12.0007C17.8335 12.3444 17.8028 12.6874 17.7421 13.0257" stroke="#5F6263" stroke-width="1.7" stroke-linecap="round" stroke-linejoin="round"/>
<path d="M12.001 17.834V21.1673" stroke="#5F6263" stroke-width="1.7" stroke-linecap="round" stroke-linejoin="round"/>
<path d="M8.66699 21.167H15.3337" stroke="#5F6263" stroke-width="1.7" stroke-linecap="round" stroke-linejoin="round"/>
<path d="M3.81836 3.81836L20.182 20.182" stroke="#DA5454" stroke-width="1.7" stroke-linecap="round" stroke-linejoin="round"/>
</svg>
