<svg width="18" height="18" viewBox="0 0 18 18" fill="none" xmlns="http://www.w3.org/2000/svg">
<path d="M5.25 4.125V8.625C5.25 10.6961 6.92894 12.375 9 12.375C11.0711 12.375 12.75 10.6961 12.75 8.625V4.125C12.75 2.05394 11.0711 0.375 9 0.375C6.92894 0.375 5.25 2.05394 5.25 4.125Z" fill="white"/>
<path d="M3.60015 8.62501C3.60015 8.29364 3.33152 8.02501 3.00015 8.02501C2.66878 8.02501 2.40015 8.29364 2.40015 8.62501C2.40015 12.0678 5.03625 14.895 8.40015 15.1981V16.275H6.75015C6.41878 16.275 6.15015 16.5436 6.15015 16.875C6.15015 17.2064 6.41878 17.475 6.75015 17.475H11.2501C11.5815 17.475 11.8501 17.2064 11.8501 16.875C11.8501 16.5436 11.5815 16.275 11.2501 16.275H9.60015V15.1981C12.964 14.895 15.6001 12.0678 15.6001 8.62501C15.6001 8.29364 15.3315 8.02501 15.0001 8.02501C14.6688 8.02501 14.4001 8.29364 14.4001 8.62501C14.4001 11.6073 11.9825 14.025 9.00015 14.025C6.01781 14.025 3.60015 11.6073 3.60015 8.62501Z" fill="white"/>
</svg>
