<svg width="60" height="60" viewBox="0 0 60 60" fill="none" xmlns="http://www.w3.org/2000/svg">
<circle cx="30" cy="30" r="30" fill="#19191A"/>
<g clip-path="url(#clip0_2060_10265)">
<path d="M29.9999 19.8145C29.2632 19.8145 28.5567 20.1071 28.0358 20.628C27.5148 21.149 27.2222 21.8555 27.2222 22.5922V29.9996C27.2222 30.7364 27.5148 31.4429 28.0358 31.9638C28.5567 32.4848 29.2632 32.7774 29.9999 32.7774C30.7367 32.7774 31.4432 32.4848 31.9641 31.9638C32.4851 31.4429 32.7777 30.7364 32.7777 29.9996V22.5922C32.7777 21.8555 32.4851 21.149 31.9641 20.628C31.4432 20.1071 30.7367 19.8145 29.9999 19.8145V19.8145Z" stroke="white" stroke-width="1.75" stroke-linecap="round" stroke-linejoin="round"/>
<path d="M36.481 28.1475V29.9993C36.481 31.7183 35.7982 33.3669 34.5826 34.5824C33.3671 35.7979 31.7185 36.4808 29.9995 36.4808C28.2806 36.4808 26.632 35.7979 25.4164 34.5824C24.2009 33.3669 23.5181 31.7183 23.5181 29.9993V28.1475" stroke="white" stroke-width="1.75" stroke-linecap="round" stroke-linejoin="round"/>
<path d="M29.9995 36.4814V40.1851" stroke="white" stroke-width="1.75" stroke-linecap="round" stroke-linejoin="round"/>
<path d="M26.2959 40.1846H33.7033" stroke="white" stroke-width="1.75" stroke-linecap="round" stroke-linejoin="round"/>
</g>
<defs>
<clipPath id="clip0_2060_10265">
<rect width="22.2222" height="22.2222" fill="white" transform="translate(18.8887 18.8887)"/>
</clipPath>
</defs>
</svg>
