<svg width="24" height="24" viewBox="0 0 24 24" fill="none" xmlns="http://www.w3.org/2000/svg">
<path fill-rule="evenodd" clip-rule="evenodd" d="M21.4244 12.4242C21.6587 12.1899 21.6587 11.81 21.4244 11.5756L17.4244 7.57564C17.19 7.34132 16.8101 7.34132 16.5758 7.57564C16.3415 7.80995 16.3415 8.18985 16.5758 8.42417L19.5516 11.3999L10.0001 11.3999C9.66873 11.3999 9.4001 11.6685 9.4001 11.9999C9.4001 12.3313 9.66873 12.5999 10.0001 12.5999L19.5516 12.5999L16.5758 15.5756C16.3415 15.81 16.3415 16.1899 16.5758 16.4242C16.8101 16.6585 17.19 16.6585 17.4244 16.4242L21.4244 12.4242ZM14.6001 4.9999C14.6001 4.11625 13.8838 3.3999 13.0001 3.3999L4.0001 3.3999C3.11644 3.3999 2.4001 4.11625 2.4001 4.9999L2.4001 18.9999C2.4001 19.8836 3.11644 20.5999 4.0001 20.5999L13.0001 20.5999C13.8838 20.5999 14.6001 19.8836 14.6001 18.9999L14.6001 15.9999C14.6001 15.6685 14.3315 15.3999 14.0001 15.3999C13.6687 15.3999 13.4001 15.6685 13.4001 15.9999L13.4001 18.9999C13.4001 19.2208 13.221 19.3999 13.0001 19.3999L4.0001 19.3999C3.77918 19.3999 3.6001 19.2208 3.6001 18.9999L3.6001 4.9999C3.6001 4.77899 3.77918 4.5999 4.0001 4.5999L13.0001 4.5999C13.221 4.5999 13.4001 4.77899 13.4001 4.9999L13.4001 7.9999C13.4001 8.33127 13.6687 8.5999 14.0001 8.5999C14.3315 8.5999 14.6001 8.33127 14.6001 7.9999L14.6001 4.9999Z" fill="#212124"/>
</svg>
