<svg width="15" height="16" viewBox="0 0 15 16" fill="none" xmlns="http://www.w3.org/2000/svg">
<g clip-path="url(#clip0_173_8043)">
<path d="M4.375 7.6875V3.9375C4.375 2.21162 5.77412 0.8125 7.5 0.8125C8.93698 0.8125 10.1474 1.78241 10.5124 3.10329C10.566 3.29728 10.4977 3.50096 10.3559 3.64382L5.08083 8.96C4.93583 9.10614 4.69112 9.07415 4.61224 8.88399C4.45937 8.51545 4.375 8.11133 4.375 7.6875Z" fill="#4D5159"/>
<path d="M13.1662 2.64645C13.3614 2.84172 13.3614 3.1583 13.1662 3.35356L10.6249 5.89483V7.6875C10.6249 9.41338 9.22579 10.8125 7.49991 10.8125C6.9801 10.8125 6.48992 10.6856 6.05869 10.461L5.05426 11.4655C5.75833 11.9224 6.59778 12.1875 7.50014 12.1875C9.98542 12.1875 12.0001 10.1728 12.0001 7.68751C12.0001 7.41137 12.224 7.18751 12.5001 7.18751C12.7763 7.18751 13.0001 7.41137 13.0001 7.68751C13.0001 10.5565 10.8034 12.9125 8.00012 13.1651V14.0625H9.37512C9.65126 14.0625 9.87512 14.2864 9.87512 14.5625C9.87512 14.8386 9.65126 15.0625 9.37512 15.0625H5.62512C5.34898 15.0625 5.12512 14.8386 5.12512 14.5625C5.12512 14.2864 5.34898 14.0625 5.62512 14.0625H7.00012V13.1651C6.01349 13.0761 5.1014 12.7263 4.33426 12.1855L2.85368 13.6661C2.65841 13.8613 2.34183 13.8613 2.14657 13.6661C1.95131 13.4708 1.95131 13.1542 2.14657 12.959L12.4591 2.64645C12.6543 2.45119 12.9709 2.45119 13.1662 2.64645Z" fill="#4D5159"/>
<path d="M3.00012 7.68751C3.00012 7.41137 2.77626 7.18751 2.50012 7.18751C2.22398 7.18751 2.00012 7.41137 2.00012 7.68751C2.00012 8.7629 2.30926 9.76761 2.84373 10.6158C2.99094 10.8495 3.29967 10.9195 3.5333 10.7723C3.76693 10.6251 3.83699 10.3164 3.68978 10.0828C3.25294 9.38944 3.00012 8.56876 3.00012 7.68751Z" fill="#4D5159"/>
</g>
<defs>
<clipPath id="clip0_173_8043">
<rect width="15" height="15" fill="white" transform="translate(0 0.5)"/>
</clipPath>
</defs>
</svg>
