<svg width="52" height="52" viewBox="0 0 52 52" fill="none" xmlns="http://www.w3.org/2000/svg">
<circle cx="26" cy="26" r="26" fill="#3C3D3E"/>
<g clip-path="url(#clip0_2060_10309)">
<path d="M22 26C23.6569 26 25 24.6569 25 23C25 21.3431 23.6569 20 22 20C20.3431 20 19 21.3431 19 23C19 24.6569 20.3431 26 22 26Z" stroke="white" stroke-width="1.5" stroke-linecap="round" stroke-linejoin="round"/>
<path d="M30.7497 25.1606C32.147 25.1606 33.2797 24.0279 33.2797 22.6306C33.2797 21.2333 32.147 20.1006 30.7497 20.1006C29.3524 20.1006 28.2197 21.2333 28.2197 22.6306C28.2197 24.0279 29.3524 25.1606 30.7497 25.1606Z" stroke="white" stroke-width="1.5" stroke-linecap="round" stroke-linejoin="round"/>
<path d="M16.7568 32.5549C16.7568 31.4844 17.1821 30.4577 17.939 29.7008C18.696 28.9438 19.7227 28.5186 20.7932 28.5186H23.3361C24.4066 28.5186 25.4332 28.9438 26.1902 29.7008C26.9471 30.4577 27.3724 31.4844 27.3724 32.5549" stroke="white" stroke-width="1.5" stroke-linecap="round" stroke-linejoin="round"/>
<path d="M27.5542 28.1347C28.1636 27.6629 28.9127 27.4073 29.6833 27.4082H31.8529C32.7611 27.4109 33.6311 27.7735 34.2724 28.4166C34.9136 29.0598 35.2736 29.9309 35.2736 30.8391" stroke="white" stroke-width="1.5" stroke-linecap="round" stroke-linejoin="round"/>
</g>
<defs>
<clipPath id="clip0_2060_10309">
<rect width="20" height="14.6115" fill="white" transform="translate(16 18.7002)"/>
</clipPath>
</defs>
</svg>
