<svg width="24" height="32" viewBox="0 0 24 32" fill="none" xmlns="http://www.w3.org/2000/svg">
<path fill-rule="evenodd" clip-rule="evenodd" d="M12.1143 14.1928C12.3068 13.8079 12.5411 13.161 12.6082 12.5094C12.6766 11.8451 12.5609 11.3086 12.2267 10.9745C11.9924 10.7401 11.9924 10.3602 12.2267 10.1259C12.4611 9.89162 12.841 9.89162 13.0753 10.1259C13.784 10.8347 13.8856 11.8192 13.8019 12.6323C13.7169 13.4582 13.4297 14.2453 13.1877 14.7295L12.9193 15.2661L11.846 14.7295L12.1143 14.1928ZM18.9419 13.5806C19.1762 13.3463 19.1762 12.9664 18.9419 12.7321C18.7075 12.4978 18.3276 12.4978 18.0933 12.7321L14.8342 15.9912L14.4099 16.4155L15.2585 17.264L15.6827 16.8397L18.9419 13.5806ZM9.11357 13.9477C8.97128 13.8054 8.76715 13.7439 8.56995 13.784C8.37275 13.824 8.20875 13.9602 8.1332 14.1467L2.04587 29.1736C1.95539 29.3969 2.00731 29.6527 2.17771 29.8231C2.3481 29.9935 2.6039 30.0455 2.82725 29.955L17.8541 23.8676C18.0406 23.7921 18.1768 23.6281 18.2169 23.4309C18.2569 23.2337 18.1954 23.0296 18.0531 22.8873L9.11357 13.9477ZM6.28475 21.9058L8.87352 15.5153L8.87352 26.2109L6.28475 27.2596V21.9058ZM12.6623 24.6761L10.0735 25.7248L10.0735 16.6047L12.6623 19.1935V19.4964L12.6623 24.6761ZM13.8623 24.19L13.8623 20.3935L16.5642 23.0955L13.8623 24.19ZM5.08475 27.7054C5.08475 27.7188 5.08519 27.7321 5.08605 27.7452L3.69015 28.3107L5.08475 24.8681V27.7054ZM19.4916 18.665C18.84 18.7321 18.1932 18.9664 17.8082 19.1588L17.2716 19.4272L16.7349 18.3539L17.2716 18.0855C17.7557 17.8435 18.5428 17.5563 19.3687 17.4713C20.1819 17.3876 21.1663 17.4892 21.8751 18.1979C22.1094 18.4322 22.1094 18.8121 21.8751 19.0465C21.6408 19.2808 21.2609 19.2808 21.0266 19.0465C20.6924 18.7123 20.156 18.5966 19.4916 18.665Z" fill="#19191A"/>
<circle r="1" transform="matrix(-1 0 0 1 16.5 11)" fill="#19191A"/>
<circle r="1" transform="matrix(-1 0 0 1 21 23)" fill="#19191A"/>
<circle r="1" transform="matrix(-1 0 0 1 3 18)" fill="#19191A"/>
</svg>
