<svg width="24" height="24" viewBox="0 0 24 24" fill="none" xmlns="http://www.w3.org/2000/svg">
<path d="M17.92 2.88251C17.92 2.88251 19.3 2.91001 19.67 3.57751C20.04 4.24501 19.28 4.54501 18.9075 4.93501C18.535 5.32501 18.6575 5.68501 19.285 6.18501C19.8025 6.60001 19.595 7.33001 19.265 7.65751L18.56 7.86251C18.6943 7.70636 18.7933 7.523 18.85 7.32501C18.8905 7.19519 18.8948 7.05683 18.8627 6.92473C18.8305 6.79262 18.7631 6.67174 18.6675 6.57501C18.2525 6.18751 17.705 5.88251 18.1 5.28001C18.4625 4.72251 19.04 4.47001 19.155 4.21001C19.31 3.85751 18.5875 3.36751 17.6075 3.51251L17.92 2.88251Z" fill="#F7BB4E"/>
<path d="M14.0825 10.5625C14.0875 10.4079 14.1401 10.2586 14.2332 10.1351C14.3263 10.0116 14.4553 9.91985 14.6025 9.87249C15.1275 9.72249 15.495 10.25 15.9425 10.2075C16.255 10.1775 16.3825 9.80499 16.4425 9.50749C16.655 8.54749 17.2475 8.61249 17.5175 8.67249L17.9075 9.20749C17.9075 9.20749 17.1725 8.95749 16.94 9.54999C16.7075 10.1425 16.71 10.7675 15.88 10.53C15.38 10.3825 14.67 10.2375 14.5825 10.78L14.0825 10.5625Z" fill="#FF7E36"/>
<path d="M14.0375 2.63499L14.68 1.35999L15.5175 1.82499L14.855 3.09749L14.0375 2.63499Z" fill="#FF7E36"/>
<path d="M21.4525 13.1475L20.95 11.81L21.86 11.51L22.3475 12.8575L21.4525 13.1475Z" fill="#FFC552"/>
<path d="M9.18255 5.18502L8.55255 3.90501L9.43005 3.51501L10.045 4.81002L9.18255 5.18502Z" fill="#41D5B9"/>
<path d="M18.16 12.545C17.8521 12.545 17.6025 12.2954 17.6025 11.9875C17.6025 11.6796 17.8521 11.43 18.16 11.43C18.4679 11.43 18.7175 11.6796 18.7175 11.9875C18.7175 12.2954 18.4679 12.545 18.16 12.545Z" fill="#41D5B9"/>
<path d="M17.135 16.225L7.92504 7.01251L3.28504 19.5375C3.2164 19.7235 3.20251 19.9253 3.24499 20.119C3.28748 20.3126 3.38457 20.4901 3.52477 20.6303C3.66497 20.7705 3.84241 20.8676 4.03607 20.9101C4.22974 20.9525 4.43152 20.9386 4.61754 20.87L17.135 16.225Z" fill="#FFD279"/>
<mask id="mask0_173_8081" style="mask-type:alpha" maskUnits="userSpaceOnUse" x="3" y="7" width="15" height="14">
<path d="M17.135 16.225L7.92501 7.01245L3.28501 19.5375C3.21638 19.7235 3.20248 19.9253 3.24497 20.1189C3.28745 20.3126 3.38455 20.49 3.52474 20.6302C3.66494 20.7704 3.84238 20.8675 4.03605 20.91C4.22971 20.9525 4.4315 20.9386 4.61751 20.87L17.135 16.225Z" fill="#FFD279"/>
</mask>
<g mask="url(#mask0_173_8081)">
<path d="M2.93503 10.65C15.0725 17.25 25.085 18.22 25.085 18.22L27.1575 15.9275C27.1575 15.9275 17.3075 14.2925 5.11503 8.24995C-7.07747 2.20745 -9.20247 4.05495 2.93503 10.65Z" fill="#FF7E36"/>
<path d="M7.53754 5.65745C17.0675 10.5974 29.61 13.2174 29.61 13.2174L31.79 10.8074C31.79 10.8074 18.2 7.05745 9.91754 2.79245C1.63504 -1.47255 -1.99996 0.719947 7.53754 5.65745Z" fill="#41D5B9"/>
<path d="M-1.29744 15.2949C9.33756 22.4474 20.5751 23.3074 20.5751 23.3074L22.7501 20.8974C22.7501 20.8974 11.1876 19.0624 0.88006 12.8849C-9.42744 6.70741 -11.5324 8.41241 -1.29744 15.2949Z" fill="#FF7E36"/>
</g>
<path d="M11.909 12.2383C9.3628 9.69213 7.59073 7.33596 7.95099 6.9757C8.31125 6.61544 10.6674 8.38751 13.2136 10.9337C15.7599 13.48 17.5319 15.8361 17.1717 16.1964C16.8114 16.5566 14.4552 14.7846 11.909 12.2383Z" fill="#E26229"/>
<path d="M13.205 6.60999C13.205 6.60999 13.835 7.10999 13.455 7.65999C13.075 8.20999 12.3 8.79499 12.7325 9.28249C13.165 9.76999 13.1225 10.2825 12.61 10.6275C12.5413 10.6636 12.481 10.7139 12.4332 10.775C12.3853 10.8362 12.3511 10.9068 12.3326 10.9822C12.3142 11.0577 12.312 11.1361 12.3262 11.2125C12.3404 11.2888 12.3707 11.3613 12.415 11.425L11.665 11.28C11.6463 11.1111 11.6673 10.9402 11.7263 10.7809C11.7853 10.6216 11.8808 10.4783 12.005 10.3625C12.425 10.0025 12.5575 9.61249 12.095 9.16249C11.6325 8.71249 12.1525 8.30249 12.4525 7.98999C12.7525 7.67749 13.305 7.27999 12.6625 6.70249L13.205 6.60999Z" fill="#F7BB4E"/>
</svg>
