<svg width="24" height="24" viewBox="0 0 24 24" fill="none" xmlns="http://www.w3.org/2000/svg">
<path fill-rule="evenodd" clip-rule="evenodd" d="M12.1143 6.1928C12.3068 5.80786 12.5411 5.16098 12.6082 4.5094C12.6766 3.84506 12.5609 3.30863 12.2267 2.97446C11.9924 2.74014 11.9924 2.36025 12.2267 2.12593C12.4611 1.89162 12.841 1.89162 13.0753 2.12593C13.784 2.83468 13.8856 3.81916 13.8019 4.63228C13.7169 5.45817 13.4297 6.2453 13.1877 6.72945L12.9193 7.26611L11.846 6.72945L12.1143 6.1928ZM18.9419 5.58061C19.1762 5.34629 19.1762 4.96639 18.9419 4.73208C18.7075 4.49776 18.3276 4.49776 18.0933 4.73208L14.8342 7.99119L14.4099 8.41545L15.2585 9.26398L15.6827 8.83972L18.9419 5.58061ZM9.11357 5.94772C8.97128 5.80544 8.76715 5.74395 8.56995 5.78398C8.37275 5.824 8.20875 5.96021 8.1332 6.14671L2.04587 21.1736C1.95539 21.3969 2.00731 21.6527 2.17771 21.8231C2.3481 21.9935 2.6039 22.0455 2.82725 21.955L17.8541 15.8676C18.0406 15.7921 18.1768 15.6281 18.2169 15.4309C18.2569 15.2337 18.1954 15.0296 18.0531 14.8873L9.11357 5.94772ZM6.28475 13.9058L8.87352 7.51528L8.87352 18.2109L6.28475 19.2596V13.9058ZM12.6623 16.6761L10.0735 17.7248L10.0735 8.60473L12.6623 11.1935V11.4964L12.6623 16.6761ZM13.8623 16.19L13.8623 12.3935L16.5642 15.0955L13.8623 16.19ZM5.08475 19.7054C5.08475 19.7188 5.08519 19.7321 5.08605 19.7452L3.69015 20.3107L5.08475 16.8681V19.7054ZM19.4916 10.665C18.84 10.7321 18.1932 10.9664 17.8082 11.1588L17.2716 11.4272L16.7349 10.3539L17.2716 10.0855C17.7557 9.84346 18.5428 9.55632 19.3687 9.4713C20.1819 9.3876 21.1663 9.48918 21.8751 10.1979C22.1094 10.4322 22.1094 10.8121 21.8751 11.0465C21.6408 11.2808 21.2609 11.2808 21.0266 11.0465C20.6924 10.7123 20.156 10.5966 19.4916 10.665Z" fill="#19191A"/>
<circle r="1" transform="matrix(-1 0 0 1 16.5 3)" fill="#19191A"/>
<circle r="1" transform="matrix(-1 0 0 1 21 15)" fill="#19191A"/>
<circle r="1" transform="matrix(-1 0 0 1 3 10)" fill="#19191A"/>
</svg>
