<svg width="18" height="18" viewBox="0 0 18 18" fill="none" xmlns="http://www.w3.org/2000/svg">
<path d="M7.65533 4.71967C7.36244 4.42678 6.88756 4.42678 6.59467 4.71967C6.30178 5.01256 6.30178 5.48744 6.59467 5.78033L7.65533 4.71967ZM10.875 9L11.4053 9.53033C11.6982 9.23744 11.6982 8.76256 11.4053 8.46967L10.875 9ZM6.59467 12.2197C6.30178 12.5126 6.30178 12.9874 6.59467 13.2803C6.88756 13.5732 7.36244 13.5732 7.65533 13.2803L6.59467 12.2197ZM6.59467 5.78033L10.3447 9.53033L11.4053 8.46967L7.65533 4.71967L6.59467 5.78033ZM10.3447 8.46967L6.59467 12.2197L7.65533 13.2803L11.4053 9.53033L10.3447 8.46967Z" fill="#278651"/>
</svg>
