<svg width="24" height="24" viewBox="0 0 24 24" fill="none" xmlns="http://www.w3.org/2000/svg">
<path d="M8.70711 2.29289C8.31658 1.90237 7.68342 1.90237 7.29289 2.29289C6.90237 2.68342 6.90237 3.31658 7.29289 3.70711L8.70711 2.29289ZM17 12L17.7071 12.7071C18.0976 12.3166 18.0976 11.6834 17.7071 11.2929L17 12ZM7.29289 20.2929C6.90237 20.6834 6.90237 21.3166 7.29289 21.7071C7.68342 22.0976 8.31658 22.0976 8.70711 21.7071L7.29289 20.2929ZM7.29289 3.70711L16.2929 12.7071L17.7071 11.2929L8.70711 2.29289L7.29289 3.70711ZM16.2929 11.2929L7.29289 20.2929L8.70711 21.7071L17.7071 12.7071L16.2929 11.2929Z" fill="#19191A"/>
</svg>
