<svg width="24" height="24" viewBox="0 0 24 24" fill="none" xmlns="http://www.w3.org/2000/svg">
<path d="M10.2071 6.29289C9.81658 5.90237 9.18342 5.90237 8.79289 6.29289C8.40237 6.68342 8.40237 7.31658 8.79289 7.70711L10.2071 6.29289ZM14.5 12L15.2071 12.7071C15.5976 12.3166 15.5976 11.6834 15.2071 11.2929L14.5 12ZM8.79289 16.2929C8.40237 16.6834 8.40237 17.3166 8.79289 17.7071C9.18342 18.0976 9.81658 18.0976 10.2071 17.7071L8.79289 16.2929ZM8.79289 7.70711L13.7929 12.7071L15.2071 11.2929L10.2071 6.29289L8.79289 7.70711ZM13.7929 11.2929L8.79289 16.2929L10.2071 17.7071L15.2071 12.7071L13.7929 11.2929Z" fill="#19191A"/>
</svg>
