<svg width="25" height="24" viewBox="0 0 25 24" fill="none" xmlns="http://www.w3.org/2000/svg">
<path fill-rule="evenodd" clip-rule="evenodd" d="M17 16V8.5C17 6.01472 14.9853 4 12.5 4C10.0147 4 8 6.01472 8 8.5V16H17ZM6 8.5V16H4.5C3.94772 16 3.5 16.4477 3.5 17C3.5 17.5523 3.94772 18 4.5 18H6H8H17H19H20.5C21.0523 18 21.5 17.5523 21.5 17C21.5 16.4477 21.0523 16 20.5 16H19V8.5C19 4.91015 16.0899 2 12.5 2C8.91015 2 6 4.91015 6 8.5ZM15.5 19C15.5 20.6569 14.1569 22 12.5 22C10.8431 22 9.5 20.6569 9.5 19H15.5Z" fill="#3C3D3E"/>
</svg>
