<svg width="22" height="22" viewBox="0 0 22 22" fill="none" xmlns="http://www.w3.org/2000/svg">
<path fill-rule="evenodd" clip-rule="evenodd" d="M5.04145 7.79168C5.04145 4.50098 7.70909 1.83334 10.9998 1.83334C14.2905 1.83334 16.9581 4.50098 16.9581 7.79167V14.5V14.6667H17.7557H18.3333C18.8396 14.6667 19.25 15.0771 19.25 15.5833C19.25 16.0896 18.8396 16.5 18.3333 16.5H17.7557H4.24429H3.66666C3.1604 16.5 2.75 16.0896 2.75 15.5833C2.75 15.0771 3.1604 14.6667 3.66666 14.6667H4.24429H5.04145V14.5V7.79168ZM14 17C14 18.6569 12.6569 20 11 20C9.34315 20 8 18.6569 8 17H14Z" fill="#41AC70"/>
</svg>
