<svg width="14" height="14" viewBox="0 0 14 14" fill="none" xmlns="http://www.w3.org/2000/svg">
<path d="M10.675 3.33085C10.4475 3.10335 10.08 3.10335 9.85248 3.33085L6.99998 6.17751L4.14748 3.32501C3.91998 3.09751 3.55248 3.09751 3.32498 3.32501C3.09748 3.55251 3.09748 3.92001 3.32498 4.14751L6.17748 7.00001L3.32498 9.85251C3.09748 10.08 3.09748 10.4475 3.32498 10.675C3.55248 10.9025 3.91998 10.9025 4.14748 10.675L6.99998 7.82251L9.85248 10.675C10.08 10.9025 10.4475 10.9025 10.675 10.675C10.9025 10.4475 10.9025 10.08 10.675 9.85251L7.82248 7.00001L10.675 4.14751C10.8966 3.92585 10.8966 3.55251 10.675 3.33085V3.33085Z" fill="#CBCCCD"/>
</svg>
