<svg width="20" height="20" viewBox="0 0 20 20" fill="none" xmlns="http://www.w3.org/2000/svg">
<path fill-rule="evenodd" clip-rule="evenodd" d="M4.70454 7.27306C4.70454 4.34846 7.07539 1.9776 9.99999 1.9776C12.9246 1.9776 15.2954 4.34846 15.2954 7.27306V12.9549H15.4625H16.5909C16.9675 12.9549 17.2727 13.2601 17.2727 13.6367C17.2727 14.0132 16.9675 14.3185 16.5909 14.3185H15.4625H15.2954V14.3867H14.5454H5.45454H4.70454V14.3185H4.53746H3.40908C3.03253 14.3185 2.72726 14.0132 2.72726 13.6367C2.72726 13.2601 3.03252 12.9549 3.40908 12.9549H4.53746H4.70454V7.27306ZM9.99999 3.4776C7.90382 3.4776 6.20454 5.17688 6.20454 7.27306V12.8867H13.7954V7.27306C13.7954 5.17688 12.0962 3.4776 9.99999 3.4776ZM12.5 15.2276C12.5 16.6083 11.3807 17.7276 9.99999 17.7276C8.61928 17.7276 7.49999 16.6083 7.49999 15.2276H12.5Z" fill="#41AC70"/>
</svg>
