<svg width="18" height="18" viewBox="0 0 18 18" fill="none" xmlns="http://www.w3.org/2000/svg">
<path d="M0 6C0 2.68629 2.68629 0 6 0H18V12C18 15.3137 15.3137 18 12 18H0V6Z" fill="#41AC70"/>
<path d="M8.99868 3.65259C8.6119 3.65259 8.24097 3.80623 7.96748 4.07972C7.69399 4.35321 7.54034 4.72415 7.54034 5.11092V8.99981C7.54034 9.38658 7.69399 9.75752 7.96748 10.031C8.24097 10.3045 8.6119 10.4581 8.99868 10.4581C9.38545 10.4581 9.75638 10.3045 10.0299 10.031C10.3034 9.75752 10.457 9.38658 10.457 8.99981V5.11092C10.457 4.72415 10.3034 4.35321 10.0299 4.07972C9.75638 3.80623 9.38545 3.65259 8.99868 3.65259V3.65259Z" stroke="white" stroke-linecap="round" stroke-linejoin="round"/>
<path d="M12.4024 8.02759V8.99981C12.4024 9.90228 12.0439 10.7678 11.4057 11.4059C10.7676 12.0441 9.90205 12.4026 8.99958 12.4026C8.09711 12.4026 7.2316 12.0441 6.59345 11.4059C5.95531 10.7678 5.5968 9.90228 5.5968 8.99981V8.02759" stroke="white" stroke-linecap="round" stroke-linejoin="round"/>
<path d="M8.99896 12.4026V14.347" stroke="white" stroke-linecap="round" stroke-linejoin="round"/>
<path d="M7.05499 14.3468H10.9439" stroke="white" stroke-linecap="round" stroke-linejoin="round"/>
</svg>
