<svg width="61" height="18" viewBox="0 0 61 18" fill="none" xmlns="http://www.w3.org/2000/svg">
<path d="M0 6C0 2.68629 2.68629 0 6 0H61V12C61 15.3137 58.3137 18 55 18H0V6Z" fill="#F5F5F5"/>
<path d="M8.99837 3.65234C8.6116 3.65234 8.24067 3.80599 7.96717 4.07948C7.69368 4.35297 7.54004 4.7239 7.54004 5.11068V8.99957C7.54004 9.38634 7.69368 9.75727 7.96717 10.0308C8.24067 10.3043 8.6116 10.4579 8.99837 10.4579C9.38515 10.4579 9.75608 10.3043 10.0296 10.0308C10.3031 9.75727 10.4567 9.38634 10.4567 8.99957V5.11068C10.4567 4.7239 10.3031 4.35297 10.0296 4.07948C9.75608 3.80599 9.38515 3.65234 8.99837 3.65234V3.65234Z" stroke="#85878A" stroke-linecap="round" stroke-linejoin="round"/>
<path d="M12.4022 8.02734V8.99957C12.4022 9.90204 12.0437 10.7675 11.4056 11.4057C10.7674 12.0438 9.90193 12.4023 8.99946 12.4023C8.09698 12.4023 7.23147 12.0438 6.59333 11.4057C5.95519 10.7675 5.59668 9.90204 5.59668 8.99957V8.02734" stroke="#85878A" stroke-linecap="round" stroke-linejoin="round"/>
<path d="M8.99902 12.4023V14.3468" stroke="#85878A" stroke-linecap="round" stroke-linejoin="round"/>
<path d="M7.05469 14.3467H10.9436" stroke="#85878A" stroke-linecap="round" stroke-linejoin="round"/>
<path d="M22.1671 3.71409C19.8715 3.71409 18.413 4.46409 18.413 5.73204C18.413 6.97928 19.8715 7.72099 22.1671 7.72099C24.471 7.72099 25.913 6.97928 25.913 5.73204C25.913 4.46409 24.471 3.71409 22.1671 3.71409ZM17.3895 9.42818H26.9613V8.52901H17.3895V9.42818ZM18.5373 13.8619H25.7928V10.3688H18.5373V13.8619ZM19.5691 5.73204C19.5608 5.00691 20.5511 4.59254 22.1671 4.59668C23.7749 4.59254 24.7735 5.00691 24.7735 5.73204C24.7735 6.43232 23.7749 6.84254 22.1671 6.84668C20.5511 6.84254 19.5608 6.43232 19.5691 5.73204ZM19.6354 12.9586V11.2555H24.7113V12.9586H19.6354ZM31.1899 5.0732V4.07873H30.0794V5.11878C30.0711 6.69337 29.0973 8.08978 27.4192 8.6616L28.0158 9.55663C29.2879 9.09668 30.2037 8.16022 30.6595 6.95856C31.1153 8.01105 31.9647 8.81906 33.1208 9.23757L33.7258 8.3674C32.1346 7.84945 31.1816 6.53591 31.1899 5.0732ZM29.1471 11.9931C29.1388 13.261 30.4896 13.9779 32.694 13.9779C34.8943 13.9779 36.241 13.261 36.2451 11.9931C36.241 10.721 34.8943 9.98343 32.694 9.98343C30.4896 9.98343 29.1388 10.721 29.1471 11.9931ZM30.2493 11.9931C30.241 11.268 31.1567 10.8577 32.694 10.8577C34.2272 10.8577 35.1388 11.268 35.1429 11.9931C35.1388 12.6934 34.2272 13.0994 32.694 13.0994C31.1567 13.0994 30.241 12.6934 30.2493 11.9931ZM32.8888 6.54834H35.1015V9.69337H36.212V3.49448H35.1015V5.6326H32.8888V6.54834ZM47.1408 11.7652H42.8604V9.33702H45.9889V4.33564H38.6256V9.33702H41.7582V11.7652H37.5317V12.6851H47.1408V11.7652ZM39.7154 8.45442V5.23481H44.8991V8.45442H39.7154ZM56.3127 3.50276H55.1981V9.4779H56.3127V3.50276ZM47.8141 6.51519C47.8141 7.95718 48.9992 8.98066 50.6111 8.98066C52.2188 8.98066 53.3997 7.95718 53.3997 6.51519C53.3997 5.04005 52.2188 4.02901 50.6111 4.02901C48.9992 4.02901 47.8141 5.04005 47.8141 6.51519ZM48.9039 6.51519C48.8956 5.58702 49.6125 4.96547 50.6111 4.97376C51.5973 4.96547 52.31 5.58702 52.31 6.51519C52.31 7.42265 51.5973 8.04006 50.6111 8.04006C49.6125 8.04006 48.8956 7.42265 48.9039 6.51519ZM49.4094 13.8619H56.3127V10.0166H49.4094V13.8619ZM50.5075 12.9586V10.9075H55.2188V12.9586H50.5075Z" fill="#85878A"/>
</svg>
