<svg width="106" height="18" viewBox="0 0 106 18" fill="none" xmlns="http://www.w3.org/2000/svg">
<path d="M8.1448 11.6267V1.38462C8.1448 0.61086 8.79638 0.0814481 9.75339 0.0814481C10.7104 0.0814481 11.3213 0.61086 11.3213 1.38462V4.37783H12.2783V1.30317C12.2783 0.529412 12.9299 0 13.9072 0C14.8846 0 15.5158 0.529412 15.5158 1.30317V11.81C15.5158 12.5837 14.8846 13.1131 13.9072 13.1131C12.9299 13.1131 12.2783 12.5837 12.2783 11.81V7.37104H11.3213V11.6267C11.3213 12.4005 10.7104 12.9299 9.75339 12.9299C8.79638 12.9299 8.1448 12.4005 8.1448 11.6267ZM4.0724 13.3575V14.2738C4.0724 14.4774 4.21493 14.5995 4.45928 14.5995H14.3145C15.1697 14.5995 15.9027 15.2104 15.9027 16.2285C15.9027 17.2262 15.1697 17.7964 14.3145 17.7964H3.42081C1.58824 17.7964 0.590498 16.9005 0.590498 15.3529V13.3575C0.590498 12.543 1.30317 11.9321 2.32127 11.9321C3.33937 11.9321 4.0724 12.543 4.0724 13.3575ZM3.66516 4.47964C3.88914 4.47964 4.01131 4.35747 4.01131 4.17421V3.44118C4.01131 3.25792 3.88914 3.13575 3.66516 3.13575H1.36425C0.61086 3.13575 0 2.60634 0 1.77149C0 0.895928 0.61086 0.386879 1.36425 0.386879H4.70362C6.3733 0.386879 7.18778 1.11991 7.18778 2.58597V4.98869C7.18778 6.45475 6.3733 7.18778 4.70362 7.18778H3.52262C3.29864 7.18778 3.17647 7.30995 3.17647 7.49321V8.28733C3.17647 8.47059 3.29864 8.59276 3.52262 8.59276H6.31222C7.06561 8.59276 7.67647 9.12217 7.67647 9.95701C7.67647 10.8326 7.06561 11.3416 6.31222 11.3416H2.48416C0.81448 11.3416 0 10.6086 0 9.14253V6.67873C0 5.21267 0.81448 4.47964 2.48416 4.47964H3.66516Z" fill="#FF7E36"/>
<path d="M27.7206 3.11539H29.9604V1.42534C29.9604 0.61086 30.6935 0 31.7116 0C32.7297 0 33.4423 0.61086 33.4423 1.42534V11.6471C33.4423 12.4615 32.7297 13.0724 31.7116 13.0724C30.6935 13.0724 29.9604 12.4615 29.9604 11.6471V6.23077H27.7206C26.9469 6.23077 26.3156 5.66063 26.3156 4.6629C26.3156 3.70588 26.9469 3.11539 27.7206 3.11539ZM21.9989 12.8688V14.1719C21.9989 14.4367 22.1414 14.5995 22.4061 14.5995H32.4446C33.2998 14.5995 34.0328 15.1697 34.0328 16.2081C34.0328 17.2059 33.2998 17.7964 32.4446 17.7964H21.5306C19.5147 17.7964 18.517 16.8394 18.517 14.9661V12.8688C18.517 12.0543 19.2297 11.4434 20.2478 11.4434C21.2659 11.4434 21.9989 12.0543 21.9989 12.8688ZM25.6641 10.4457C24.6256 9.75339 23.4853 8.71493 22.6098 7.7172C21.9989 8.85747 21.1641 9.93665 20.146 10.7511C19.5555 11.2398 18.4559 11.1787 17.8043 10.4864C17.1731 9.81448 17.2138 8.85747 17.7636 8.36878C19.5555 6.76018 20.5736 4.37783 20.7568 1.40498C20.7975 0.590499 21.5102 0.0610864 22.5487 0.10181C23.6279 0.142535 24.2591 0.794118 24.2184 1.62896C24.1776 2.38235 24.0555 3.31901 23.8722 4.15385C24.7885 5.53846 26.3564 7.00453 27.6392 7.85973C28.2093 8.22624 28.4537 9.24434 27.8632 10.0385C27.293 10.8122 26.2749 10.8529 25.6641 10.4457Z" fill="#FF7E36"/>
<path d="M40.2716 11.3009H47.1539C49.8417 11.3009 51.5521 12.543 51.5521 14.6403C51.5521 16.7376 49.8417 17.9796 47.1539 17.9796H40.2716C37.5838 17.9796 35.853 16.7376 35.853 14.6403C35.853 12.543 37.5838 11.3009 40.2716 11.3009ZM46.9096 13.9072H40.5159C39.844 13.9072 39.396 14.1719 39.396 14.6403C39.396 15.1086 39.844 15.3733 40.5159 15.3733H46.9096C47.5815 15.3733 48.0091 15.1086 48.0091 14.6403C48.0091 14.1719 47.5815 13.9072 46.9096 13.9072ZM39.5385 3.78733C39.5385 3.97059 39.6607 4.09276 39.8643 4.09276H50.2286C50.9616 4.09276 51.5521 4.56109 51.5521 5.39593C51.5521 6.25113 50.9616 6.69909 50.2286 6.69909H45.4231V7.83937H50.9616C51.6946 7.83937 52.3259 8.34842 52.3259 9.20362C52.3259 10.1199 51.6946 10.5068 50.9616 10.5068H36.4435C35.7105 10.5068 35.0793 10.1199 35.0793 9.20362C35.0793 8.34842 35.7105 7.83937 36.4435 7.83937H41.9412V6.69909H38.4593C36.8507 6.69909 36.0566 6.00679 36.0566 4.54072V2.54525C36.0566 1.07919 36.8507 0.386879 38.4593 0.386879H50.1471C50.8802 0.386879 51.4707 0.834842 51.4707 1.69005C51.4707 2.52489 50.8802 2.99321 50.1471 2.99321H39.8643C39.6607 2.99321 39.5385 3.11539 39.5385 3.29864V3.78733Z" fill="#FF7E36"/>
<path d="M58.0555 13.7851H59.5623C60.3768 13.7851 60.9877 14.4163 60.9877 15.3937C60.9877 16.4118 60.3768 17.0226 59.5623 17.0226H57.2818C54.9198 17.0226 53.7795 15.9842 53.7795 13.8054V1.75113C53.7795 0.91629 54.5125 0.285068 55.5306 0.285068C56.5487 0.285068 57.2614 0.91629 57.2614 1.75113V13.052C57.2614 13.5407 57.5058 13.7851 58.0555 13.7851ZM65.8134 16.4729V1.52715C65.8134 0.671947 66.5465 0 67.5646 0C68.5827 0 69.2953 0.671947 69.2953 1.52715V16.4729C69.2953 17.3281 68.5827 18 67.5646 18C66.5465 18 65.8134 17.3281 65.8134 16.4729ZM59.9899 6.02715H61.456V1.58824C61.456 0.733032 62.1483 0.0814481 63.1664 0.0814481C64.1845 0.0814481 64.8768 0.733032 64.8768 1.58824V16.2896C64.8768 17.1448 64.1845 17.7964 63.1664 17.7964C62.1483 17.7964 61.456 17.1448 61.456 16.2896V9.48869H59.9899C59.1958 9.48869 58.5646 8.77602 58.5646 7.75792C58.5646 6.78054 59.1958 6.02715 59.9899 6.02715Z" fill="#FF7E36"/>
<path d="M81.4187 12.2579V13.9683H86.6517C87.5069 13.9683 88.1789 14.5995 88.1789 15.5769C88.1789 16.6154 87.5069 17.2059 86.6517 17.2059H72.4594C71.6042 17.2059 70.9323 16.6154 70.9323 15.5769C70.9323 14.5995 71.6042 13.9683 72.4594 13.9683H77.611V12.2579C77.611 11.3824 78.4458 10.7308 79.525 10.7308C80.6042 10.7308 81.4187 11.3824 81.4187 12.2579ZM84.2897 10.3439H74.8418C72.9277 10.3439 71.9096 9.48869 71.9096 7.75792V2.97285C71.9096 1.24208 72.9277 0.386879 74.8418 0.386879H84.2897C86.2038 0.386879 87.2219 1.24208 87.2219 2.97285V7.75792C87.2219 9.48869 86.2038 10.3439 84.2897 10.3439ZM83.3124 3.6448H75.8191C75.5748 3.6448 75.3915 3.82805 75.3915 4.0724V6.65837C75.3915 6.90272 75.5748 7.08597 75.8191 7.08597H83.3124C83.5567 7.08597 83.74 6.90272 83.74 6.65837V4.0724C83.74 3.82805 83.5567 3.6448 83.3124 3.6448Z" fill="#FF7E36"/>
<path d="M92.5036 4.98869C92.5036 6.12896 93.1755 6.94344 94.2343 6.94344C95.2932 6.94344 95.9651 6.12896 95.9651 4.98869C95.9651 3.82805 95.2932 3.03394 94.2343 3.03394C93.1755 3.03394 92.5036 3.82805 92.5036 4.98869ZM89.0624 4.98869C89.0624 2.1991 91.18 0.203621 94.2343 0.203621C97.2886 0.203621 99.4063 2.1991 99.4063 4.98869C99.4063 7.75792 97.2886 9.77376 94.2343 9.77376C91.18 9.77376 89.0624 7.75792 89.0624 4.98869ZM101.666 8.49095V1.42534C101.666 0.61086 102.399 0 103.418 0C104.436 0 105.148 0.61086 105.148 1.42534V8.49095C105.148 9.30543 104.436 9.91629 103.418 9.91629C102.399 9.91629 101.666 9.30543 101.666 8.49095ZM92.5443 10.4457H102.827C104.395 10.4457 105.148 11.1787 105.148 12.543V15.6991C105.148 17.0633 104.395 17.7964 102.827 17.7964H92.5443C90.9764 17.7964 90.223 17.0633 90.223 15.6991V12.543C90.223 11.1787 90.9764 10.4457 92.5443 10.4457ZM93.9696 14.9253H101.402C101.565 14.9253 101.666 14.8439 101.666 14.681V13.5407C101.666 13.3778 101.565 13.2964 101.402 13.2964H93.9696C93.8067 13.2964 93.7049 13.3778 93.7049 13.5407V14.681C93.7049 14.8439 93.8067 14.9253 93.9696 14.9253Z" fill="#FF7E36"/>
</svg>
