<svg width="24" height="24" viewBox="0 0 24 24" fill="none" xmlns="http://www.w3.org/2000/svg">
<path d="M14.3166 11.75C15.1493 11.1936 15.7913 10.3588 16.1454 9.37241C16.4994 8.38599 16.5462 7.30167 16.2786 6.28393C16.011 5.26618 15.4436 4.37053 14.6624 3.73278C13.8813 3.09504 12.929 2.75 11.95 2.75C10.971 2.75 10.0188 3.09504 9.23764 3.73278C8.4565 4.37053 7.88906 5.26618 7.62143 6.28393C7.35381 7.30167 7.40055 8.38599 7.75461 9.37241C8.10867 10.3588 8.75072 11.1936 9.58337 11.75" stroke="#19191A" stroke-width="1.5" stroke-linecap="round" stroke-linejoin="bevel"/>
<path d="M14.4 11.75C15.9961 11.9499 17.4643 12.7258 18.5287 13.9319C19.593 15.1381 20.1803 17.3414 20.18 18.95H3.75C3.74972 17.3414 4.33695 15.1381 5.40131 13.9319C6.46566 12.7258 7.93382 11.9499 9.52997 11.75" stroke="#19191A" stroke-width="1.5" stroke-linecap="round" stroke-linejoin="round"/>
<rect x="9" y="13.5" width="15" height="9" fill="white"/>
<path d="M11.5118 15.2818C11.0229 15.2818 10.6265 15.6781 10.6265 16.167V21.4194C10.6265 21.74 10.8865 22 11.2072 22V22C11.5278 22 11.7878 21.74 11.7878 21.4194V17.3615H11.8435L13.5478 21.5787C13.6459 21.8214 13.8815 21.9803 14.1432 21.9803V21.9803C14.4049 21.9803 14.6404 21.8216 14.7385 21.5791L16.4394 17.3779H16.5017V21.4194C16.5017 21.74 16.7617 22 17.0823 22V22C17.403 22 17.663 21.74 17.663 21.4194V16.1672C17.663 15.6782 17.2665 15.2818 16.7775 15.2818V15.2818C16.4182 15.2818 16.0945 15.4989 15.9582 15.8314L14.1825 20.163H14.1037L12.3311 15.8317C12.1949 15.4991 11.8712 15.2818 11.5118 15.2818V15.2818Z" fill="#19191A"/>
<path d="M19.1886 15.2818C18.7365 15.2818 18.4545 15.7719 18.6816 16.1628L20.6135 19.4872V21.3981C20.6135 21.7305 20.883 22 21.2155 22V22C21.5479 22 21.8174 21.7305 21.8174 21.398V19.4872L23.7494 16.1628C23.9765 15.7719 23.6945 15.2818 23.2424 15.2818V15.2818C23.0291 15.2818 22.8326 15.3976 22.7293 15.5842L21.2499 18.2571H21.1811L19.7017 15.5842C19.5984 15.3976 19.4019 15.2818 19.1886 15.2818V15.2818Z" fill="#19191A"/>
<path d="M11.7878 17.3615V17.2615C11.7326 17.2615 11.6878 17.3063 11.6878 17.3615H11.7878ZM11.8435 17.3615L11.9363 17.3241C11.921 17.2863 11.8843 17.2615 11.8435 17.2615V17.3615ZM16.4394 17.3779V17.2779C16.3986 17.2779 16.362 17.3026 16.3467 17.3404L16.4394 17.3779ZM16.5017 17.3779H16.6017C16.6017 17.3227 16.5569 17.2779 16.5017 17.2779V17.3779ZM14.1825 20.163V20.263C14.223 20.263 14.2596 20.2385 14.275 20.2009L14.1825 20.163ZM14.1037 20.163L14.0112 20.2009C14.0266 20.2384 14.0631 20.263 14.1037 20.263V20.163ZM20.6135 19.4872H20.7135C20.7135 19.4696 20.7089 19.4522 20.7 19.437L20.6135 19.4872ZM21.8174 19.4872L21.731 19.437C21.7221 19.4522 21.7174 19.4696 21.7174 19.4872H21.8174ZM21.2499 18.2571V18.3571C21.2863 18.3571 21.3198 18.3373 21.3374 18.3055L21.2499 18.2571ZM21.1811 18.2571L21.0936 18.3055C21.1112 18.3373 21.1447 18.3571 21.1811 18.3571V18.2571ZM22.7293 15.5842L22.6418 15.5358L22.7293 15.5842ZM19.7017 15.5842L19.7892 15.5358L19.7017 15.5842ZM14.7385 21.5791L14.6459 21.5416L14.7385 21.5791ZM15.9582 15.8314L15.8657 15.7934L15.9582 15.8314ZM18.6816 16.1628L18.5952 16.213L18.6816 16.1628ZM10.5265 16.167V21.4194H10.7265V16.167H10.5265ZM11.8878 21.4194V17.3615H11.6878V21.4194H11.8878ZM11.7878 17.4615H11.8435V17.2615H11.7878V17.4615ZM11.7508 17.399L13.4551 21.6162L13.6405 21.5412L11.9363 17.3241L11.7508 17.399ZM14.8312 21.6166L16.5321 17.4155L16.3467 17.3404L14.6459 21.5416L14.8312 21.6166ZM16.4394 17.4779H16.5017V17.2779H16.4394V17.4779ZM16.4017 17.3779V21.4194H16.6017V17.3779H16.4017ZM17.763 21.4194V16.1672H17.563V21.4194H17.763ZM15.8657 15.7934L14.0899 20.1251L14.275 20.2009L16.0507 15.8693L15.8657 15.7934ZM14.1825 20.063H14.1037V20.263H14.1825V20.063ZM14.1963 20.1251L12.4236 15.7938L12.2385 15.8696L14.0112 20.2009L14.1963 20.1251ZM18.5952 16.213L20.5271 19.5375L20.7 19.437L18.7681 16.1125L18.5952 16.213ZM20.5135 19.4872V21.3981H20.7135V19.4872H20.5135ZM21.9174 21.398V19.4872H21.7174V21.398H21.9174ZM21.9039 19.5375L23.8358 16.213L23.6629 16.1125L21.731 19.437L21.9039 19.5375ZM22.6418 15.5358L21.1624 18.2087L21.3374 18.3055L22.8168 15.6326L22.6418 15.5358ZM21.2499 18.1571H21.1811V18.3571H21.2499V18.1571ZM21.2685 18.2087L19.7892 15.5358L19.6142 15.6326L21.0936 18.3055L21.2685 18.2087ZM23.2424 15.1818C22.9927 15.1818 22.7627 15.3173 22.6418 15.5358L22.8168 15.6326C22.9025 15.4778 23.0654 15.3818 23.2424 15.3818V15.1818ZM23.8358 16.213C24.1017 15.7554 23.7716 15.1818 23.2424 15.1818V15.3818C23.6174 15.3818 23.8513 15.7883 23.6629 16.1125L23.8358 16.213ZM21.2155 22.1C21.6032 22.1 21.9174 21.7857 21.9174 21.398H21.7174C21.7174 21.6753 21.4927 21.9 21.2155 21.9V22.1ZM20.5135 21.3981C20.5135 21.7857 20.8278 22.1 21.2155 22.1V21.9C20.9383 21.9 20.7135 21.6753 20.7135 21.3981H20.5135ZM12.4236 15.7938C12.2721 15.4236 11.9118 15.1818 11.5118 15.1818V15.3818C11.8306 15.3818 12.1177 15.5745 12.2385 15.8696L12.4236 15.7938ZM17.0823 22.1C17.4582 22.1 17.763 21.7953 17.763 21.4194H17.563C17.563 21.6848 17.3478 21.9 17.0823 21.9V22.1ZM16.4017 21.4194C16.4017 21.7953 16.7064 22.1 17.0823 22.1V21.9C16.8169 21.9 16.6017 21.6848 16.6017 21.4194H16.4017ZM19.7892 15.5358C19.6683 15.3173 19.4383 15.1818 19.1886 15.1818V15.3818C19.3656 15.3818 19.5285 15.4778 19.6142 15.6326L19.7892 15.5358ZM11.2072 22.1C11.5831 22.1 11.8878 21.7953 11.8878 21.4194H11.6878C11.6878 21.6848 11.4726 21.9 11.2072 21.9V22.1ZM14.1432 22.0803C14.4456 22.0803 14.7178 21.8969 14.8312 21.6166L14.6459 21.5416C14.563 21.7463 14.3641 21.8803 14.1432 21.8803V22.0803ZM16.7775 15.1818C16.3776 15.1818 16.0174 15.4234 15.8657 15.7934L16.0507 15.8693C16.1716 15.5744 16.4588 15.3818 16.7775 15.3818V15.1818ZM10.5265 21.4194C10.5265 21.7953 10.8313 22.1 11.2072 22.1V21.9C10.9417 21.9 10.7265 21.6848 10.7265 21.4194H10.5265ZM18.7681 16.1125C18.5797 15.7883 18.8136 15.3818 19.1886 15.3818V15.1818C18.6594 15.1818 18.3293 15.7554 18.5952 16.213L18.7681 16.1125ZM13.4551 21.6162C13.5684 21.8967 13.8407 22.0803 14.1432 22.0803V21.8803C13.9222 21.8803 13.7233 21.7462 13.6405 21.5412L13.4551 21.6162ZM17.763 16.1672C17.763 15.623 17.3217 15.1818 16.7775 15.1818V15.3818C17.2113 15.3818 17.563 15.7334 17.563 16.1672H17.763ZM10.7265 16.167C10.7265 15.7333 11.0781 15.3818 11.5118 15.3818V15.1818C10.9676 15.1818 10.5265 15.6229 10.5265 16.167H10.7265Z" fill="#19191A"/>
</svg>
