<svg width="35" height="36" viewBox="0 0 35 36" fill="none" xmlns="http://www.w3.org/2000/svg">
<path d="M4 35.245H30.46C31.4615 35.2452 32.4232 34.8535 33.1395 34.1536C33.8558 33.4537 34.2696 32.5012 34.2925 31.5V14.56C34.2939 13.9621 34.1553 13.3721 33.8879 12.8373C33.6205 12.3025 33.2317 11.8377 32.7525 11.48L19.505 1.64499C18.8429 1.15075 18.0387 0.883728 17.2125 0.883728C16.3863 0.883728 15.5821 1.15075 14.92 1.64499L1.6725 11.48C1.18806 11.8339 0.794347 12.2975 0.523624 12.8328C0.252901 13.3682 0.112869 13.9601 0.114999 14.56V31.5C0.142478 32.5088 0.565002 33.4666 1.29161 34.167C2.01822 34.8674 2.99081 35.2545 4 35.245Z" fill="#FFBC97"/>
<path d="M14.8501 13.545H10.4401C9.96653 13.545 9.58261 13.9289 9.58261 14.4025V18.8125C9.58261 19.2861 9.96653 19.67 10.4401 19.67H14.8501C15.3237 19.67 15.7076 19.2861 15.7076 18.8125V14.4025C15.7076 13.9289 15.3237 13.545 14.8501 13.545Z" fill="white"/>
<path d="M23.9675 13.545H19.5575C19.0839 13.545 18.7 13.9289 18.7 14.4025V18.8125C18.7 19.2861 19.0839 19.67 19.5575 19.67H23.9675C24.4411 19.67 24.825 19.2861 24.825 18.8125V14.4025C24.825 13.9289 24.4411 13.545 23.9675 13.545Z" fill="white"/>
<path d="M14.8501 22.4H10.4401C9.96653 22.4 9.58261 22.7839 9.58261 23.2575V27.6675C9.58261 28.141 9.96653 28.525 10.4401 28.525H14.8501C15.3237 28.525 15.7076 28.141 15.7076 27.6675V23.2575C15.7076 22.7839 15.3237 22.4 14.8501 22.4Z" fill="white"/>
<path d="M23.9675 22.4H19.5575C19.0839 22.4 18.7 22.7839 18.7 23.2575V27.6675C18.7 28.141 19.0839 28.525 19.5575 28.525H23.9675C24.4411 28.525 24.825 28.141 24.825 27.6675V23.2575C24.825 22.7839 24.4411 22.4 23.9675 22.4Z" fill="white"/>
</svg>
