<svg width="56" height="56" viewBox="0 0 56 56" fill="none" xmlns="http://www.w3.org/2000/svg">
<path d="M14 42.245H40.46C41.4615 42.2452 42.4233 41.8535 43.1395 41.1536C43.8558 40.4537 44.2696 39.5012 44.2925 38.5V21.56C44.2939 20.9621 44.1553 20.3721 43.8879 19.8373C43.6205 19.3025 43.2317 18.8377 42.7525 18.48L29.505 8.64499C28.8429 8.15075 28.0388 7.88373 27.2125 7.88373C26.3863 7.88373 25.5821 8.15075 24.92 8.64499L11.6725 18.48C11.1881 18.8339 10.7944 19.2975 10.5236 19.8328C10.2529 20.3682 10.1129 20.9601 10.115 21.56V38.5C10.1425 39.5088 10.565 40.4666 11.2916 41.167C12.0182 41.8674 12.9908 42.2545 14 42.245Z" fill="#FFBC97"/>
<path d="M24.8501 20.545H20.4401C19.9666 20.545 19.5826 20.9289 19.5826 21.4025V25.8125C19.5826 26.2861 19.9666 26.67 20.4401 26.67H24.8501C25.3237 26.67 25.7076 26.2861 25.7076 25.8125V21.4025C25.7076 20.9289 25.3237 20.545 24.8501 20.545Z" fill="white"/>
<path d="M33.9675 20.545H29.5575C29.0839 20.545 28.7 20.9289 28.7 21.4025V25.8125C28.7 26.2861 29.0839 26.67 29.5575 26.67H33.9675C34.4411 26.67 34.825 26.2861 34.825 25.8125V21.4025C34.825 20.9289 34.4411 20.545 33.9675 20.545Z" fill="white"/>
<path d="M24.8501 29.4H20.4401C19.9666 29.4 19.5826 29.7839 19.5826 30.2575V34.6675C19.5826 35.141 19.9666 35.525 20.4401 35.525H24.8501C25.3237 35.525 25.7076 35.141 25.7076 34.6675V30.2575C25.7076 29.7839 25.3237 29.4 24.8501 29.4Z" fill="white"/>
<path d="M33.9675 29.4H29.5575C29.0839 29.4 28.7 29.7839 28.7 30.2575V34.6675C28.7 35.141 29.0839 35.525 29.5575 35.525H33.9675C34.4411 35.525 34.825 35.141 34.825 34.6675V30.2575C34.825 29.7839 34.4411 29.4 33.9675 29.4Z" fill="white"/>
</svg>
