<svg width="18" height="19" viewBox="0 0 18 19" fill="none" xmlns="http://www.w3.org/2000/svg">
<path d="M9 9.5C9.89511 9.5 10.7536 9.14442 11.3865 8.51149C12.0194 7.87855 12.375 7.02011 12.375 6.125C12.375 5.22989 12.0194 4.37145 11.3865 3.73851C10.7536 3.10558 9.89511 2.75 9 2.75C8.10489 2.75 7.24645 3.10558 6.61351 3.73851C5.98058 4.37145 5.625 5.22989 5.625 6.125C5.625 7.02011 5.98058 7.87855 6.61351 8.51149C7.24645 9.14442 8.10489 9.5 9 9.5ZM11.25 6.125C11.25 6.72174 11.0129 7.29403 10.591 7.71599C10.169 8.13795 9.59674 8.375 9 8.375C8.40326 8.375 7.83097 8.13795 7.40901 7.71599C6.98705 7.29403 6.75 6.72174 6.75 6.125C6.75 5.52826 6.98705 4.95597 7.40901 4.53401C7.83097 4.11205 8.40326 3.875 9 3.875C9.59674 3.875 10.169 4.11205 10.591 4.53401C11.0129 4.95597 11.25 5.52826 11.25 6.125ZM15.75 15.125C15.75 16.25 14.625 16.25 14.625 16.25H3.375C3.375 16.25 2.25 16.25 2.25 15.125C2.25 14 3.375 10.625 9 10.625C14.625 10.625 15.75 14 15.75 15.125ZM14.625 15.1205C14.6239 14.8438 14.4517 14.0112 13.689 13.2485C12.9555 12.515 11.5751 11.75 9 11.75C6.42375 11.75 5.0445 12.515 4.311 13.2485C3.54825 14.0112 3.37725 14.8438 3.375 15.1205H14.625Z" fill="#767676"/>
</svg>
