<svg width="80" height="80" viewBox="0 0 80 80" fill="none" xmlns="http://www.w3.org/2000/svg">
<path d="M20.2666 9.60828C20.2666 9.60828 15.6666 9.69995 14.4332 11.925C13.1999 14.15 15.7332 15.15 16.9749 16.45C18.2166 17.75 17.8082 18.95 15.7166 20.6166C13.9916 22 14.6832 24.4333 15.7832 25.525L18.1332 26.2083C17.6855 25.6878 17.3558 25.0766 17.1666 24.4166C17.0318 23.9839 17.0173 23.5227 17.1244 23.0824C17.2316 22.642 17.4564 22.2391 17.7749 21.9166C19.1582 20.625 20.9832 19.6083 19.6666 17.6C18.4582 15.7416 16.5332 14.9 16.1499 14.0333C15.6332 12.8583 18.0416 11.225 21.3082 11.7083L20.2666 9.60828Z" fill="#F7BB4E"/>
<path d="M33.0582 35.2083C33.0417 34.693 32.8663 34.1954 32.556 33.7836C32.2457 33.3719 31.8157 33.0661 31.3249 32.9083C29.5749 32.4083 28.3499 34.1666 26.8582 34.025C25.8166 33.925 25.3916 32.6833 25.1916 31.6916C24.4832 28.4916 22.5082 28.7083 21.6082 28.9083L20.3082 30.6916C20.3082 30.6916 22.7582 29.8583 23.5332 31.8333C24.3082 33.8083 24.2999 35.8916 27.0666 35.1C28.7332 34.6083 31.0999 34.125 31.3916 35.9333L33.0582 35.2083Z" fill="#FF7E36"/>
<path d="M33.2082 8.78329L31.0666 4.53329L28.2749 6.08329L30.4832 10.325L33.2082 8.78329Z" fill="#FF7E36"/>
<path d="M8.49151 43.825L10.1665 39.3666L7.13318 38.3666L5.50818 42.8583L8.49151 43.825Z" fill="#FFC552"/>
<path d="M49.3915 17.2833L51.4915 13.0166L48.5665 11.7166L46.5165 16.0333L49.3915 17.2833Z" fill="#41D5B9"/>
<path d="M19.4665 41.8166C20.4928 41.8166 21.3248 40.9846 21.3248 39.9583C21.3248 38.932 20.4928 38.1 19.4665 38.1C18.4402 38.1 17.6082 38.932 17.6082 39.9583C17.6082 40.9846 18.4402 41.8166 19.4665 41.8166Z" fill="#41D5B9"/>
<path d="M22.8832 54.0833L53.5832 23.375L69.0498 65.125C69.2786 65.745 69.325 66.4176 69.1833 67.0632C69.0417 67.7087 68.7181 68.3002 68.2507 68.7675C67.7834 69.2349 67.192 69.5585 66.5464 69.7001C65.9008 69.8417 65.2282 69.7954 64.6082 69.5666L22.8832 54.0833Z" fill="#FFD279"/>
<mask id="mask0_173_7491" style="mask-type:alpha" maskUnits="userSpaceOnUse" x="22" y="23" width="48" height="47">
<path d="M22.8833 54.0832L53.5833 23.3748L69.05 65.1248C69.2787 65.7449 69.3251 66.4175 69.1834 67.0631C69.0418 67.7086 68.7182 68.3001 68.2509 68.7674C67.7835 69.2347 67.1921 69.5584 66.5465 69.7C65.901 69.8416 65.2283 69.7953 64.6083 69.5665L22.8833 54.0832Z" fill="#FFD279"/>
</mask>
<g mask="url(#mask0_173_7491)">
<path d="M70.2165 35.4998C29.7582 57.4998 -3.61681 60.7332 -3.61681 60.7332L-10.5251 53.0915C-10.5251 53.0915 22.3082 47.6415 62.9499 27.4998C103.592 7.35817 110.675 13.5165 70.2165 35.4998Z" fill="#FF7E36"/>
<path d="M54.8749 18.8582C23.1082 35.3248 -18.7001 44.0582 -18.7001 44.0582L-25.9668 36.0248C-25.9668 36.0248 19.3332 23.5248 46.9415 9.30816C74.5499 -4.9085 86.6665 2.39983 54.8749 18.8582Z" fill="#41D5B9"/>
<path d="M84.3248 50.9831C48.8748 74.8248 11.4165 77.6915 11.4165 77.6915L4.1665 69.6581C4.1665 69.6581 42.7082 63.5415 77.0665 42.9498C111.425 22.3581 118.442 28.0415 84.3248 50.9831Z" fill="#FF7E36"/>
</g>
<path d="M40.3032 40.7945C48.7906 32.3071 54.6975 24.4532 53.4966 23.2523C52.2957 22.0515 44.4419 27.9584 35.9545 36.4458C27.4671 44.9332 21.5602 52.7871 22.761 53.9879C23.9619 55.1888 31.8158 49.2819 40.3032 40.7945Z" fill="#E26229"/>
<path d="M35.9832 22.0333C35.9832 22.0333 33.8832 23.7 35.1499 25.5333C36.4166 27.3666 38.9999 29.3166 37.5582 30.9416C36.1166 32.5666 36.2582 34.275 37.9666 35.425C38.1957 35.5452 38.3967 35.7129 38.5561 35.9167C38.7156 36.1206 38.8298 36.3561 38.8913 36.6075C38.9528 36.8589 38.9601 37.1205 38.9127 37.3749C38.8653 37.6294 38.7644 37.8708 38.6166 38.0833L41.1166 37.6C41.1791 37.0371 41.1091 36.4675 40.9124 35.9365C40.7156 35.4055 40.3974 34.9278 39.9832 34.5416C38.5832 33.3416 38.1416 32.0416 39.6832 30.5416C41.2249 29.0416 39.4916 27.675 38.4916 26.6333C37.4916 25.5916 35.6499 24.2666 37.7916 22.3416L35.9832 22.0333Z" fill="#F7BB4E"/>
</svg>
