<svg width="18" height="18" viewBox="0 0 18 18" fill="none" xmlns="http://www.w3.org/2000/svg">
<path fill-rule="evenodd" clip-rule="evenodd" d="M13.125 4.5H14.625C15.4534 4.5 16.125 5.17157 16.125 6V15C16.125 15.8284 15.4534 16.5 14.625 16.5H7.125C6.29657 16.5 5.625 15.8284 5.625 15V13.5H3.375C2.54657 13.5 1.875 12.8284 1.875 12V3C1.875 2.17157 2.54657 1.5 3.375 1.5H11.625C12.4534 1.5 13.125 2.17157 13.125 3V4.5ZM11.625 2.7H3.375C3.20931 2.7 3.075 2.83431 3.075 3V12C3.075 12.1657 3.20931 12.3 3.375 12.3H5.625V6C5.625 5.17157 6.29657 4.5 7.125 4.5H11.925V3C11.925 2.83431 11.7907 2.7 11.625 2.7ZM7.125 5.7H14.625C14.7907 5.7 14.925 5.83431 14.925 6V15C14.925 15.1657 14.7907 15.3 14.625 15.3H7.125C6.95931 15.3 6.825 15.1657 6.825 15V6C6.825 5.83431 6.95931 5.7 7.125 5.7Z" fill="#0A86B7"/>
</svg>
