<svg width="80" height="80" viewBox="0 0 80 80" fill="none" xmlns="http://www.w3.org/2000/svg">
<path d="M52.2021 45.1746L61.6064 47.1444L57.2517 67.9349C57.1224 68.5519 56.873 69.1373 56.5175 69.6579C56.162 70.1784 55.7075 70.6238 55.1798 70.9687C54.6522 71.3136 54.0618 71.5512 53.4424 71.6679C52.8229 71.7846 52.1865 71.7781 51.5696 71.6489C50.9526 71.5197 50.3672 71.2702 49.8466 70.9147C49.3261 70.5592 48.8807 70.1047 48.5358 69.5771C48.1909 69.0494 47.9533 68.459 47.8366 67.8396C47.7199 67.2202 47.7264 66.5838 47.8556 65.9668L52.2103 45.1763L52.2021 45.1746Z" fill="#FF7E36"/>
<path d="M22.5251 56.7916L45.0751 50.2333L50.1585 25.9583L32.1418 10.9L22.5251 56.7916Z" fill="#FAC7AB"/>
<path d="M50.1604 25.9625L65.1762 29.1076C68.395 29.7818 71.2142 31.7071 73.0135 34.4599C74.8129 37.2127 75.4449 40.5675 74.7707 43.7864C74.0947 47.0033 72.1689 49.8202 69.4167 51.6178C66.6645 53.4154 63.3111 54.0466 60.0937 53.3727L45.0779 50.2276L50.1604 25.9625Z" fill="#FAC7AB"/>
<path d="M60.2932 53.428L50.8889 51.4582L50.4242 53.6767L59.8285 55.6465L60.2932 53.428Z" fill="#E26229"/>
<path d="M30.2338 34.4523C32.8889 21.7763 33.7157 11.2227 32.0805 10.8802C30.4454 10.5377 26.9674 20.536 24.3123 33.212C21.6573 45.888 20.8305 56.4415 22.4656 56.784C24.1008 57.1265 27.5788 47.1283 30.2338 34.4523Z" fill="#EFAB89"/>
<path d="M50.8834 51.45C51.9417 51.675 54.0917 46.45 55.5 39.7833C56.9084 33.1166 57.0251 27.4333 55.9667 27.2083L50.1334 25.9916C51.1917 26.2083 51.0667 31.825 49.6584 38.5666C48.25 45.3083 46.1 50.4916 45.05 50.2333" fill="#FF7E36"/>
<path d="M33.8668 29.1L28.5585 27.9833C27.0893 27.6837 25.5612 27.9474 24.2774 28.7222C22.9937 29.4969 22.0481 30.726 21.6285 32.1654C21.2088 33.6049 21.3457 35.1496 22.0119 36.4928C22.6782 37.8361 23.8252 38.8797 25.2252 39.4166C27.8418 38 31.5418 35 33.8668 29.1Z" fill="#FF7E36"/>
<path d="M38.7502 30.1167L31.4086 29.4083C29.9919 36.1667 27.0419 38.575 25.1919 39.4083C25.4857 39.5317 25.7896 39.6293 26.1002 39.7L36.9836 41.9833C36.9836 41.9833 41.9836 38.0667 42.2336 36.9833C42.4836 35.9 38.7502 30.1167 38.7502 30.1167Z" fill="#E26229"/>
<path d="M32.2835 11.0166L32.1418 10.9L32.2835 11.0166Z" fill="#FAC7AB"/>
<path d="M22.5 56.775L22.675 56.725C22.6193 56.7498 22.5604 56.7666 22.5 56.775Z" fill="#FAC7AB"/>
<path d="M32.3752 11.0917C33.6002 12.65 32.7169 22.625 30.2336 34.425C27.7502 46.225 24.5586 55.7417 22.8169 56.675L45.0752 50.2L50.1586 25.925L32.3752 11.0917Z" fill="#FAC7AB"/>
<path d="M10.3918 11.6666H16.9334C18.4518 11.6666 19.908 12.2698 20.9816 13.3434C22.0553 14.4171 22.6584 15.8733 22.6584 17.3916V23.1166H10.3918C9.63855 23.1166 8.89273 22.968 8.19705 22.6792C7.50138 22.3905 6.86952 21.9673 6.33768 21.4339C5.80585 20.9005 5.3845 20.2675 5.09777 19.5709C4.81104 18.8744 4.66458 18.1282 4.66677 17.375C4.67118 15.8595 5.2763 14.4076 6.34947 13.3375C7.42263 12.2675 8.87629 11.6666 10.3918 11.6666Z" fill="#FFCC66"/>
<path d="M10.0752 18.1916C10.5262 18.1916 10.8919 17.826 10.8919 17.375C10.8919 16.9239 10.5262 16.5583 10.0752 16.5583C9.62418 16.5583 9.25854 16.9239 9.25854 17.375C9.25854 17.826 9.62418 18.1916 10.0752 18.1916Z" fill="#E26229"/>
<path d="M13.6585 18.1916C14.1095 18.1916 14.4751 17.826 14.4751 17.375C14.4751 16.9239 14.1095 16.5583 13.6585 16.5583C13.2074 16.5583 12.8418 16.9239 12.8418 17.375C12.8418 17.826 13.2074 18.1916 13.6585 18.1916Z" fill="#E26229"/>
<path d="M17.25 18.1916C17.7011 18.1916 18.0667 17.826 18.0667 17.375C18.0667 16.9239 17.7011 16.5583 17.25 16.5583C16.799 16.5583 16.4333 16.9239 16.4333 17.375C16.4333 17.826 16.799 18.1916 17.25 18.1916Z" fill="#E26229"/>
</svg>
