<svg width="118" height="82" viewBox="0 0 118 82" fill="none" xmlns="http://www.w3.org/2000/svg">
<path d="M71.202 45.1746L80.6063 47.1444L76.2516 67.9349C76.1223 68.5519 75.8728 69.1373 75.5174 69.6579C75.1619 70.1784 74.7073 70.6238 74.1797 70.9687C73.6521 71.3136 73.0617 71.5512 72.4422 71.6679C71.8228 71.7846 71.1864 71.7781 70.5695 71.6489C69.9525 71.5197 69.367 71.2702 68.8465 70.9147C68.326 70.5592 67.8805 70.1047 67.5357 69.5771C67.1908 69.0494 66.9532 68.459 66.8365 67.8396C66.7198 67.2202 66.7262 66.5838 66.8555 65.9668L71.2102 45.1763L71.202 45.1746Z" fill="#FF7E36"/>
<path d="M41.525 56.7916L64.075 50.2333L69.1584 25.9583L51.1417 10.9L41.525 56.7916Z" fill="#FAC7AB"/>
<path d="M69.1602 25.9625L84.176 29.1076C87.3948 29.7818 90.214 31.7071 92.0133 34.4599C93.8126 37.2127 94.4447 40.5675 93.7705 43.7864V43.7864C93.0944 47.0033 91.1686 49.8202 88.4164 51.6178C85.6642 53.4154 82.3109 54.0466 79.0935 53.3727L64.0777 50.2276L69.1602 25.9625Z" fill="#FAC7AB"/>
<path d="M79.293 53.428L69.8888 51.4582L69.4241 53.6767L78.8284 55.6465L79.293 53.428Z" fill="#E26229"/>
<path d="M49.2337 34.4523C51.8888 21.7763 52.7156 11.2227 51.0804 10.8802C49.4452 10.5377 45.9673 20.536 43.3122 33.212C40.6571 45.888 39.8303 56.4415 41.4655 56.784C43.1007 57.1265 46.5786 47.1283 49.2337 34.4523Z" fill="#EFAB89"/>
<path d="M69.8834 51.45C70.9417 51.675 73.0917 46.45 74.5 39.7833C75.9084 33.1166 76.0251 27.4333 74.9667 27.2083L69.1334 25.9916C70.1917 26.2083 70.0667 31.825 68.6584 38.5666C67.25 45.3083 65.1 50.4916 64.05 50.2333" fill="#FF7E36"/>
<path d="M52.8667 29.1L47.5584 27.9833C46.0892 27.6837 44.5611 27.9474 43.2773 28.7222C41.9936 29.4969 41.048 30.726 40.6283 32.1654C40.2087 33.6049 40.3456 35.1496 41.0118 36.4928C41.6781 37.8361 42.825 38.8797 44.225 39.4166C46.8417 38 50.5417 35 52.8667 29.1Z" fill="#FF7E36"/>
<path d="M57.75 30.1167L50.4083 29.4083C48.9916 36.1667 46.0417 38.575 44.1917 39.4083C44.4854 39.5317 44.7893 39.6293 45.1 39.7L55.9833 41.9833C55.9833 41.9833 60.9833 38.0667 61.2333 36.9833C61.4833 35.9 57.75 30.1167 57.75 30.1167Z" fill="#E26229"/>
<path d="M51.2833 11.0166L51.1416 10.9L51.2833 11.0166Z" fill="#FAC7AB"/>
<path d="M41.5 56.775L41.675 56.725C41.6193 56.7498 41.5604 56.7666 41.5 56.775V56.775Z" fill="#FAC7AB"/>
<path d="M51.375 11.0917C52.6 12.65 51.7167 22.625 49.2333 34.425C46.75 46.225 43.5583 55.7417 41.8167 56.675L64.075 50.2L69.1583 25.925L51.375 11.0917Z" fill="#FAC7AB"/>
<path d="M29.3917 11.6666H35.9333C37.4517 11.6666 38.9079 12.2698 39.9815 13.3434C41.0551 14.4171 41.6583 15.8733 41.6583 17.3916V23.1166H29.3917C28.6384 23.1166 27.8926 22.968 27.1969 22.6792C26.5013 22.3905 25.8694 21.9673 25.3376 21.4339C24.8057 20.9005 24.3844 20.2675 24.0976 19.5709C23.8109 18.8744 23.6645 18.1282 23.6667 17.375V17.375C23.6711 15.8595 24.2762 14.4076 25.3493 13.3375C26.4225 12.2675 27.8762 11.6666 29.3917 11.6666V11.6666Z" fill="#FFCC66"/>
<path d="M29.075 18.1916C29.526 18.1916 29.8916 17.826 29.8916 17.375C29.8916 16.9239 29.526 16.5583 29.075 16.5583C28.6239 16.5583 28.2583 16.9239 28.2583 17.375C28.2583 17.826 28.6239 18.1916 29.075 18.1916Z" fill="#E26229"/>
<path d="M32.6583 18.1916C33.1094 18.1916 33.475 17.826 33.475 17.375C33.475 16.9239 33.1094 16.5583 32.6583 16.5583C32.2073 16.5583 31.8417 16.9239 31.8417 17.375C31.8417 17.826 32.2073 18.1916 32.6583 18.1916Z" fill="#E26229"/>
<path d="M36.25 18.1916C36.7011 18.1916 37.0667 17.826 37.0667 17.375C37.0667 16.9239 36.7011 16.5583 36.25 16.5583C35.799 16.5583 35.4333 16.9239 35.4333 17.375C35.4333 17.826 35.799 18.1916 36.25 18.1916Z" fill="#E26229"/>
<mask id="path-16-outside-1_386_9820" maskUnits="userSpaceOnUse" x="79" y="62" width="39" height="20" fill="black">
<rect fill="white" x="79" y="62" width="39" height="20"/>
<path d="M83.0141 77.477C83.0141 77.8344 83.2712 78.0447 83.6568 78.0447H85.4352C87.3635 78.0447 88.542 77.0986 88.542 75.4586C88.542 73.6925 87.4493 72.5992 85.4352 72.5992H83.0141V77.477ZM83.6568 65.7871C83.2712 65.7871 83.0141 65.9974 83.0141 66.3548V70.8331H85.2209C86.9993 70.8331 88.0492 69.7608 88.0492 68.205C88.0492 66.6702 87.0636 65.7871 85.2852 65.7871H83.6568ZM83.3569 64H85.4352C88.4134 64 90.0632 65.661 90.0632 67.9947C90.0632 69.9501 88.9062 71.2326 87.7278 71.6951C89.4847 72.2418 90.556 73.5874 90.556 75.6689C90.556 78.1288 88.7562 79.7898 85.7352 79.7898H83.3569C81.8142 79.7898 81 79.0749 81 77.7083V66.0815C81 64.7148 81.8142 64 83.3569 64Z"/>
<path d="M93.3987 72.0105V72.7464H97.8124C98.0696 72.7464 98.2195 72.5782 98.2195 72.3469V72.0105C98.2195 70.3285 97.4268 69.5296 95.7984 69.5296C94.1914 69.5296 93.3987 70.3285 93.3987 72.0105ZM100.255 77.456C99.7194 79.117 98.0053 80 95.7984 80C93.1844 80 91.3846 78.6124 91.3846 76.0683V71.7162C91.3846 69.1511 93.1844 67.7635 95.7984 67.7635C98.4338 67.7635 100.234 69.1511 100.234 71.7162V72.9987C100.234 73.9238 99.6979 74.4704 98.7766 74.4704H93.3987V75.774C93.3987 77.435 94.1914 78.2339 95.7984 78.2339C97.1482 78.2339 97.9839 77.8134 98.2838 77.0565C98.4767 76.5729 98.8195 76.2576 99.4623 76.3417C100.105 76.4258 100.426 76.9093 100.255 77.456Z"/>
<path d="M101.773 67.9527H102.416V65.703C102.416 65.1984 102.844 64.7989 103.423 64.7989C104.044 64.7989 104.43 65.1984 104.43 65.703V67.9527H105.651C106.144 67.9527 106.529 68.247 106.529 68.8357C106.529 69.4455 106.144 69.7398 105.651 69.7398H104.43V77.0565C104.43 77.8555 104.687 78.0657 105.544 78.0657C105.929 78.0657 106.315 78.3601 106.337 78.9067C106.358 79.4954 106.037 79.8318 105.629 79.8738C103.594 80.0841 102.416 79.4113 102.416 77.435V69.7398H101.773C101.28 69.7398 100.894 69.4455 100.894 68.8357C100.894 68.247 101.28 67.9527 101.773 67.9527Z"/>
<path d="M116 71.5059V79.138C116 79.5375 115.657 79.8949 115.1 79.8949C114.543 79.8949 114.157 79.6005 114.136 79.2221L114.05 78.1708C113.6 79.138 112.186 79.8949 110.815 79.8949C109.037 79.8949 107.515 78.8857 107.322 77.2037C107.087 74.8909 108.737 73.3141 111.136 72.9356C112.036 72.8095 113.172 72.7464 114.007 72.7464V71.6951C114.007 70.2234 113.279 69.5085 111.865 69.5085C110.665 69.5085 109.936 70.0342 109.829 70.9172C109.786 71.3167 109.465 71.6531 108.801 71.6741C108.137 71.6951 107.815 71.3167 107.815 70.8752C107.858 69.0039 109.422 67.7635 111.865 67.7635C114.372 67.7635 116 69.046 116 71.5059ZM114.007 74.3233C113.3 74.3022 112.1 74.3443 111.286 74.5545C109.872 74.912 109.165 75.753 109.294 76.7832C109.401 77.6032 110.086 78.0867 111.201 78.0447C113.022 77.9606 114.007 76.636 114.007 74.3233Z"/>
</mask>
<path d="M83.0141 77.477C83.0141 77.8344 83.2712 78.0447 83.6568 78.0447H85.4352C87.3635 78.0447 88.542 77.0986 88.542 75.4586C88.542 73.6925 87.4493 72.5992 85.4352 72.5992H83.0141V77.477ZM83.6568 65.7871C83.2712 65.7871 83.0141 65.9974 83.0141 66.3548V70.8331H85.2209C86.9993 70.8331 88.0492 69.7608 88.0492 68.205C88.0492 66.6702 87.0636 65.7871 85.2852 65.7871H83.6568ZM83.3569 64H85.4352C88.4134 64 90.0632 65.661 90.0632 67.9947C90.0632 69.9501 88.9062 71.2326 87.7278 71.6951C89.4847 72.2418 90.556 73.5874 90.556 75.6689C90.556 78.1288 88.7562 79.7898 85.7352 79.7898H83.3569C81.8142 79.7898 81 79.0749 81 77.7083V66.0815C81 64.7148 81.8142 64 83.3569 64Z" fill="#FA6616"/>
<path d="M93.3987 72.0105V72.7464H97.8124C98.0696 72.7464 98.2195 72.5782 98.2195 72.3469V72.0105C98.2195 70.3285 97.4268 69.5296 95.7984 69.5296C94.1914 69.5296 93.3987 70.3285 93.3987 72.0105ZM100.255 77.456C99.7194 79.117 98.0053 80 95.7984 80C93.1844 80 91.3846 78.6124 91.3846 76.0683V71.7162C91.3846 69.1511 93.1844 67.7635 95.7984 67.7635C98.4338 67.7635 100.234 69.1511 100.234 71.7162V72.9987C100.234 73.9238 99.6979 74.4704 98.7766 74.4704H93.3987V75.774C93.3987 77.435 94.1914 78.2339 95.7984 78.2339C97.1482 78.2339 97.9839 77.8134 98.2838 77.0565C98.4767 76.5729 98.8195 76.2576 99.4623 76.3417C100.105 76.4258 100.426 76.9093 100.255 77.456Z" fill="#FA6616"/>
<path d="M101.773 67.9527H102.416V65.703C102.416 65.1984 102.844 64.7989 103.423 64.7989C104.044 64.7989 104.43 65.1984 104.43 65.703V67.9527H105.651C106.144 67.9527 106.529 68.247 106.529 68.8357C106.529 69.4455 106.144 69.7398 105.651 69.7398H104.43V77.0565C104.43 77.8555 104.687 78.0657 105.544 78.0657C105.929 78.0657 106.315 78.3601 106.337 78.9067C106.358 79.4954 106.037 79.8318 105.629 79.8738C103.594 80.0841 102.416 79.4113 102.416 77.435V69.7398H101.773C101.28 69.7398 100.894 69.4455 100.894 68.8357C100.894 68.247 101.28 67.9527 101.773 67.9527Z" fill="#FA6616"/>
<path d="M116 71.5059V79.138C116 79.5375 115.657 79.8949 115.1 79.8949C114.543 79.8949 114.157 79.6005 114.136 79.2221L114.05 78.1708C113.6 79.138 112.186 79.8949 110.815 79.8949C109.037 79.8949 107.515 78.8857 107.322 77.2037C107.087 74.8909 108.737 73.3141 111.136 72.9356C112.036 72.8095 113.172 72.7464 114.007 72.7464V71.6951C114.007 70.2234 113.279 69.5085 111.865 69.5085C110.665 69.5085 109.936 70.0342 109.829 70.9172C109.786 71.3167 109.465 71.6531 108.801 71.6741C108.137 71.6951 107.815 71.3167 107.815 70.8752C107.858 69.0039 109.422 67.7635 111.865 67.7635C114.372 67.7635 116 69.046 116 71.5059ZM114.007 74.3233C113.3 74.3022 112.1 74.3443 111.286 74.5545C109.872 74.912 109.165 75.753 109.294 76.7832C109.401 77.6032 110.086 78.0867 111.201 78.0447C113.022 77.9606 114.007 76.636 114.007 74.3233Z" fill="#FA6616"/>
<path d="M83.0141 72.5992V70.5992H81.0141V72.5992H83.0141ZM83.0141 70.8331H81.0141V72.8331H83.0141V70.8331ZM87.7278 71.6951L86.997 69.8334L81.6976 71.9135L87.1336 73.6048L87.7278 71.6951ZM93.3987 72.7464H91.3987V74.7464H93.3987V72.7464ZM100.255 77.456L102.158 78.0698L102.161 78.0621L102.163 78.0544L100.255 77.456ZM93.3987 74.4704V72.4704H91.3987V74.4704H93.3987ZM98.2838 77.0565L96.4261 76.3157L96.4245 76.3196L98.2838 77.0565ZM102.416 67.9527V69.9527H104.416V67.9527H102.416ZM104.43 67.9527H102.43V69.9527H104.43V67.9527ZM104.43 69.7398V67.7398H102.43V69.7398H104.43ZM106.337 78.9067L108.335 78.834L108.335 78.8284L106.337 78.9067ZM105.629 79.8738L105.424 77.8844L105.424 77.8844L105.629 79.8738ZM102.416 69.7398H104.416V67.7398H102.416V69.7398ZM114.136 79.2221L116.133 79.109L116.131 79.0843L116.129 79.0596L114.136 79.2221ZM114.05 78.1708L116.044 78.0083L115.429 70.4664L112.237 77.3272L114.05 78.1708ZM107.322 77.2037L105.333 77.4064L105.334 77.419L105.335 77.4315L107.322 77.2037ZM111.136 72.9356L110.859 70.955L110.842 70.9574L110.825 70.96L111.136 72.9356ZM114.007 72.7464V74.7464H116.007V72.7464H114.007ZM109.829 70.9172L107.844 70.6763L107.842 70.6901L107.841 70.7039L109.829 70.9172ZM108.801 71.6741L108.738 69.6751L108.738 69.6751L108.801 71.6741ZM107.815 70.8752L105.816 70.8294L105.815 70.8523V70.8752H107.815ZM114.007 74.3233H116.007V72.3818L114.067 72.3241L114.007 74.3233ZM111.286 74.5545L111.776 76.4936L111.786 76.491L111.286 74.5545ZM109.294 76.7832L107.309 77.0308L107.31 77.0423L109.294 76.7832ZM111.201 78.0447L111.276 80.0433L111.284 80.0429L111.293 80.0425L111.201 78.0447ZM81.0141 77.477C81.0141 78.1694 81.2825 78.8889 81.8829 79.4079C82.448 79.8964 83.1165 80.0447 83.6568 80.0447V76.0447C83.8115 76.0447 84.1586 76.0878 84.4988 76.3818C84.8742 76.7064 85.0141 77.142 85.0141 77.477H81.0141ZM83.6568 80.0447H85.4352V76.0447H83.6568V80.0447ZM85.4352 80.0447C86.7003 80.0447 87.9815 79.7361 88.9838 78.9099C90.0377 78.0412 90.542 76.7974 90.542 75.4586H86.542C86.542 75.6277 86.5122 75.7147 86.4973 75.7485C86.4844 75.778 86.4696 75.7986 86.4396 75.8233C86.3706 75.8802 86.0985 76.0447 85.4352 76.0447V80.0447ZM90.542 75.4586C90.542 74.1559 90.1279 72.864 89.1146 71.9103C88.1168 70.9711 86.7921 70.5992 85.4352 70.5992V74.5992C86.0924 74.5992 86.321 74.774 86.3731 74.823C86.4097 74.8574 86.542 74.9952 86.542 75.4586H90.542ZM85.4352 70.5992H83.0141V74.5992H85.4352V70.5992ZM81.0141 72.5992V77.477H85.0141V72.5992H81.0141ZM83.6568 63.7871C83.1165 63.7871 82.448 63.9354 81.8829 64.4239C81.2825 64.9429 81.0141 65.6624 81.0141 66.3548H85.0141C85.0141 66.6898 84.8742 67.1254 84.4988 67.45C84.1586 67.744 83.8115 67.7871 83.6568 67.7871V63.7871ZM81.0141 66.3548V70.8331H85.0141V66.3548H81.0141ZM83.0141 72.8331H85.2209V68.8331H83.0141V72.8331ZM85.2209 72.8331C86.5131 72.8331 87.7525 72.437 88.6826 71.5495C89.6198 70.6553 90.0492 69.4457 90.0492 68.205H86.0492C86.0492 68.5201 85.9537 68.6246 85.9213 68.6555C85.8819 68.6931 85.7071 68.8331 85.2209 68.8331V72.8331ZM90.0492 68.205C90.0492 66.991 89.6432 65.7888 88.6556 64.9193C87.706 64.0833 86.4806 63.7871 85.2852 63.7871V67.7871C85.5683 67.7871 85.7574 67.8227 85.8721 67.8584C85.9282 67.8759 85.9642 67.8927 85.9849 67.904C85.9953 67.9096 86.0022 67.9141 86.0063 67.917C86.0105 67.9199 86.0123 67.9215 86.0125 67.9217C86.0127 67.9218 86.0119 67.9211 86.0106 67.9196C86.0092 67.9181 86.008 67.9166 86.0071 67.9153C86.0048 67.912 86.0071 67.9143 86.012 67.9264C86.0218 67.9507 86.0492 68.034 86.0492 68.205H90.0492ZM85.2852 63.7871H83.6568V67.7871H85.2852V63.7871ZM83.3569 66H85.4352V62H83.3569V66ZM85.4352 66C86.5605 66 87.1967 66.3102 87.5274 66.6081C87.8391 66.8889 88.0632 67.3204 88.0632 67.9947H92.0632C92.0632 66.3353 91.4625 64.7694 90.2047 63.6363C88.966 62.5203 87.2881 62 85.4352 62V66ZM88.0632 67.9947C88.0632 69.0862 87.4491 69.656 86.997 69.8334L88.4585 73.5569C90.3634 72.8092 92.0632 70.814 92.0632 67.9947H88.0632ZM87.1336 73.6048C87.6708 73.772 87.9921 74.022 88.1878 74.2889C88.383 74.5553 88.556 74.9789 88.556 75.6689H92.556C92.556 74.2773 92.1934 72.9874 91.4138 71.924C90.6345 70.861 89.5417 70.165 88.322 69.7854L87.1336 73.6048ZM88.556 75.6689C88.556 76.3812 88.3125 76.8401 87.9629 77.1454C87.5863 77.4743 86.8908 77.7898 85.7352 77.7898V81.7898C87.6006 81.7898 89.3155 81.2748 90.5941 80.1582C91.8997 79.018 92.556 77.4164 92.556 75.6689H88.556ZM85.7352 77.7898H83.3569V81.7898H85.7352V77.7898ZM83.3569 77.7898C83.1202 77.7898 82.9812 77.7617 82.9148 77.7418C82.8541 77.7234 82.8737 77.7182 82.9227 77.7614C82.9764 77.8088 83.0065 77.8625 83.0162 77.8874C83.0221 77.9026 83 77.8547 83 77.7083H79C79 78.797 79.3381 79.9335 80.2771 80.7616C81.1722 81.5509 82.3118 81.7898 83.3569 81.7898V77.7898ZM83 77.7083V66.0815H79V77.7083H83ZM83 66.0815C83 65.935 83.0221 65.8871 83.0162 65.9023C83.0065 65.9273 82.9764 65.981 82.9227 66.0283C82.8737 66.0715 82.8541 66.0663 82.9148 66.048C82.9812 66.028 83.1202 66 83.3569 66V62C82.3118 62 81.1722 62.2389 80.2771 63.0282C79.3381 63.8562 79 64.9928 79 66.0815H83ZM91.3987 72.0105V72.7464H95.3987V72.0105H91.3987ZM93.3987 74.7464H97.8124V70.7464H93.3987V74.7464ZM97.8124 74.7464C98.391 74.7464 99.0373 74.5463 99.5399 74.0342C100.034 73.5303 100.22 72.8975 100.22 72.3469H96.2195C96.2195 72.0276 96.3297 71.5945 96.6849 71.2325C97.0482 70.8624 97.491 70.7464 97.8124 70.7464V74.7464ZM100.22 72.3469V72.0105H96.2195V72.3469H100.22ZM100.22 72.0105C100.22 70.8907 99.9576 69.6677 99.0481 68.7395C98.1307 67.8033 96.9113 67.5296 95.7984 67.5296V71.5296C96.3139 71.5296 96.305 71.6553 96.1911 71.5391C96.0851 71.4309 96.2195 71.4484 96.2195 72.0105H100.22ZM95.7984 67.5296C94.6894 67.5296 93.4752 67.8068 92.5627 68.7443C91.6606 69.6712 91.3987 70.8905 91.3987 72.0105H95.3987C95.3987 71.4485 95.5331 71.4274 95.4291 71.5343C95.3828 71.5819 95.3495 71.5877 95.3841 71.576C95.43 71.5605 95.5557 71.5296 95.7984 71.5296V67.5296ZM98.3516 76.8421C98.1956 77.3257 97.5741 78 95.7984 78V82C98.4365 82 101.243 80.9082 102.158 78.0698L98.3516 76.8421ZM95.7984 78C94.8253 78 94.2306 77.7417 93.9119 77.4689C93.6346 77.2315 93.3846 76.8334 93.3846 76.0683H89.3846C89.3846 77.8473 90.0345 79.415 91.3106 80.5075C92.5453 81.5645 94.1575 82 95.7984 82V78ZM93.3846 76.0683V71.7162H89.3846V76.0683H93.3846ZM93.3846 71.7162C93.3846 70.9355 93.6382 70.5324 93.9149 70.2947C94.2325 70.0217 94.8253 69.7635 95.7984 69.7635V65.7635C94.1575 65.7635 92.5434 66.1991 91.3076 67.2612C90.0309 68.3585 89.3846 69.9318 89.3846 71.7162H93.3846ZM95.7984 69.7635C96.7858 69.7635 97.3841 70.0236 97.7032 70.2969C97.9803 70.5342 98.2336 70.9358 98.2336 71.7162H102.234C102.234 69.9315 101.587 68.3567 100.305 67.2589C99.0657 66.1972 97.4464 65.7635 95.7984 65.7635V69.7635ZM98.2336 71.7162V72.9987H102.234V71.7162H98.2336ZM98.2336 72.9987C98.2336 73.0791 98.2168 72.8896 98.4273 72.6764C98.6414 72.4595 98.8411 72.4704 98.7766 72.4704V76.4704C99.6335 76.4704 100.562 76.208 101.274 75.4866C101.983 74.7687 102.234 73.8434 102.234 72.9987H98.2336ZM98.7766 72.4704H93.3987V76.4704H98.7766V72.4704ZM91.3987 74.4704V75.774H95.3987V74.4704H91.3987ZM91.3987 75.774C91.3987 76.8896 91.6636 78.104 92.5672 79.0264C93.4787 79.9568 94.6895 80.2339 95.7984 80.2339V76.2339C95.5559 76.2339 95.4293 76.203 95.3822 76.1872C95.3461 76.1751 95.3784 76.1801 95.4246 76.2272C95.5301 76.3349 95.3987 76.3193 95.3987 75.774H91.3987ZM95.7984 80.2339C97.44 80.2339 99.3847 79.7071 100.143 77.7934L96.4245 76.3196C96.4458 76.266 96.4809 76.2108 96.5238 76.1666C96.5644 76.1248 96.5886 76.1167 96.5677 76.1268C96.5101 76.1545 96.2874 76.2339 95.7984 76.2339V80.2339ZM100.142 77.7973C100.15 77.7768 100.08 77.9701 99.8258 78.1422C99.5349 78.3392 99.2665 78.3331 99.2028 78.3248L99.7217 74.3586C99.0152 74.2661 98.254 74.3757 97.5828 74.8302C96.9485 75.2598 96.6107 75.8526 96.4261 76.3157L100.142 77.7973ZM99.2028 78.3248C99.0789 78.3085 98.7656 78.2167 98.5234 77.8693C98.2701 77.5059 98.2681 77.108 98.3466 76.8576L102.163 78.0544C102.413 77.2573 102.336 76.3442 101.805 75.5815C101.284 74.8346 100.488 74.4589 99.7217 74.3586L99.2028 78.3248ZM101.773 69.9527H102.416V65.9527H101.773V69.9527ZM104.416 67.9527V65.703H100.416V67.9527H104.416ZM104.416 65.703C104.416 66.0416 104.264 66.3448 104.047 66.5424C103.834 66.7356 103.597 66.7989 103.423 66.7989V62.7989C101.925 62.7989 100.416 63.9167 100.416 65.703H104.416ZM103.423 66.7989C103.298 66.7989 103.038 66.7523 102.792 66.5219C102.544 66.2891 102.43 65.9777 102.43 65.703H106.43C106.43 64.9237 106.123 64.1604 105.526 63.6016C104.932 63.0454 104.169 62.7989 103.423 62.7989V66.7989ZM102.43 65.703V67.9527H106.43V65.703H102.43ZM104.43 69.9527H105.651V65.9527H104.43V69.9527ZM105.651 69.9527C105.509 69.9527 105.202 69.9074 104.912 69.637C104.598 69.3443 104.529 68.9992 104.529 68.8357H108.529C108.529 68.0836 108.268 67.297 107.638 66.7099C107.032 66.1452 106.285 65.9527 105.651 65.9527V69.9527ZM104.529 68.8357C104.529 68.7031 104.584 68.3632 104.899 68.065C105.193 67.786 105.509 67.7398 105.651 67.7398V71.7398C106.286 71.7398 107.041 71.5465 107.651 70.9679C108.282 70.37 108.529 69.5781 108.529 68.8357H104.529ZM105.651 67.7398H104.43V71.7398H105.651V67.7398ZM102.43 69.7398V77.0565H106.43V69.7398H102.43ZM102.43 77.0565C102.43 77.5352 102.473 78.5876 103.336 79.3552C104.122 80.0542 105.114 80.0657 105.544 80.0657V76.0657C105.392 76.0657 105.381 76.0545 105.443 76.0682C105.517 76.0847 105.751 76.1499 105.994 76.3662C106.251 76.5947 106.364 76.8536 106.407 77.005C106.441 77.1256 106.43 77.1703 106.43 77.0565H102.43ZM105.544 80.0657C105.232 80.0657 104.923 79.9473 104.689 79.7215C104.438 79.4792 104.346 79.1887 104.338 78.985L108.335 78.8284C108.272 77.212 107.007 76.0657 105.544 76.0657V80.0657ZM104.338 78.9794C104.335 78.8959 104.354 78.6352 104.574 78.3565C104.799 78.0706 105.122 77.9157 105.424 77.8844L105.835 81.8633C106.544 81.79 107.231 81.4458 107.714 80.8341C108.191 80.2294 108.36 79.5062 108.335 78.834L104.338 78.9794ZM105.424 77.8844C105.034 77.9247 104.764 77.9136 104.589 77.8852C104.419 77.8576 104.386 77.8217 104.415 77.8424C104.459 77.8734 104.479 77.9131 104.475 77.9028C104.462 77.8727 104.416 77.7387 104.416 77.435H100.416C100.416 78.8186 100.847 80.2167 102.103 81.1063C103.242 81.913 104.641 81.9866 105.835 81.8633L105.424 77.8844ZM104.416 77.435V69.7398H100.416V77.435H104.416ZM102.416 67.7398H101.773V71.7398H102.416V67.7398ZM101.773 67.7398C101.915 67.7398 102.23 67.786 102.525 68.065C102.839 68.3632 102.894 68.7031 102.894 68.8357H98.8943C98.8943 69.5781 99.1421 70.37 99.7727 70.9679C100.383 71.5465 101.138 71.7398 101.773 71.7398V67.7398ZM102.894 68.8357C102.894 68.9992 102.826 69.3443 102.512 69.637C102.221 69.9074 101.914 69.9527 101.773 69.9527V65.9527C101.139 65.9527 100.392 66.1452 99.7856 66.7099C99.1553 67.297 98.8943 68.0836 98.8943 68.8357H102.894ZM114 71.5059V79.138H118V71.5059H114ZM114 79.138C114 78.7479 114.172 78.4026 114.424 78.1772C114.677 77.9501 114.945 77.8949 115.1 77.8949V81.8949C116.551 81.8949 118 80.8415 118 79.138H114ZM115.1 77.8949C115.161 77.8949 115.352 77.9101 115.582 78.0746C115.826 78.2493 116.104 78.6029 116.133 79.109L112.139 79.3351C112.247 81.2316 114.013 81.8949 115.1 81.8949V77.8949ZM116.129 79.0596L116.044 78.0083L112.057 78.3333L112.143 79.3846L116.129 79.0596ZM112.237 77.3272C112.251 77.2959 112.173 77.4515 111.837 77.631C111.525 77.7974 111.15 77.8949 110.815 77.8949V81.8949C111.851 81.8949 112.869 81.6139 113.72 81.16C114.546 80.7193 115.399 80.0129 115.864 79.0145L112.237 77.3272ZM110.815 77.8949C110.291 77.8949 109.898 77.745 109.662 77.5708C109.45 77.4146 109.338 77.2277 109.309 76.9759L105.335 77.4315C105.68 80.4342 108.367 81.8949 110.815 81.8949V77.8949ZM109.312 77.0009C109.252 76.406 109.423 76.0091 109.702 75.71C110.015 75.3749 110.584 75.0475 111.448 74.9112L110.825 70.96C109.289 71.2022 107.833 71.8525 106.78 72.9785C105.694 74.1407 105.158 75.6886 105.333 77.4064L109.312 77.0009ZM111.414 74.9162C112.205 74.8054 113.246 74.7464 114.007 74.7464V70.7464C113.098 70.7464 111.868 70.8135 110.859 70.955L111.414 74.9162ZM116.007 72.7464V71.6951H112.007V72.7464H116.007ZM116.007 71.6951C116.007 70.656 115.75 69.5138 114.888 68.6432C114.023 67.7687 112.886 67.5085 111.865 67.5085V71.5085C112.056 71.5085 112.142 71.5334 112.158 71.5385C112.163 71.5405 112.151 71.5369 112.127 71.5225C112.103 71.5076 112.074 71.4858 112.045 71.4567C112.016 71.4276 111.996 71.3994 111.983 71.3776C111.97 71.3566 111.968 71.3481 111.972 71.3592C111.981 71.3855 112.007 71.4862 112.007 71.6951H116.007ZM111.865 67.5085C110.996 67.5085 110.072 67.6965 109.291 68.2431C108.46 68.8245 107.963 69.6956 107.844 70.6763L111.815 71.1581C111.811 71.1865 111.797 71.2555 111.747 71.3392C111.697 71.4241 111.635 71.4848 111.584 71.5203C111.537 71.5531 111.522 71.5499 111.567 71.5381C111.612 71.526 111.708 71.5085 111.865 71.5085V67.5085ZM107.841 70.7039C107.872 70.4133 108.02 70.1015 108.289 69.8834C108.541 69.6798 108.75 69.6747 108.738 69.6751L108.864 73.6731C109.516 73.6525 110.218 73.4687 110.807 72.9918C111.414 72.5004 111.744 71.8206 111.818 71.1305L107.841 70.7039ZM108.738 69.6751C108.795 69.6733 109.093 69.6873 109.398 69.9621C109.706 70.2399 109.815 70.6013 109.815 70.8752H105.815C105.815 71.5905 106.085 72.3619 106.72 72.9341C107.352 73.5032 108.143 73.6959 108.864 73.6731L108.738 69.6751ZM109.815 70.921C109.822 70.5841 109.942 70.3712 110.166 70.1982C110.43 69.9933 110.963 69.7635 111.865 69.7635V65.7635C110.324 65.7635 108.854 66.1539 107.715 67.037C106.534 67.952 105.851 69.295 105.816 70.8294L109.815 70.921ZM111.865 69.7635C112.8 69.7635 113.31 70.0032 113.558 70.2197C113.766 70.4006 114 70.7428 114 71.5059H118C118 69.8091 117.42 68.2801 116.187 67.2047C114.994 66.165 113.436 65.7635 111.865 65.7635V69.7635ZM114.067 72.3241C113.301 72.3014 111.876 72.3366 110.786 72.6181L111.786 76.491C112.325 76.352 113.3 76.3031 113.948 76.3224L114.067 72.3241ZM110.796 72.6155C109.825 72.8609 108.89 73.3223 108.21 74.0957C107.492 74.9116 107.174 75.9511 107.309 77.0308L111.278 76.5355C111.278 76.5354 111.279 76.538 111.279 76.5434C111.279 76.5487 111.279 76.5563 111.278 76.5659C111.276 76.5858 111.272 76.6102 111.264 76.6369C111.246 76.6948 111.22 76.7293 111.213 76.7374C111.208 76.7434 111.333 76.6056 111.776 76.4936L110.796 72.6155ZM107.31 77.0423C107.435 77.9917 107.928 78.841 108.753 79.3963C109.529 79.9192 110.436 80.0749 111.276 80.0433L111.125 76.0461C110.85 76.0565 110.858 75.9915 110.986 76.078C111.055 76.1246 111.132 76.1983 111.191 76.2972C111.25 76.3945 111.271 76.479 111.277 76.5241L107.31 77.0423ZM111.293 80.0425C112.716 79.9768 114.006 79.3916 114.886 78.2213C115.713 77.1209 116.007 75.7284 116.007 74.3233H112.007C112.007 75.2309 111.809 75.657 111.688 75.8181C111.62 75.9093 111.506 76.0284 111.108 76.0468L111.293 80.0425Z" fill="white" mask="url(#path-16-outside-1_386_9820)"/>
</svg>
