<svg width="16" height="16" viewBox="0 0 16 16" fill="none" xmlns="http://www.w3.org/2000/svg">
<path d="M2.54492 2.54688L13.454 13.456" stroke="#5F6263" stroke-width="1.25" stroke-linecap="round" stroke-linejoin="round"/>
<path d="M9.66634 6.52368V3.55702C9.66676 3.1437 9.51358 2.74497 9.23655 2.43824C8.95952 2.13151 8.5784 1.93865 8.16717 1.89711C7.75595 1.85558 7.34396 1.96832 7.01118 2.21345C6.67841 2.45859 6.44859 2.81863 6.36634 3.22368M6.33301 6.33479V8.00146C6.3333 8.33088 6.4312 8.65283 6.61436 8.92664C6.79751 9.20046 7.0577 9.41385 7.36207 9.53988C7.66643 9.6659 8.00131 9.6989 8.32442 9.63472C8.64753 9.57053 8.94437 9.41203 9.17745 9.17924L6.33301 6.33479Z" stroke="#5F6263" stroke-width="1.25" stroke-linecap="round" stroke-linejoin="round"/>
<path d="M10.7771 10.7517C10.2348 11.3053 9.53941 11.6842 8.78024 11.8398C8.02106 11.9955 7.23269 11.9207 6.51629 11.6252C5.79988 11.3297 5.1881 10.8269 4.75944 10.1813C4.33078 9.53565 4.10479 8.77668 4.11046 8.00174V6.89062M11.8882 6.89062V8.00174C11.888 8.23087 11.8676 8.45954 11.8271 8.68507" stroke="#5F6263" stroke-width="1.25" stroke-linecap="round" stroke-linejoin="round"/>
<path d="M8 12.002V14.113" stroke="#5F6263" stroke-width="1.25" stroke-linecap="round" stroke-linejoin="round"/>
<path d="M5.77734 14.1123H10.2218" stroke="#5F6263" stroke-width="1.25" stroke-linecap="round" stroke-linejoin="round"/>
</svg>
