<svg width="24" height="24" viewBox="0 0 24 24" fill="none" xmlns="http://www.w3.org/2000/svg">
<path d="M13.8813 6.38128C14.223 6.03957 14.777 6.03957 15.1187 6.38128C15.4604 6.72299 15.4604 7.27701 15.1187 7.61872L13.8813 6.38128ZM9.5 12L8.88128 12.6187C8.53957 12.277 8.53957 11.723 8.88128 11.3813L9.5 12ZM15.1187 16.3813C15.4604 16.723 15.4604 17.277 15.1187 17.6187C14.777 17.9604 14.223 17.9604 13.8813 17.6187L15.1187 16.3813ZM15.1187 7.61872L10.1187 12.6187L8.88128 11.3813L13.8813 6.38128L15.1187 7.61872ZM10.1187 11.3813L15.1187 16.3813L13.8813 17.6187L8.88128 12.6187L10.1187 11.3813Z" fill="#41AC70"/>
</svg>
