<svg width="68" height="24" viewBox="0 0 68 24" fill="none" xmlns="http://www.w3.org/2000/svg">
<rect width="68" height="24" rx="4" fill="#F5F5F5"/>
<g clip-path="url(#clip0_2429_12371)">
<path d="M13.0584 7.8335H7.30508C6.58343 7.8335 5.99841 8.41851 5.99841 9.14016V15.0268C5.99841 15.7485 6.58343 16.3335 7.30508 16.3335H13.0584C13.7801 16.3335 14.3651 15.7485 14.3651 15.0268V9.14016C14.3651 8.41851 13.7801 7.8335 13.0584 7.8335Z" stroke="#469B6B" stroke-width="1.2" stroke-linecap="round" stroke-linejoin="round"/>
<path d="M16.1641 14.7265L18.0107 15.9531V8.45312L16.1641 9.68646V14.7265Z" stroke="#469B6B" stroke-width="1.2" stroke-linecap="round" stroke-linejoin="round"/>
</g>
<path d="M31.6188 6.49448H30.5V16.9945H31.6188V11.8273H33.1934V10.895H31.6188V6.49448ZM23.2569 14.1395L23.4268 15.0677C25.2417 15.0677 27.6989 15.047 29.9779 14.645L29.8992 13.8204C29.029 13.9448 28.0925 14.0193 27.1644 14.0649V13.0414C28.3453 12.8715 29.1326 12.1547 29.1409 11.1354C29.1326 9.95028 28.0967 9.17127 26.6133 9.17127C25.1133 9.17127 24.0898 9.95028 24.0981 11.1354C24.0898 12.1506 24.8646 12.8674 26.0497 13.0414V14.1064C25.047 14.1354 24.0856 14.1395 23.2569 14.1395ZM23.4517 8.62845H29.75V7.74171H27.1644V6.52348H26.0497V7.74171H23.4517V8.62845ZM25.1464 11.1354C25.1464 10.4641 25.7307 10.0331 26.6133 10.0331C27.4876 10.0331 28.0718 10.4641 28.0718 11.1354C28.0718 11.8025 27.4876 12.2169 26.6133 12.2127C25.7307 12.2169 25.1464 11.8025 25.1464 11.1354ZM37.0739 8.1768V7.04144H35.9716V8.08149C35.9634 9.64365 35.0145 11.0483 33.3777 11.6326L33.9786 12.5152C35.2009 12.0635 36.0918 11.1395 36.5435 9.96271C37.0034 10.9986 37.8653 11.8149 39.0172 12.221L39.6098 11.3467C38.0435 10.8329 37.0739 9.55249 37.0739 8.1768ZM34.7949 15.0221C34.7949 16.2693 36.1374 16.9779 38.317 16.9779C40.4799 16.9779 41.8059 16.2693 41.8059 15.0221C41.8059 13.7997 40.4799 13.0787 38.317 13.0787C36.1374 13.0787 34.7949 13.7997 34.7949 15.0221ZM35.9095 15.0221C35.9012 14.355 36.8004 13.9613 38.317 13.9613C39.8294 13.9613 40.7161 14.355 40.7161 15.0221C40.7161 15.7182 39.8294 16.0953 38.317 16.1036C36.8004 16.0953 35.9012 15.7182 35.9095 15.0221ZM40.596 12.8301H41.7106V10.0663H43.2313V9.13812H41.7106V6.49448H40.596V12.8301ZM53.1408 14.7652H48.8604V12.337H51.9889V7.33564H44.6256V12.337H47.7582V14.7652H43.5317V15.6851H53.1408V14.7652ZM45.7154 11.4544V8.23481H50.8991V11.4544H45.7154ZM62.3127 6.50276H61.1981V12.4779H62.3127V6.50276ZM53.8141 9.51519C53.8141 10.9572 54.9992 11.9807 56.6111 11.9807C58.2188 11.9807 59.3997 10.9572 59.3997 9.51519C59.3997 8.04005 58.2188 7.02901 56.6111 7.02901C54.9992 7.02901 53.8141 8.04005 53.8141 9.51519ZM54.9039 9.51519C54.8956 8.58702 55.6125 7.96547 56.6111 7.97376C57.5973 7.96547 58.31 8.58702 58.31 9.51519C58.31 10.4227 57.5973 11.0401 56.6111 11.0401C55.6125 11.0401 54.8956 10.4227 54.9039 9.51519ZM55.4094 16.8619H62.3127V13.0166H55.4094V16.8619ZM56.5075 15.9586V13.9075H61.2188V15.9586H56.5075Z" fill="#469B6B"/>
<defs>
<clipPath id="clip0_2429_12371">
<rect width="13.34" height="9.83333" fill="white" transform="translate(5.33435 7.1665)"/>
</clipPath>
</defs>
</svg>
