<svg width="72" height="24" viewBox="0 0 72 24" fill="none" xmlns="http://www.w3.org/2000/svg">
<rect width="72" height="24" rx="4" fill="#E0F3E9"/>
<g clip-path="url(#clip0_2382_8675)">
<path d="M15.06 7.8335H9.30667C8.58501 7.8335 8 8.41851 8 9.14016V15.0268C8 15.7485 8.58501 16.3335 9.30667 16.3335H15.06C15.7817 16.3335 16.3667 15.7485 16.3667 15.0268V9.14016C16.3667 8.41851 15.7817 7.8335 15.06 7.8335Z" stroke="#41AC70" stroke-linecap="round" stroke-linejoin="round"/>
<path d="M18.1641 14.7268L20.0107 15.9534V8.45343L18.1641 9.68676V14.7268Z" stroke="#41AC70" stroke-linecap="round" stroke-linejoin="round"/>
</g>
<path d="M33.6188 10.895V6.49448H32.5V16.9945H33.6188V11.8273H35.1934V10.895H33.6188ZM29.1644 7.74171V6.52348H28.0497V7.74171H25.4517V8.62845H31.75V7.74171H29.1644ZM29.1644 13.0414C30.3453 12.8715 31.1326 12.1547 31.1409 11.1354C31.1326 9.95028 30.0967 9.17127 28.6133 9.17127C27.1133 9.17127 26.0898 9.95028 26.0981 11.1354C26.0898 12.1506 26.8646 12.8674 28.0497 13.0414V14.1064C27.047 14.1354 26.0856 14.1395 25.2569 14.1395L25.4268 15.0677C27.2417 15.0677 29.6989 15.047 31.9779 14.645L31.8992 13.8204C31.029 13.9448 30.0925 14.0193 29.1644 14.0649V13.0414ZM27.1464 11.1354C27.1464 10.4641 27.7307 10.0331 28.6133 10.0331C29.4876 10.0331 30.0718 10.4641 30.0718 11.1354C30.0718 11.8025 29.4876 12.2169 28.6133 12.2127C27.7307 12.2169 27.1464 11.8025 27.1464 11.1354ZM43.7106 6.49448H42.596V12.8301H43.7106V10.0663H45.2313V9.13812H43.7106V6.49448ZM38.5435 9.96271C39.0034 10.9986 39.8653 11.8149 41.0172 12.221L41.6098 11.3467C40.0435 10.8329 39.0739 9.55249 39.0739 8.1768V7.04144H37.9716V8.08149C37.9634 9.64365 37.0145 11.0483 35.3777 11.6326L35.9786 12.5152C37.2009 12.0635 38.0918 11.1395 38.5435 9.96271ZM40.317 13.0787C38.1374 13.0787 36.7949 13.7997 36.7949 15.0221C36.7949 16.2693 38.1374 16.9779 40.317 16.9779C42.4799 16.9779 43.8059 16.2693 43.8059 15.0221C43.8059 13.7997 42.4799 13.0787 40.317 13.0787ZM40.317 16.1036C38.8004 16.0953 37.9012 15.7182 37.9095 15.0221C37.9012 14.355 38.8004 13.9613 40.317 13.9613C41.8294 13.9613 42.7161 14.355 42.7161 15.0221C42.7161 15.7182 41.8294 16.0953 40.317 16.1036ZM50.8604 12.337H53.9889V7.33564H46.6256V12.337H49.7582V14.7652H45.5317V15.6851H55.1408V14.7652H50.8604V12.337ZM52.8991 8.23481V11.4544H47.7154V8.23481H52.8991ZM63.1981 6.50276V12.4779H64.3127V6.50276H63.1981ZM58.6111 7.02901C56.9992 7.02901 55.8141 8.04005 55.8141 9.51519C55.8141 10.9572 56.9992 11.9807 58.6111 11.9807C60.2188 11.9807 61.3997 10.9572 61.3997 9.51519C61.3997 8.04005 60.2188 7.02901 58.6111 7.02901ZM58.6111 7.97376C59.5973 7.96547 60.31 8.58702 60.31 9.51519C60.31 10.4227 59.5973 11.0401 58.6111 11.0401C57.6125 11.0401 56.8956 10.4227 56.9039 9.51519C56.8956 8.58702 57.6125 7.96547 58.6111 7.97376ZM57.4094 13.0166V16.8619H64.3127V13.0166H57.4094ZM63.2188 13.9075V15.9586H58.5075V13.9075H63.2188Z" fill="#41AC70"/>
<defs>
<clipPath id="clip0_2382_8675">
<rect width="13.34" height="9.83333" fill="white" transform="translate(7.33594 7.16663)"/>
</clipPath>
</defs>
</svg>
