<svg width="22" height="22" viewBox="0 0 22 22" fill="none" xmlns="http://www.w3.org/2000/svg">
<path fill-rule="evenodd" clip-rule="evenodd" d="M14.9581 14.5002V7.79183C14.9581 5.6057 13.1859 3.8335 10.9998 3.8335C8.81366 3.8335 7.04145 5.6057 7.04145 7.79183V14.5002H14.9581ZM10.9998 1.8335C7.70909 1.8335 5.04145 4.50113 5.04145 7.79183V14.5002V14.6668H4.24429H3.66666C3.1604 14.6668 2.75 15.0772 2.75 15.5835C2.75 16.0898 3.1604 16.5002 3.66666 16.5002H4.24429H17.7557H18.3333C18.8396 16.5002 19.25 16.0898 19.25 15.5835C19.25 15.0772 18.8396 14.6668 18.3333 14.6668H17.7557H16.9581V14.5002V7.79183C16.9581 4.50113 14.2905 1.8335 10.9998 1.8335ZM13.75 17.4168C13.75 18.9356 12.5188 20.1668 11 20.1668C9.48122 20.1668 8.25 18.9356 8.25 17.4168H13.75Z" fill="#41AC70"/>
</svg>
