<svg width="22" height="22" viewBox="0 0 22 22" fill="none" xmlns="http://www.w3.org/2000/svg">
<path fill-rule="evenodd" clip-rule="evenodd" d="M5.04145 7.79183C5.04145 4.50113 7.70909 1.8335 10.9998 1.8335C14.2905 1.8335 16.9581 4.50113 16.9581 7.79183V14.6668H17.7557H18.3333C18.8396 14.6668 19.25 15.0772 19.25 15.5835C19.25 16.0898 18.8396 16.5002 18.3333 16.5002H17.7557H4.24429H3.66666C3.1604 16.5002 2.75 16.0898 2.75 15.5835C2.75 15.0772 3.1604 14.6668 3.66666 14.6668H4.24429H5.04145V7.79183ZM13.75 17.4168C13.75 18.9356 12.5188 20.1668 11 20.1668C9.48122 20.1668 8.25 18.9356 8.25 17.4168H13.75Z" fill="white"/>
</svg>
