<svg width="68" height="24" viewBox="0 0 68 24" fill="none" xmlns="http://www.w3.org/2000/svg">
<rect width="68" height="24" rx="4" fill="#F5F5F5"/>
<path d="M11.9987 5.88867C11.5567 5.88867 11.1327 6.06427 10.8202 6.37683C10.5076 6.68939 10.332 7.11331 10.332 7.55534V11.9998C10.332 12.4418 10.5076 12.8657 10.8202 13.1783C11.1327 13.4909 11.5567 13.6665 11.9987 13.6665C12.4407 13.6665 12.8646 13.4909 13.1772 13.1783C13.4898 12.8657 13.6654 12.4418 13.6654 11.9998V7.55534C13.6654 7.11331 13.4898 6.68939 13.1772 6.37683C12.8646 6.06427 12.4407 5.88867 11.9987 5.88867V5.88867Z" stroke="#469B6B" stroke-width="1.2" stroke-linecap="round" stroke-linejoin="round"/>
<path d="M15.8885 10.8887V11.9998C15.8885 13.0312 15.4788 14.0203 14.7495 14.7496C14.0202 15.479 13.031 15.8887 11.9996 15.8887C10.9682 15.8887 9.97906 15.479 9.24975 14.7496C8.52044 14.0203 8.11072 13.0312 8.11072 11.9998V10.8887" stroke="#469B6B" stroke-width="1.2" stroke-linecap="round" stroke-linejoin="round"/>
<path d="M11.9988 15.8887V18.1109" stroke="#469B6B" stroke-width="1.2" stroke-linecap="round" stroke-linejoin="round"/>
<path d="M9.77734 18.1108H14.2218" stroke="#469B6B" stroke-width="1.2" stroke-linecap="round" stroke-linejoin="round"/>
<path d="M28.1671 6.71409C25.8715 6.71409 24.413 7.46409 24.413 8.73204C24.413 9.97928 25.8715 10.721 28.1671 10.721C30.471 10.721 31.913 9.97928 31.913 8.73204C31.913 7.46409 30.471 6.71409 28.1671 6.71409ZM23.3895 12.4282H32.9613V11.529H23.3895V12.4282ZM24.5373 16.8619H31.7928V13.3688H24.5373V16.8619ZM25.5691 8.73204C25.5608 8.00691 26.5511 7.59254 28.1671 7.59668C29.7749 7.59254 30.7735 8.00691 30.7735 8.73204C30.7735 9.43232 29.7749 9.84254 28.1671 9.84668C26.5511 9.84254 25.5608 9.43232 25.5691 8.73204ZM25.6354 15.9586V14.2555H30.7113V15.9586H25.6354ZM37.1899 8.0732V7.07873H36.0794V8.11878C36.0711 9.69337 35.0973 11.0898 33.4192 11.6616L34.0158 12.5566C35.2879 12.0967 36.2037 11.1602 36.6595 9.95856C37.1153 11.011 37.9647 11.8191 39.1208 12.2376L39.7258 11.3674C38.1346 10.8494 37.1816 9.53591 37.1899 8.0732ZM35.1471 14.9931C35.1388 16.261 36.4896 16.9779 38.694 16.9779C40.8943 16.9779 42.241 16.261 42.2451 14.9931C42.241 13.721 40.8943 12.9834 38.694 12.9834C36.4896 12.9834 35.1388 13.721 35.1471 14.9931ZM36.2493 14.9931C36.241 14.268 37.1567 13.8577 38.694 13.8577C40.2272 13.8577 41.1388 14.268 41.1429 14.9931C41.1388 15.6934 40.2272 16.0994 38.694 16.0994C37.1567 16.0994 36.241 15.6934 36.2493 14.9931ZM38.8888 9.54834H41.1015V12.6934H42.212V6.49448H41.1015V8.6326H38.8888V9.54834ZM53.1408 14.7652H48.8604V12.337H51.9889V7.33564H44.6256V12.337H47.7582V14.7652H43.5317V15.6851H53.1408V14.7652ZM45.7154 11.4544V8.23481H50.8991V11.4544H45.7154ZM62.3127 6.50276H61.1981V12.4779H62.3127V6.50276ZM53.8141 9.51519C53.8141 10.9572 54.9992 11.9807 56.6111 11.9807C58.2188 11.9807 59.3997 10.9572 59.3997 9.51519C59.3997 8.04005 58.2188 7.02901 56.6111 7.02901C54.9992 7.02901 53.8141 8.04005 53.8141 9.51519ZM54.9039 9.51519C54.8956 8.58702 55.6125 7.96547 56.6111 7.97376C57.5973 7.96547 58.31 8.58702 58.31 9.51519C58.31 10.4227 57.5973 11.0401 56.6111 11.0401C55.6125 11.0401 54.8956 10.4227 54.9039 9.51519ZM55.4094 16.8619H62.3127V13.0166H55.4094V16.8619ZM56.5075 15.9586V13.9075H61.2188V15.9586H56.5075Z" fill="#469B6B"/>
</svg>
