<svg width="72" height="24" viewBox="0 0 72 24" fill="none" xmlns="http://www.w3.org/2000/svg">
<rect width="72" height="24" rx="4" fill="#E0F3E9"/>
<path d="M13.9987 5.88867C13.5567 5.88867 13.1327 6.06427 12.8202 6.37683C12.5076 6.68939 12.332 7.11331 12.332 7.55534V11.9998C12.332 12.4418 12.5076 12.8657 12.8202 13.1783C13.1327 13.4909 13.5567 13.6665 13.9987 13.6665C14.4407 13.6665 14.8646 13.4909 15.1772 13.1783C15.4898 12.8657 15.6654 12.4418 15.6654 11.9998V7.55534C15.6654 7.11331 15.4898 6.68939 15.1772 6.37683C14.8646 6.06427 14.4407 5.88867 13.9987 5.88867V5.88867Z" stroke="#41AC70" stroke-linecap="round" stroke-linejoin="round"/>
<path d="M17.8872 10.8887V11.9998C17.8872 13.0312 17.4774 14.0204 16.7481 14.7497C16.0188 15.479 15.0297 15.8887 13.9983 15.8887C12.9669 15.8887 11.9777 15.479 11.2484 14.7497C10.5191 14.0204 10.1094 13.0312 10.1094 11.9998V10.8887" stroke="#41AC70" stroke-linecap="round" stroke-linejoin="round"/>
<path d="M13.9961 15.8886V18.1108" stroke="#41AC70" stroke-linecap="round" stroke-linejoin="round"/>
<path d="M11.7773 18.1107H16.2218" stroke="#41AC70" stroke-linecap="round" stroke-linejoin="round"/>
<path d="M30.1671 6.71409C27.8715 6.71409 26.413 7.46409 26.413 8.73204C26.413 9.97928 27.8715 10.721 30.1671 10.721C32.471 10.721 33.913 9.97928 33.913 8.73204C33.913 7.46409 32.471 6.71409 30.1671 6.71409ZM30.1671 7.59668C31.7749 7.59254 32.7735 8.00691 32.7735 8.73204C32.7735 9.43232 31.7749 9.84254 30.1671 9.84668C28.5511 9.84254 27.5608 9.43232 27.5691 8.73204C27.5608 8.00691 28.5511 7.59254 30.1671 7.59668ZM25.3895 11.529V12.4282H34.9613V11.529H25.3895ZM26.5373 13.3688V16.8619H33.7928V13.3688H26.5373ZM32.7113 14.2555V15.9586H27.6354V14.2555H32.7113ZM44.212 12.6934V6.49448H43.1015V8.6326H40.8888V9.54834H43.1015V12.6934H44.212ZM38.6595 9.95856C39.1153 11.011 39.9647 11.8191 41.1208 12.2376L41.7258 11.3674C40.1346 10.8494 39.1816 9.53591 39.1899 8.0732V7.07873H38.0794V8.11878C38.0711 9.69337 37.0973 11.0898 35.4192 11.6616L36.0158 12.5566C37.2879 12.0967 38.2037 11.1602 38.6595 9.95856ZM40.694 12.9834C38.4896 12.9834 37.1388 13.721 37.1471 14.9931C37.1388 16.261 38.4896 16.9779 40.694 16.9779C42.8943 16.9779 44.241 16.261 44.2451 14.9931C44.241 13.721 42.8943 12.9834 40.694 12.9834ZM40.694 16.0994C39.1567 16.0994 38.241 15.6934 38.2493 14.9931C38.241 14.268 39.1567 13.8577 40.694 13.8577C42.2272 13.8577 43.1388 14.268 43.1429 14.9931C43.1388 15.6934 42.2272 16.0994 40.694 16.0994ZM50.8604 12.337H53.9889V7.33564H46.6256V12.337H49.7582V14.7652H45.5317V15.6851H55.1408V14.7652H50.8604V12.337ZM52.8991 8.23481V11.4544H47.7154V8.23481H52.8991ZM63.1981 6.50276V12.4779H64.3127V6.50276H63.1981ZM58.6111 7.02901C56.9992 7.02901 55.8141 8.04005 55.8141 9.51519C55.8141 10.9572 56.9992 11.9807 58.6111 11.9807C60.2188 11.9807 61.3997 10.9572 61.3997 9.51519C61.3997 8.04005 60.2188 7.02901 58.6111 7.02901ZM58.6111 7.97376C59.5973 7.96547 60.31 8.58702 60.31 9.51519C60.31 10.4227 59.5973 11.0401 58.6111 11.0401C57.6125 11.0401 56.8956 10.4227 56.9039 9.51519C56.8956 8.58702 57.6125 7.96547 58.6111 7.97376ZM57.4094 13.0166V16.8619H64.3127V13.0166H57.4094ZM63.2188 13.9075V15.9586H58.5075V13.9075H63.2188Z" fill="#41AC70"/>
</svg>
